<svg width="100%" height="100%" viewBox="0 0 303 43" fill="none" xmlns="http://www.w3.org/2000/svg">
<path d="M13.1412 38.3451C11.968 37.6485 16.0549 39.6247 13.3996 38.1951C13.9672 38.4561 14.551 38.689 15.1421 38.8907C15.2645 39.0152 15.3933 39.1395 15.5211 39.2615C14.7118 39.0123 13.9159 38.7064 13.1411 38.3454C13.1411 38.3453 13.1412 38.3452 13.1412 38.3451ZM11.6494 38.6072C12.4617 38.8565 14.7821 39.881 12.4033 38.4924C12.1767 38.4539 11.9444 38.4079 11.7171 38.3604C10.9131 37.8269 10.1479 37.2324 9.43774 36.591C9.15241 36.3983 8.87148 36.1974 8.59579 35.9885C8.35278 35.6011 8.12894 35.2108 7.91872 34.8139C8.17295 35.1001 8.43973 35.3828 8.71166 35.6539C9.9115 36.5817 10.9983 37.3826 12.8131 38.3195C12.6678 38.2104 12.5244 38.0996 12.3827 37.9866C13.2592 38.5314 14.1837 39.0055 15.1418 39.4003C14.2769 39.149 13.3313 38.7894 12.5673 38.4356C13.6515 39.2754 15.962 40.0018 17.1792 40.2027C18.8373 40.4883 18.4513 40.5008 19.6986 40.6061C19.8975 40.6174 19.9256 40.5475 20.3183 40.5718C20.6696 40.5922 21.0738 40.6071 21.5 40.6093C23.5632 40.6199 25.9531 40.6719 24.0122 40.8148C23.1477 40.8091 22.3153 40.8138 21.5 40.8232C19.1772 40.8444 16.9664 40.5357 14.7045 39.6555C15.4577 40.1166 13.7599 39.7193 11.6494 38.6072ZM73.7924 40.5998C72.7573 40.6973 70.6493 40.658 69.221 40.5903C69.2195 40.5903 69.2178 40.5903 69.2161 40.5903C68.9018 40.5754 68.1901 40.4459 69.2161 40.4512C70.8889 40.4602 71.6977 40.6641 72.5757 40.5257C72.9686 40.5514 73.3811 40.5744 73.7924 40.5998ZM77.4279 40.5877C78.4539 40.6377 77.9885 40.7914 76.7037 40.7498C76.7037 40.7499 76.7037 40.75 76.7037 40.7501C76.1676 40.7328 77.2201 40.6113 75.2973 40.7346C74.9046 40.6387 74.518 40.5514 74.1299 40.4587C74.6007 40.4571 75.0301 40.4546 75.5239 40.4533C75.1915 40.611 76.4021 40.5381 77.4279 40.5877ZM25.7462 40.728C25.9076 40.5862 25.2318 40.5871 24.0812 40.4887C25.1671 40.4933 26.2535 40.4983 27.3348 40.503C26.8035 40.5781 26.2775 40.6529 25.7462 40.728ZM4.72058 30.8397C4.71982 30.8383 4.71905 30.837 4.71828 30.8356C4.53235 30.5477 4.35409 30.2547 4.18546 29.9599C4.14086 29.7534 4.10116 29.5502 4.06389 29.344C3.52761 28.2685 3.09026 27.1317 2.76518 25.9653C2.92777 26.0765 3.48876 28.169 4.10155 29.1961C4.78132 30.8176 5.20779 31.5636 5.14907 31.7368C4.99845 31.4415 4.85718 31.1448 4.72058 30.8397ZM298.725 31.304C298.894 30.9203 299.048 30.5386 299.191 30.1475C298.932 30.6335 298.659 31.1058 298.356 31.5689C297.743 32.8937 297.545 32.9419 296.341 34.4028C292.252 38.4694 293.457 37.8517 288.589 39.7464C292.42 38.0389 290.868 38.5025 292.864 37.0224C293.367 36.8184 291.457 38.4628 292.889 37.5402C295.205 35.7235 297.074 33.5312 298.542 30.6701C298.48 30.7429 298.417 30.8153 298.354 30.8872C298.117 31.3372 297.865 31.7746 297.594 32.2053C297.853 31.7182 298.085 31.2331 298.304 30.7214C298.077 31.3978 298.861 29.7889 298.869 30.0587C298.88 30.1836 298.592 30.9345 298.399 31.3733C299.046 30.3326 299.607 29.1982 300.049 28.0346C299.882 28.6593 299.684 29.2777 299.456 29.8834C299.233 30.3649 298.992 30.833 298.731 31.2958C298.729 31.2985 298.727 31.3012 298.725 31.304ZM53.7125 2.35312C55.3025 2.2072 58.1918 2.18305 59.7125 2.34543C57.7111 2.34791 55.7138 2.35064 53.7125 2.35312ZM5.12 31.8932C5.0474 31.7326 4.97942 31.5756 4.91161 31.4139C5.34525 32.0494 5.81755 32.66 6.32041 33.2349C6.35319 33.3945 6.39032 33.5569 6.43085 33.7202C5.96009 33.1386 5.51999 32.5249 5.12 31.8932ZM52.2336 40.8221C51.6521 40.8264 51.6006 40.8241 50.8764 40.8139C50.8773 40.8139 50.878 40.814 50.8789 40.814C50.5918 40.8102 48.19 40.7684 48.4577 40.7132C49.6502 40.7122 50.9222 40.7132 52.1424 40.7132C52.1794 40.7495 52.1874 40.7855 52.2336 40.8221ZM38.1968 40.7899C38.1951 40.7898 38.1935 40.7896 38.1919 40.7895C37.7578 40.7811 37.3467 40.7641 36.8988 40.7609C38.5114 40.6741 38.7662 40.8299 40.2312 40.7859C41.6961 40.7415 42.6014 40.6555 43.8445 40.869C43.3823 40.901 42.8846 40.9467 42.4086 40.984C40.3289 40.8986 39.7688 40.9789 38.1007 41.0631C38.1331 40.9718 38.1644 40.8811 38.1968 40.7899ZM276.219 40.8904C275.821 40.9959 275.378 40.8924 275.332 40.8911C275.333 40.891 275.334 40.8909 275.335 40.8908C271.814 40.9885 275.793 40.8323 272.47 40.8159C272.964 40.7895 273.451 40.7616 273.94 40.7349C274.698 40.7859 275.479 40.8435 276.219 40.8904ZM161.828 40.8805C161.796 40.8498 161.757 40.819 161.725 40.7882C163.722 40.7954 164.231 40.6744 165.89 40.7846C164.536 40.8169 163.182 40.8489 161.828 40.8809C161.828 40.8808 161.828 40.8806 161.828 40.8805ZM62.2975 41.0457C60.0835 41.1043 58.4459 41.1302 56.3197 41.0371C56.3181 41.0369 56.3164 41.0368 56.3148 41.0367C56.1922 41.031 56.7851 40.9667 56.6251 40.9505C56.1864 40.9601 55.7335 40.9749 55.2902 40.9863C55.2302 40.9348 55.1729 40.8834 55.1128 40.8322C56.3606 40.8468 57.6092 40.8613 58.8616 40.8759C58.6767 40.8458 58.4874 40.816 58.3025 40.7859C59.3653 40.7703 60.4243 40.7549 61.4871 40.7393C61.1175 40.8238 60.7487 40.9082 60.3837 40.9929C61.0213 41.0106 61.6599 41.0277 62.2975 41.0457ZM195.069 41.2169C194.718 41.1833 195.368 41.1271 194.823 41.0982C194.278 41.0697 193.272 41.1323 193.508 41.0376C194.242 41.0249 195.013 41.0103 195.762 40.997C193.354 40.8262 190.951 40.9807 190.914 40.7699C193.225 40.8246 195.125 40.7992 197.362 40.7408C197.27 40.9081 195.032 41.0528 196.441 41.2099C195.989 41.2121 195.513 41.2153 195.074 41.2165C195.073 41.2166 195.071 41.2167 195.069 41.2169ZM10.8466 2.84601C12.0968 2.07267 15.2301 0.738642 17.0921 0.518884C17.546 0.432329 19.0831 0.526412 19.0766 0.57936C19.0432 0.715231 17.2642 0.979291 19.1891 0.815265C18.5434 0.887693 17.9206 0.9913 17.2919 1.12278C17.4234 1.19053 17.5528 1.25947 17.6771 1.33022C18.4351 1.17319 19.2057 1.05896 19.9748 0.988347C20.015 1.01622 20.055 1.04428 20.0949 1.07239C17.3364 1.35268 18.9749 1.29632 17.587 1.63239C18.8841 1.43504 20.2044 1.36579 21.5 1.42208C20.7494 1.41274 19.8697 1.46213 19.2131 1.53073C19.1446 1.68449 20.699 1.51896 20.9676 1.55812C21.724 1.63976 20.1758 1.61115 18.4029 1.92286C16.62 2.20572 14.6833 2.9396 14.443 3.16704C15.5786 2.75591 16.8079 2.43614 18.0234 2.24505C17.6817 2.33494 17.3376 2.43525 17.0022 2.54352C14.2608 3.01946 11.2953 4.32587 8.72315 6.38266C8.50029 6.57958 8.28185 6.78183 8.07137 6.98497C8.18338 6.97819 8.2915 6.97535 8.40287 6.97064C8.07914 7.27364 7.76195 7.59122 7.45998 7.91509C8.2377 6.8395 6.86002 8.03176 5.42833 9.74343C6.0527 8.7296 7.10177 7.69675 6.92279 7.66707C4.14 10.6631 1.89144 15.1379 1.62003 19.1355C1.56318 19.9683 1.67273 20.1044 1.6873 21.5117C1.69342 21.7696 1.70036 22.069 1.71336 22.4208C1.68821 22.3443 1.64853 22.3326 1.61803 22.2833C1.96714 26.2422 2.73009 28.6194 4.77418 32.191C4.70562 31.952 4.64406 31.7155 4.58555 31.4767C4.11417 30.748 3.68997 29.9868 3.31908 29.2017C3.22499 28.6033 3.49708 29.4246 2.7053 26.9744C2.16865 24.9325 2.44118 26.1592 2.27229 25.6065C2.06554 24.8508 2.05193 24.1582 1.9208 23.3278C1.83651 22.6843 1.75009 23.3928 1.72588 21.6891C1.85719 22.3747 2.02858 23.0588 2.23096 23.7168C2.24892 24.1263 2.27843 24.5299 2.32208 24.9395C2.21653 24.5363 2.12553 24.1391 2.0454 23.728C2.27199 25.1775 2.63117 26.5194 3.183 27.917C2.84858 27.5127 3.42272 28.9692 3.81673 29.721C4.42342 30.8923 3.80978 29.9353 4.22451 30.6969C4.65819 31.4513 5.23631 32.1916 6.16193 33.4423C5.58845 32.8267 6.2249 33.7758 6.03312 33.647C5.82948 33.5258 4.83105 32.1737 5.71971 33.5235C7.73556 35.8777 5.79429 33.1339 7.18549 34.6641C8.92088 36.405 9.18739 37.0494 8.52541 36.6614C8.0033 36.3544 6.56575 34.8842 6.1386 34.4542C8.51553 37.2996 8.91459 36.9249 9.39755 37.3036C11.3581 38.4521 9.77348 38.0912 12.2243 39.2739C12.1335 39.3377 12.0553 39.3968 11.9653 39.4562C12.3924 39.6613 12.6848 39.7813 13.2103 40.0037C11.7763 39.1083 13.0052 39.7253 13.6509 39.9951C14.6691 40.4174 13.1344 39.6753 13.4152 39.7633C14.1546 40.031 15.3113 40.46 14.6275 40.126C14.9316 40.2805 15.2679 40.4366 15.592 40.5777C16.8407 40.9546 19.8339 41.0336 17.0548 40.5821C17.3443 40.4957 18.2131 40.7519 18.9139 40.8629C19.6157 40.973 19.6107 40.8721 20.2287 40.9356C20.9802 41.0039 21.3545 41.0275 21.5 41.0652C21.6102 41.092 21.5886 41.1217 21.5 41.1527C21.321 41.2175 20.8637 41.2772 20.6759 41.3291C21.0119 41.3336 21.282 41.3279 21.5 41.3195C23.4387 41.2438 21.2298 41.1902 25.5688 41.1361C26.0357 41.0296 23.8045 40.916 25.6624 40.8545C26.0047 41.0395 27.3727 41.1724 30.0392 41.2339C30.2981 41.1914 30.5563 41.1484 30.8151 41.1059C32.271 41.2767 31.5268 41.4542 34.2215 41.2425C32.7748 41.6321 33.7695 41.3829 36.182 41.5415C36.672 41.5735 35.5398 41.6543 36.2239 41.6953C36.534 41.7138 37.2867 41.6528 38.0441 41.6999C38.4138 41.7232 40.1425 41.8734 41.3396 41.802C40.4614 41.6133 42.7359 41.4527 40.7854 41.2965C44.3906 41.335 46.9137 41.2444 42.8741 41.5018C43.7892 41.5589 44.7052 41.6158 45.6203 41.6726C46.2582 41.6276 46.9015 41.5829 47.544 41.5382C47.6409 41.6933 47.5435 41.7369 50.0562 41.7096C48.966 41.7462 47.8802 41.7834 46.7854 41.8203C46.7484 41.8517 46.596 41.8842 46.6326 41.9146C47.9736 41.8551 51.7496 41.8294 52.6646 41.7881C53.5797 41.7468 51.8125 41.7355 52.0759 41.6955C54.2709 41.3652 54.0969 41.6088 55.6719 41.5521C56.5963 41.5186 54.3892 41.4822 54.8838 41.4679C56.7175 41.4155 57.5681 41.5911 59.1941 41.5933C58.6165 41.4937 58.0436 41.3925 57.4798 41.2919C59.1854 41.2972 61.0865 41.2981 62.6719 41.2661C63.2942 41.2536 62.8239 41.1795 62.9256 41.1746C63.4298 41.1491 65.4817 41.1088 65.6989 41.1085C67.3342 41.1079 67.3809 41.2105 68.9698 41.2161C68.3461 41.2248 67.7595 41.2326 67.1497 41.241C66.8723 41.4074 66.5895 41.5738 66.3122 41.7405C67.8695 41.7526 69.4276 41.7645 70.9895 41.7766C69.848 41.721 68.7024 41.6657 67.561 41.6102C69.345 41.4757 71.1291 41.341 72.9131 41.2062C73.8421 41.2888 74.7674 41.3714 75.6964 41.454C78.2192 41.4322 77.7112 41.097 78.9081 41.3906C79.6519 41.3658 80.3958 41.341 81.1397 41.3165C81.0334 41.3584 80.9282 41.4004 80.8219 41.4423C81.7186 41.4165 82.6149 41.3909 83.5115 41.3648C82.5688 41.2164 81.6446 41.0603 80.7111 40.9162C82.4756 40.884 82.5095 41.0099 82.7726 41.0413C83.4705 41.1245 84.8559 41.0122 85.4105 41.0892C85.598 41.1157 83.8688 41.1985 84.4647 41.2941C84.5812 41.3127 86.8964 41.664 88.3735 41.5829C88.3458 41.5192 88.2316 41.4412 88.1716 41.3719C90.1583 41.3333 91.1714 41.6655 90.908 41.7586C91.9665 41.6934 93.5134 41.688 93.7306 41.5862C94.2714 41.5837 94.8081 41.5813 95.3488 41.5788C94.7854 41.8269 97.0408 41.7815 97.1887 41.5682C96.2597 41.5629 95.3296 41.5574 94.4006 41.5521C95.1031 41.2907 92.28 41.1329 98.1542 41.3751C99.2774 41.511 96.1578 41.3565 97.073 41.4584C98.6628 41.5176 100.155 41.468 101.666 41.5627C103.547 41.681 101.233 41.7948 105.615 41.6442C95.9503 41.267 106.94 41.3894 111.479 41.2723C112.727 41.6449 116.56 41.7629 121.839 41.6521C121.289 41.5484 119.628 41.6018 118.671 41.5677C117.715 41.5335 118.75 41.472 117.558 41.4236C116.366 41.3752 113.834 41.3093 112.627 41.2361C113.649 41.1774 118.694 41.0387 115.358 41.2053C117.849 41.3081 119.018 41.4137 122.105 41.4329C123.029 41.2712 122.961 41.1704 125.969 41.1658C124.19 41.3905 127.609 41.5468 126.856 41.779C124.722 41.7249 125.915 41.4992 124.681 41.3912C124.554 41.3804 122.567 41.4369 122.105 41.4329C124.111 41.6357 124.804 41.7111 123.57 41.9524C124.989 41.9312 125.872 41.9615 126.001 41.8463C126.297 41.8963 126.594 41.9463 126.885 41.9963C127.347 41.9951 127.763 41.9904 128.252 41.9914C127.578 41.8176 128.885 41.9246 129.814 41.8458C130.743 41.7669 129.497 41.6298 132.048 41.6279C131.198 41.5872 130.42 41.5523 129.597 41.5138C131.242 41.4691 132.893 41.4242 134.538 41.3794C133.383 41.2733 130.879 41.1156 130.947 40.9759C131.705 41.0286 134.301 40.936 134.585 40.9321C135.685 40.9179 135.085 41.006 135.169 41.0081C136.897 41.0509 138.32 41.0209 138.976 41.1544C140.275 41.0942 141.254 41.1285 142.632 41.1251C143.39 41.1233 143.242 41.0252 143.686 41.0438C146.634 41.168 143.825 41.2947 149.513 41.0535C148.825 40.9852 148.145 40.9154 147.457 40.8465C148.099 40.8207 148.738 40.7948 149.38 40.769C149.81 40.7814 150.236 40.7939 150.666 40.8064C150.657 40.9544 150.646 41.1028 150.636 41.2509C151.108 41.259 151.581 41.2668 152.053 41.2749C151.244 41.2895 150.433 41.3041 149.624 41.3187C149.55 41.3447 149.481 41.3708 149.407 41.3968C150.609 41.4372 151.807 41.4779 153.008 41.5186C153.031 41.4671 153.054 41.4152 153.077 41.3637C155.786 41.4354 155.85 41.479 158.424 41.3372C160.407 41.3387 162.022 41.1233 163.168 41.0327C163.58 41.0615 163.991 41.0908 164.407 41.1196C164.671 41.0768 164.937 41.0341 165.2 40.9913C165.722 41.0509 166.252 41.1105 166.774 41.1698C167.065 41.0345 167.216 40.9923 165.178 40.9448C165.876 40.7765 169.464 40.8507 170.924 40.9072C172.032 40.9501 170.803 41.0905 170.942 41.1076C171.404 41.1656 173.23 41.1155 173.614 41.1251C175.236 41.1652 176.373 41.1582 177.838 41.1892C178.123 41.1954 178.921 41.2844 178.988 41.2872C179.515 41.3024 180.816 41.3456 180.964 41.3469C188.593 41.4133 180.441 41.0273 187.535 41.068C187.323 41.0171 187.127 40.9666 186.919 40.9157C187.455 40.9126 187.997 40.9096 188.533 40.9065C189.212 40.949 188.39 41.0264 189.739 40.964C189.652 41.0267 189.563 41.0895 189.471 41.1519C190.058 41.118 190.624 41.0844 191.225 41.0506C192.167 41.2682 195.61 41.3177 195.365 41.5732C195.282 41.6601 192.841 41.7493 194.131 41.8421C195.179 41.8604 194.47 41.7566 194.897 41.7511C197.985 41.7133 197.805 41.8588 199.067 41.82C199.266 41.7576 199.474 41.694 199.678 41.631C200.154 41.6493 200.631 41.6676 201.111 41.686C201.222 41.644 201.338 41.6021 201.449 41.5602C201 41.5574 200.495 41.5545 200.084 41.5517C200.658 41.3894 205.925 41.3165 203.917 41.4549C203.099 41.5111 201.6 41.4872 202.547 41.679C203.957 41.6514 205.556 41.6231 207.04 41.5955C207.086 41.6368 207.129 41.6782 207.175 41.7195C209.175 41.6927 207.356 41.5276 207.36 41.4391C207.817 41.4367 208.279 41.4345 208.737 41.432C208.931 41.472 209.115 41.5139 209.318 41.5527C209.337 41.489 209.593 41.341 210.956 41.3959C211.832 41.4317 210.452 41.5923 212.123 41.5701C211.998 41.4707 211.395 41.3497 213.256 41.3177C213.441 41.4214 213.697 41.5164 213.84 41.6253C216.155 41.5257 217.209 41.6858 219.926 41.5701C221.65 41.4968 224.012 41.2367 225.126 41.6374C226.387 41.648 225.986 41.5482 226.36 41.5257C228.121 41.4196 229.431 41.6096 229.759 41.6208C231.852 41.6924 232.79 41.6266 234.495 41.7163C234.403 41.6421 234.352 41.5719 234.278 41.4996C232.716 41.6107 231.925 41.6055 229.734 41.5816C230.469 41.5667 231.204 41.5514 231.938 41.5365C231.818 41.4763 231.699 41.4161 231.584 41.3562C224.808 41.5934 226.389 41.2186 232.069 41.1367C232.559 41.2481 233.067 41.3592 233.552 41.471C236.833 41.3021 238.377 41.4487 242.089 41.4838C242.53 41.4878 244.137 41.4236 244.827 41.4205C244.816 41.42 244.804 41.4196 244.793 41.4192C245.223 41.3139 244.641 41.2655 244.571 41.1715C244.946 41.1597 245.32 41.1479 245.694 41.1361C246.53 41.2078 246.237 41.2667 247.882 41.2496C247.66 41.1782 247.441 41.1068 247.219 41.0354C249.022 41.0329 250.201 41.1105 251.879 41.077C251.597 41.104 251.319 41.1311 251.037 41.1581C254.688 41.227 251.782 41.6468 254.542 41.4379C254.717 41.4745 254.888 41.5115 255.064 41.5481C253.927 41.5571 252.79 41.5658 251.657 41.5748C251.634 41.6266 251.609 41.6782 251.591 41.7301C252.807 41.7146 254.028 41.6985 255.244 41.683C254.356 41.7178 253.464 41.7526 252.576 41.7874C253.986 41.8122 255.396 41.8371 256.805 41.8619C255.308 41.6713 257.249 41.648 256.884 41.4593C259.38 41.6164 261.34 41.8235 265.209 41.6909C265.976 41.6645 265.559 41.5326 267.736 41.6931C267.209 41.4832 269.936 41.3848 269.586 41.1852C268.828 41.1948 268.042 41.2009 267.308 41.2126C268.144 41.2819 268.283 41.4723 267.012 41.5289C265.39 41.6009 263.024 41.4689 263.12 41.6803C262.473 41.6703 261.872 41.6645 261.244 41.6561C261.502 41.6037 261.755 41.5509 262.01 41.4985C260.222 41.5807 259.098 41.5539 258.239 41.4217C260.369 41.3913 262.495 41.3612 264.625 41.3311C264.311 41.3221 263.993 41.3131 263.679 41.3044C265.293 41.1693 263.629 41.0414 266.638 41.0125C266.619 41.0743 266.604 41.1361 266.586 41.1982C267.681 41.033 270.681 41.0339 269.724 40.8439C270.63 40.9023 270.814 40.9392 271.327 40.8368C273.717 40.9811 275.251 41.1637 274.401 41.3816C275.288 41.3466 276.176 41.3114 277.059 41.2764C276.546 41.2168 276.032 41.1574 275.519 41.0978C277.063 41.1016 278.618 41.1052 280.157 41.1086C280.305 41.285 277.186 41.1621 278.086 41.3198C278.266 41.3514 279.097 41.2836 279.315 41.3014C281.616 41.4942 278.003 41.355 278.682 41.5027C281.092 41.5348 280.453 41.6666 281.5 41.6698C281.948 41.6659 282.702 41.6565 284.095 41.4217C284.225 41.4562 284.366 41.489 284.489 41.522C286.126 41.2485 285.969 41.1519 287.326 40.75C288.168 40.4849 289.293 40.2746 290.126 39.7238C290.254 39.5997 288.742 40.1953 291.748 38.5569C293.984 37.1184 293.153 37.8548 294.34 37.0158C295.566 36.1774 297.559 33.5053 298.278 32.8074C297.821 33.4242 297.214 34.1871 296.631 34.8021C296.443 35.0959 296.253 35.379 296.053 35.6615C297.371 34.2254 298.584 32.5954 299.106 31.3865C300.6 29.2215 301.132 26.2887 300.713 27.0017C300.501 27.8178 300.872 26.9711 300.446 28.0697C300.358 28.1667 300.268 28.2684 300.179 28.3628C300.864 26.4983 301.062 25.115 301.037 26.0441C301.11 25.7422 301.176 25.4412 301.235 25.1369C301.134 25.062 301.031 24.9939 300.929 24.9206C300.98 24.5578 301.019 24.1959 301.049 23.8322C301.121 23.4303 301.181 23.0324 301.229 22.6209C301.348 23.1485 301.37 24.0356 301.528 21.5117C301.533 21.3517 301.537 21.1785 301.538 20.9912C301.476 20.9836 301.414 20.9717 301.352 20.9642C301.257 18.3569 301.473 18.2116 300.512 15.0288C301.529 17.4076 301.226 18.9023 301.671 18.8241C301.728 19.4725 301.753 20.1253 301.748 20.7715C301.814 20.8673 301.879 20.9633 301.944 21.0565C302.035 17.4604 299.542 12.143 298.323 10.1871C298.138 9.97253 297.952 9.75892 297.755 9.55125C296.496 7.64358 295.543 7.18635 293.905 5.58395C293.708 5.44995 294.418 5.35038 291.821 3.74468C291.864 3.8218 291.859 3.9071 291.883 3.98712C291.335 3.6295 290.772 3.2982 290.193 2.99506C290.069 2.98246 289.939 2.96866 289.815 2.95881C290.824 3.42951 291.79 3.9815 292.706 4.60971C291.929 4.11072 291.115 3.66305 290.279 3.27561C291.328 3.86644 291.777 4.1587 291.1 3.8973C290.19 3.40761 289.241 2.98866 288.266 2.64601C288.157 2.63643 288.048 2.62833 287.939 2.62059C288.382 2.85949 288.822 3.11539 289.24 3.38605C286.824 2.28308 284.527 1.86145 282.488 1.59662C282.167 1.56316 283.195 1.48684 281.5 1.5145C281.351 1.51986 281.182 1.52642 280.988 1.53431C280.951 1.47691 280.887 1.43029 280.845 1.37722C277.915 1.53804 276.952 1.49004 273.897 1.37392C275.875 1.48228 274.11 1.4118 273.607 1.46986C273.261 1.50986 274.609 1.50395 274.456 1.54585C274.304 1.58745 272.553 1.75543 274.05 1.77564C277.156 1.48425 278.349 1.73428 281.5 1.71774C282.07 1.71498 282.699 1.72593 283.416 1.76884C282.778 1.74722 282.138 1.75623 281.5 1.79561C281.417 1.80067 281.335 1.80573 281.252 1.81079C281.336 1.81822 281.418 1.82548 281.5 1.83269C281.746 1.85475 281.984 1.88017 282.255 1.91441C281.957 1.89531 281.707 1.88602 281.5 1.88098C279.905 1.84309 280.793 1.88272 279.838 1.92962C278.756 1.98271 276.791 2.02781 275.474 2.04241C275.059 2.04699 275.496 1.96976 274.56 1.96258C273.922 1.95761 272.179 2.07209 271.777 1.93713C271.513 1.84927 274.313 1.60734 270.442 1.60792C269.713 1.52179 271.569 1.54854 271.609 1.53816C271.946 1.4357 269.566 1.35867 268.466 1.43691C268.377 1.44366 269.246 1.5235 268.301 1.55482C266.06 1.62965 264.765 1.53808 263.314 1.4142C263.156 1.55951 261.27 1.73304 258.922 1.67933C258.802 1.72091 258.687 1.76286 258.567 1.80475C258.932 1.78274 259.296 1.76103 259.661 1.73902C260.058 1.7651 260.48 1.78408 260.868 1.81482C258.507 1.85055 258.173 2.0508 257.04 2.12407C253.165 2.37435 255.514 1.84492 256.213 1.75366C256.717 1.79061 257.204 1.83185 257.703 1.87066C257.647 1.82005 257.591 1.76906 257.54 1.71814C251.74 1.71969 256.657 1.38963 253.713 1.29556C252.955 1.54454 250.792 1.56854 248.038 1.41054C247.733 1.41178 247.427 1.4121 247.122 1.41365C247.071 1.44996 247.072 1.50545 246.989 1.52937C243.67 1.5716 243.079 1.18815 242.765 1.15183C241.369 0.990715 240.282 1.21363 239.871 1.21554C238.137 1.2233 237.634 1.12432 235.984 1.16684C234.209 1.21278 235.423 1.28873 234.883 1.35671C234.45 1.4107 233.05 1.42031 232.472 1.47627C232.701 1.4305 232.957 1.38562 233.186 1.33968C231.347 1.27729 229.844 1.21647 227.755 1.20126C225.398 1.53615 223.392 0.971239 224.206 1.4294C226.184 1.46076 227.29 1.51297 228.348 1.62971C227.05 1.64461 225.75 1.65912 224.452 1.67402C224.073 1.62373 223.804 1.57473 223.356 1.52351C222.386 1.63029 220.136 1.58447 219.253 1.61579C215.116 1.76265 216.396 1.94479 212.62 1.63868C215.341 1.60885 215.337 1.46018 218.036 1.48067C217.453 1.37449 216.082 1.39649 216.969 1.26919C214.358 1.30054 215.202 1.41419 214.186 1.51509C213.31 1.60207 211.545 1.60694 211.644 1.71997C211.464 1.65783 211.324 1.59766 211.144 1.5356C209.453 1.53622 207.762 1.53626 206.07 1.53688C206.791 1.472 207.512 1.407 208.233 1.34243C207.688 1.31792 207.142 1.29351 206.598 1.26901C202.438 1.47081 195.265 1.10095 196.41 1.60792C194.405 1.62406 194.154 1.56048 193.063 1.46455C192.943 1.50304 192.826 1.53505 192.706 1.57789C191.412 1.5376 190.419 1.6821 189.277 1.64454C188.136 1.60727 187.853 1.47078 187.686 1.7002C186.947 1.63439 186.212 1.57972 185.477 1.51857C185.034 1.57069 184.591 1.62221 184.152 1.67402C183.459 1.6467 182.764 1.61949 182.071 1.59217C181.7 1.70169 178.974 1.65448 177.773 1.72803C176.632 1.60998 176.663 1.23829 173.98 1.30489C174.049 1.39708 174.117 1.489 174.187 1.58119C173.572 1.56194 172.956 1.54276 172.337 1.52351C172.3 1.49342 172.268 1.46333 172.231 1.43324C172.545 1.44256 172.855 1.45182 173.169 1.46144C172.897 1.41052 172.63 1.35984 172.361 1.30892C171.423 1.38436 170.484 1.4598 169.541 1.53523C170.812 1.59234 172.083 1.64949 173.354 1.70661C171.759 1.77429 170.65 1.70678 169.263 1.78223C168.057 1.65495 168.502 1.58162 168.992 1.4435C168.544 1.45529 168.09 1.46668 167.642 1.47847C167.938 1.34033 167.18 1.25802 169.8 1.26919C169.62 1.22979 169.436 1.19223 169.26 1.15128C168.831 1.15748 168.552 1.12418 168.081 1.13938C166.796 1.18098 165.811 1.42361 165.898 1.50868C165.946 1.55324 167.213 1.46802 167.162 1.53102C167.037 1.68464 164.13 1.61567 168.322 1.76996C166.931 1.86776 166.62 1.794 165.086 1.76575C165.206 1.81694 165.322 1.86781 165.438 1.919C164.726 1.89541 164.014 1.87191 163.302 1.84832C164.292 1.58536 159.045 1.4866 163.768 1.25656C162.372 1.24476 160.982 1.2329 159.591 1.22049C159.877 1.19348 160.164 1.16675 160.45 1.13974C161.079 1.15402 161.703 1.16807 162.332 1.18204C161.593 1.13269 160.852 1.08363 160.113 1.03428C158.366 1.09544 157.681 1.18951 156.881 1.30563C158.914 1.39036 158.25 1.27462 159.834 1.25161C159.779 1.32515 159.852 1.39279 159.714 1.47005C158.895 1.31773 156.225 1.42854 155.605 1.43599C153.721 1.45862 155.199 1.30896 153.938 1.30581C152.676 1.30271 151.188 1.39178 150.157 1.24337C150.176 1.32656 150.258 1.41262 150.332 1.48836C148.368 1.51568 148.76 1.41741 148.556 1.40468C145.312 1.19543 143.551 1.37209 139.84 1.39351C140.311 1.41928 140.787 1.44254 141.263 1.46675C138.463 1.64336 140.349 1.58929 142.78 1.64765C140.502 1.62995 139.197 1.78036 137.588 1.82507C135.98 1.8697 133.222 1.79245 132.214 1.73224C134.52 1.63537 137.008 1.69925 139.569 1.67255C139.278 1.58781 138.995 1.5161 138.694 1.42299C137.137 1.60084 136.234 1.48192 135.721 1.45833C134.215 1.38913 134.262 1.54177 133.352 1.37758C133.389 1.43407 133.416 1.48156 133.453 1.53431C130.343 1.51072 126.987 1.41086 124.963 1.61945C124.778 1.48379 124.639 1.35309 124.426 1.21463C123.109 1.31675 121.981 1.21217 120.872 1.23605C119.767 1.25996 120.188 1.36959 118.889 1.41182C118.649 1.41958 118.148 1.35096 117.557 1.40157C116.959 1.45244 114.756 1.83072 114.493 1.50026C113.379 1.4987 112.325 1.48662 111.234 1.48103C112.297 1.46241 113.36 1.44436 114.419 1.42574C113.513 1.34565 112.613 1.26579 111.707 1.1857C111.591 1.25711 111.476 1.32981 111.365 1.40029C108.924 1.48722 107.153 1.37047 104.69 1.39809C104.278 1.40275 105.249 1.54393 103.424 1.50795C101.598 1.47194 100.243 1.20842 97.1332 1.3102C96.9761 1.31548 96.055 1.5173 94.9411 1.37758C94.6876 1.34592 95.7545 1.29906 95.1726 1.25747C94.5903 1.21587 91.9918 1.18166 91.7884 1.08262C91.8162 1.11769 91.9783 1.15403 92.0569 1.18973C91.6133 1.20649 91.1652 1.22326 90.717 1.23971C90.6754 1.17794 90.6305 1.11607 90.589 1.0546C88.0377 1.19835 86.7192 1.43283 82.9388 1.35525C84.0018 1.44497 85.0651 1.53504 86.1235 1.62476C86.4147 1.56174 86.7064 1.49829 86.9929 1.43526C88.7352 1.4604 90.4822 1.48537 92.2244 1.51051C92.511 1.43879 92.7925 1.36728 93.0791 1.29556C93.5412 1.30487 93.9987 1.31389 94.4608 1.3232C94.3453 1.37505 94.2288 1.42662 94.1086 1.47847C95.0236 1.46574 95.9396 1.45275 96.85 1.44002C94.9966 1.74606 91.6744 1.41399 91.9141 1.66999C91.5029 1.63027 91.0912 1.59027 90.6801 1.55024C90.4998 1.67437 89.6637 1.63865 88.19 1.61909C88.5274 1.68025 88.9 1.74058 89.2097 1.80237C87.7768 1.71606 85.2352 1.72445 83.7516 1.69123C83.1 1.67664 83.7508 1.58664 83.557 1.57606C82.5633 1.52079 80.6639 1.67783 80.2664 1.66541C77.8908 1.59151 76.347 1.29379 73.7542 1.49C76.4303 1.53844 74.9744 1.51798 75.9266 1.62696C76.2246 1.66113 79.6819 1.73241 75.3527 1.70075C74.8451 1.69679 66.9897 1.49109 69.5719 1.33346C68.3009 1.38375 67.3057 1.44191 66.141 1.49531C63.2938 1.0799 64.2791 1.47015 65.1065 1.685C64.6397 1.68593 64.1956 1.68811 63.7149 1.68811C64.7363 1.4624 59.5323 1.44838 57.7667 1.56233C57.1751 1.60021 58.8293 1.67246 57.4612 1.70661C56.8098 1.69078 56.0708 1.67028 55.3825 1.65259C56.3807 1.7954 54.4215 1.85044 54.449 1.99572C53.1965 1.86626 52.2385 1.59186 52.9268 1.44313C51.8917 1.50335 50.8511 1.5635 49.816 1.62403C50.2967 1.65849 50.7836 1.69265 51.2643 1.72711C47.8809 1.63583 43.5307 1.84354 42.8235 1.53834C42.3752 1.54052 41.9221 1.54239 41.4737 1.54457C41.3351 1.59611 41.2011 1.64774 41.0624 1.69928C39.0338 1.65459 37.0098 1.60959 34.9812 1.56489C36.7875 1.53291 37.2175 1.45955 39.1117 1.51912C38.3817 1.45984 37.6382 1.40024 36.9221 1.34096C34.0703 1.50055 33.6813 1.60543 29.3877 1.55793C29.1935 1.55576 25.9494 1.42193 25.8385 1.40889C25.3302 1.34929 26.1017 1.26269 25.8754 1.23257C25.2468 1.14812 21.4271 0.936076 21.5011 0.904096C22.4347 0.511653 35.2862 0.506451 38.762 0.48627C74.8135 0.27702 110.071 0.55697 145.896 0.509157C146.264 0.508417 146.104 0.450484 146.261 0.448003C147.236 0.433453 148.193 0.523742 148.554 0.527467C149.324 0.535144 148.9 0.451725 149.463 0.451665C155.277 0.452597 160.764 0.50165 166.583 0.487369C166.962 0.486437 166.575 0.553181 167.241 0.541382C167.584 0.534922 168.66 0.432526 169.435 0.430975C172.144 0.4257 174.419 0.458527 177.275 0.456975C178.837 0.456048 181.181 0.464752 182.928 0.4632C183.699 0.46254 184.503 0.415696 185.265 0.41413C186.347 0.411957 186.126 0.50692 186.292 0.512819C187.023 0.538583 187.124 0.434354 187.817 0.436834C189.106 0.441802 189.176 0.511391 190.812 0.505495C191.981 0.501149 194.658 0.446205 196.132 0.43006C199.58 0.510776 203.925 0.478732 207.142 0.452031C209.046 0.436203 209.222 0.533637 209.999 0.533326C212.735 0.531439 214.811 0.406997 217.381 0.402961C220.791 0.397704 223.813 0.479988 227.117 0.485904C227.653 0.486835 227.53 0.397562 228.055 0.395271C230.001 0.386889 232.49 0.370641 234.223 0.38337C236.154 0.397359 236.867 0.52694 238.757 0.500552C239.311 0.492716 239.474 0.379098 240.403 0.364511C241.886 0.341572 243.513 0.441764 244.548 0.452947C245.967 0.46785 244.733 0.3521 246.646 0.367624C246.725 0.368294 247.011 0.451035 247.422 0.447088C248.619 0.435911 248.5 0.370752 250.252 0.376962C250.42 0.377819 252.743 0.456659 252.974 0.456975C254.333 0.458217 257.068 0.485819 257.873 0.469059C260.748 0.409448 258.484 0.284999 260.929 0.555115C262.006 0.489 263.074 0.421988 264.215 0.357737C263.453 0.417658 266.545 0.504126 266.762 0.498538C268.559 0.453508 267.488 0.348409 269.767 0.365793C266.758 0.608586 272.706 0.397087 274.033 0.390877C276.589 0.378826 279.053 0.381306 281.5 0.388516C285.369 0.400084 289.21 1.46068 292.657 3.60909C294.597 4.78141 296.923 6.80252 298.352 8.74231C298.688 9.19108 298.39 8.88476 298.678 9.28381C298.959 9.68581 298.701 9.20114 299.017 9.66588C300.933 12.5969 301.774 15.2568 302.422 18.3815C302.423 18.5384 302.405 18.5358 302.415 18.794C302.551 19.5379 302.641 20.4861 302.638 21.5117C302.673 24.055 301.907 26.9304 301.436 28.182C300.397 30.9362 300.045 31.6253 298.866 33.4134C297.311 35.8307 293.844 38.3662 295.495 37.3606C294.036 38.6591 292.454 39.7179 290.665 40.5527C290.466 40.6446 290.57 40.5112 290.49 40.5474C289.985 40.7721 289.843 40.9039 289.498 41.0505C288.555 41.433 290.072 40.7552 288.726 41.2958C288.01 41.5489 287.628 41.8156 285.544 42.2543C284.224 42.5113 282.866 42.6424 281.5 42.6423C270.449 42.6434 258.713 42.6255 247.566 42.6166C246.711 42.616 247.274 42.689 246.202 42.6844C242.477 42.6682 235.808 42.5453 232.596 42.5621C229.384 42.5788 230.109 42.6856 228.099 42.7303C227.71 42.739 228.029 42.6782 227.677 42.6772C225.316 42.6716 222.5 42.5767 220.586 42.5624C219.321 42.5529 219.422 42.6486 218.545 42.6554C217.236 42.6654 215.89 42.5687 215.192 42.5655C211.911 42.5519 209.656 42.6298 206.591 42.5901C206.711 42.6112 206.79 42.6307 206.892 42.6514C203.264 42.648 199.641 42.6446 196.013 42.6412C196.184 42.6604 196.349 42.6798 196.52 42.6994C192.264 42.6888 192.749 42.4802 193.124 42.9208C192.814 42.9363 192.486 42.9543 192.19 42.9685C192.31 42.7416 189.735 42.5755 186.459 42.5178C186.218 42.5134 184.606 42.7347 184.781 42.4733C184.361 42.5372 184.11 42.5813 183.754 42.6375C183.061 42.5584 182.359 42.4801 181.666 42.4013C181.291 42.4131 180.912 42.4245 180.538 42.4363C180.482 42.4875 180.525 42.5407 180.405 42.591C178.667 42.5988 175.103 42.5354 173.73 42.5419C170.319 42.5584 166.846 42.6969 164.193 42.5472C162.901 42.5625 164.184 42.663 162.262 42.6503C162.045 42.5994 161.841 42.5506 161.614 42.4982C160.043 42.7256 159.715 42.5873 157.562 42.5397C156.107 42.5074 155.153 42.563 153.767 42.5522C153.416 42.5494 153.465 42.4826 153.225 42.4848C152.42 42.4917 150.123 42.5836 149.555 42.5861C144.407 42.6103 139.984 42.6 135.08 42.5754C134.553 42.573 135.236 42.6388 134.691 42.636C133.813 42.6317 134.33 42.5304 133.821 42.5254C132.403 42.5122 132.393 42.6189 130.415 42.6245C123.903 42.6428 116.415 42.5626 109.612 42.5555C109.4 42.5555 109.412 42.618 109.181 42.6186C107.675 42.6217 106.15 42.5372 104.782 42.5381C102.513 42.5393 100.807 42.6272 98.5656 42.6269C94.184 42.6266 90.2691 42.5816 85.7627 42.5791C82.0744 42.5769 78.8711 42.5853 74.8269 42.585C57.2112 42.5837 39.2368 42.7811 21.5 42.6776C21.4467 42.6773 21.3935 42.6768 21.3403 42.6761C20.8604 42.6673 21.0573 42.6136 20.9115 42.613C19.5281 42.5835 19.3962 42.6129 18.924 42.4072C17.1812 42.1899 16.5926 42.2107 14.5585 41.5397C13.4915 41.1365 14.3363 41.3103 12.5433 40.6203C11.0001 39.8505 12.4367 41.1477 8.27558 38.0586C8.17134 37.9685 7.70867 37.472 6.91421 36.7539C6.13988 36.0044 6.90388 37.0076 5.16148 35.0662C2.31841 31.7829 0.21827 26.7141 0.282723 21.5117C0.286836 19.394 0.608286 17.2792 1.20561 15.3013C1.23099 14.838 2.91165 10.8652 3.45198 10.1826C4.32055 8.78266 4.02606 8.98794 5.39585 7.32404C6.49626 6.07119 7.56624 5.19061 9.13895 4.0371C9.32727 3.91104 9.56558 3.57955 10.8466 2.84601ZM300.804 25.0631C300.759 24.6733 300.621 23.9842 300.787 21.7856C300.801 21.5737 301.018 22.7078 301.075 21.5117C301.075 21.5027 301.075 21.4936 301.075 21.4844C301.076 21.4935 301.076 21.5026 301.076 21.5117C301.1 22.7164 301.002 23.8916 300.804 25.0632C300.804 25.0632 300.804 25.0632 300.804 25.0631ZM21.0757 2.23758C19.422 2.25533 17.7642 2.48588 16.1661 2.9261C17.2537 2.57081 18.3785 2.31234 19.5161 2.1549C20.0382 2.16163 20.5592 2.18941 21.0757 2.23758ZM172.565 40.955C172.563 40.955 172.561 40.955 172.56 40.955C174.362 40.9103 176.166 40.8655 177.969 40.8208C177.779 40.8537 177.589 40.8868 177.4 40.9197C175.976 40.9715 174.552 41.0233 173.134 41.0751C172.944 41.0351 172.754 40.9951 172.565 40.955ZM158.323 41.3035C157.173 41.2643 157.454 41.1984 156.821 41.1341C156.821 41.1342 156.821 41.1343 156.821 41.1345C156.654 41.1177 155.876 41.1031 155.575 41.1006C155.686 41.1419 155.829 41.1827 155.949 41.2236C153.264 41.3236 148.012 40.9683 154.811 40.8252C154.71 40.8774 154.612 40.9292 154.511 40.9814C157.889 40.9668 161.656 41.0799 158.323 41.3035ZM288.984 3.52709C286.302 2.69976 285.438 2.45729 282.063 2.13502C282.541 2.10015 283.029 2.08332 283.511 2.08405C284.07 2.19087 284.613 2.32004 285.154 2.47343C285.156 2.47373 285.157 2.47402 285.159 2.47432C285.279 2.4444 285.398 2.41537 285.516 2.38693C286.704 2.65652 287.871 3.04015 288.984 3.52709ZM47.9208 41.1801C47.1169 40.839 47.3488 41.0372 49.6449 40.9603C50.4399 40.9336 49.6651 40.874 50.1597 40.864C52.8303 40.8098 53.0439 41.0383 52.4478 41.1572C50.9365 41.1652 49.4094 41.1726 47.9257 41.1801C47.9241 41.1801 47.9225 41.1801 47.9208 41.1801ZM4.90808 10.8141C4.90896 10.8127 4.90984 10.8114 4.91072 10.81C5.01573 10.7986 4.46847 11.6989 5.17623 10.7409C4.67759 11.4945 4.23134 12.2812 3.83984 13.1009C3.94745 12.8573 4.06331 12.6104 4.18096 12.3714C4.0458 12.5659 3.91318 12.7639 3.78446 12.9646C3.73424 13.297 3.54357 13.5377 3.16395 14.4126C3.35454 14.2034 3.54745 14.003 3.74486 13.8051C3.2821 14.793 2.90149 15.8265 2.6121 16.8843C2.5839 16.8912 2.55559 16.8985 2.5274 16.9056C2.46196 17.3161 2.41087 17.7248 2.37212 18.1365C2.32249 18.2417 2.27463 18.3438 2.22667 18.4507C2.17203 18.9467 2.136 19.4503 2.1202 19.9467C2.04254 20.0937 2.0611 18.9877 1.97855 20.9437C1.91928 20.344 1.88748 19.7352 1.8851 19.1178C2.24469 16.1666 3.28839 13.3041 4.90808 10.8141ZM68.8097 41.0751C65.496 41.0894 66.4292 41.0355 67.1965 40.8666C67.7325 40.9361 68.2737 41.0056 68.8097 41.0751ZM239.542 41.2255C240.503 41.1103 241.469 40.9962 242.453 40.8851C244.413 40.8208 246.373 41.0308 244.899 41.113C243.124 41.2118 241.27 41.1013 239.542 41.2255ZM284.126 41.0004C281.777 41.1906 283.976 40.8524 284.472 40.6779C285.129 40.702 286.022 40.5442 287.411 40.1253C286.122 40.5608 284.516 40.9672 284.126 41.0008C284.126 41.0007 284.126 41.0006 284.126 41.0004ZM200.956 41.096C199.995 41.0995 199.039 41.1316 198.18 41.0925C198.439 40.9824 200.158 41.0826 198.929 40.9193C199.544 40.9165 200.159 40.9138 200.769 40.9107C200.381 40.9784 200.903 41.0289 200.954 41.0956C200.954 41.0958 200.955 41.0959 200.956 41.096ZM100.918 40.9453C102.804 41.0757 103.161 41.0199 105.061 40.9296C105.328 41.0358 103.063 41.2136 101.644 41.2527C101.404 41.1503 101.163 41.0478 100.918 40.9453ZM78.8699 2.02373C79.3227 1.8884 82.6632 1.87075 84.323 1.91076C84.1254 1.93083 83.9271 1.95117 83.7294 1.97155C82.1117 1.98893 80.4876 2.00634 78.8699 2.02373ZM288.068 39.9136C287.838 39.9913 287.619 40.0616 287.411 40.1253C287.641 40.0507 287.863 39.9781 288.068 39.9136ZM237.075 1.39095C237.865 1.26336 235.517 1.22049 238.368 1.27047C238.368 1.27035 238.368 1.27023 238.368 1.27011C240.254 1.30302 240.67 1.3118 242.417 1.32174C241.788 1.48565 238.244 1.54423 243.129 1.57807C243.194 1.57822 243.065 1.48069 243.846 1.49403C244.087 1.49818 244.858 1.57822 246.031 1.60151C246.41 1.60896 249.258 1.63365 245.375 1.6352C245.491 1.74946 245.282 1.8651 245.292 1.97594C243.776 2.00816 242.612 1.78443 241.008 1.78992C238.628 1.79861 237.417 2.02485 236.959 1.72803C238.961 1.65511 242.398 1.65335 242.846 1.83185C244.782 1.83402 245.338 1.68778 243.777 1.61543C237.089 1.70733 241.941 1.39835 236.085 1.51509C236.016 1.55637 235.775 1.60079 235.811 1.63959C234.024 1.49433 236.793 1.43658 237.075 1.39095ZM251.06 1.70661C249.905 1.79385 248.753 1.8818 247.602 1.96935C247.602 1.82716 248.237 1.69956 250.058 1.61945C250.39 1.64861 250.728 1.67776 251.06 1.70661ZM153.859 1.74396C153.693 1.82127 153.249 1.89211 152.926 1.96569C152.574 1.90049 144.255 1.83794 148.487 1.77399C149.102 1.76467 152.852 1.90137 153.859 1.74396ZM87.8243 41.0618C88.8042 41.1136 89.78 41.1656 90.7553 41.2174C89.2541 41.2503 87.7516 41.2841 86.2504 41.3176C86.7765 41.2323 87.2983 41.147 87.8243 41.0618ZM255.492 41.3611C255.078 41.3582 256.453 41.2519 254.822 41.2687C256.038 41.2007 257.176 41.1431 258.364 41.0792C258.72 41.1295 259.08 41.1796 259.436 41.2299C259.713 41.1976 259.996 41.1655 260.273 41.1332C260.107 41.2065 259.959 41.278 259.783 41.3525C257.782 41.1954 257.323 41.3736 255.492 41.3611ZM195.983 41.6477C195.623 41.4884 198.521 41.3937 195.67 41.3683C196.211 41.2637 197.081 41.2088 198.749 41.1995C199.017 41.2395 199.284 41.2792 199.552 41.3192C199.589 41.2121 200.018 41.1723 200.956 41.096C200.957 41.0961 200.958 41.0963 200.958 41.0964C203.495 41.0886 203.343 41.1243 203.954 41.3004C201.268 41.201 201.188 41.3618 199.358 41.4574C198.1 41.5232 196.459 41.4934 195.983 41.6477ZM162.724 1.74213C160.825 1.87655 162.529 2.00194 159.16 1.85913C159.377 1.82497 159.595 1.79111 159.812 1.75696C160.783 1.75168 161.753 1.74678 162.724 1.74213ZM186.611 41.1019C186.829 41.3484 188.616 41.5403 188.922 41.1392C187.179 41.0576 188.03 41.2847 186.611 41.1019ZM283.362 41.4749C282.494 41.5505 281.892 41.5352 281.5 41.5045C280.594 41.4307 280.831 41.2981 281.5 41.1958C281.652 41.1724 281.825 41.1488 282.011 41.1248C282.221 41.1701 282.43 41.2122 282.639 41.2507C283.219 41.1948 283.793 41.1136 284.361 41.0081C284.037 41.1717 283.7 41.328 283.362 41.4749ZM127.541 41.3727C130.101 41.1966 124.777 41.2748 126.565 41.1649C127.993 41.077 129.876 41.2544 129.164 41.3655C128.669 41.3686 128.119 41.3708 127.546 41.3727C127.544 41.3727 127.542 41.3727 127.541 41.3727ZM142.358 41.3223C141.938 41.1342 142.544 41.1891 140.521 41.2229C139.943 41.2325 135.352 41.1619 137.279 41.3177C138.92 41.3177 140.653 41.3205 142.358 41.3223ZM299.234 12.7559C299.353 12.654 300.825 15.8739 300.819 16.3566C300.819 16.3566 300.819 16.3566 300.819 16.3565C301.04 17.5566 299.965 14.015 300.278 15.5982C299.276 12.1887 298.173 11.5529 298.758 11.5097C299.789 13.3452 299.209 12.5225 299.234 12.7559ZM35.0083 1.63813C35.0067 1.63813 35.005 1.63813 35.0034 1.63813C35.2408 1.64198 37.1969 1.76219 36.959 1.80383C34.6067 1.76813 35.0259 1.689 32.8359 1.81903C32.7158 1.77715 32.613 1.73653 32.4837 1.69434C33.3526 1.6695 33.8343 1.61919 35.0083 1.63813ZM144.864 1.57881C145.729 1.55738 147.306 1.64615 148.29 1.64088C145.157 1.98177 141.412 1.66388 144.864 1.57881ZM11.6429 38.6039C11.6451 38.605 11.6472 38.6061 11.6494 38.6072C11.6487 38.607 11.6477 38.6067 11.647 38.6065C11.6456 38.6056 11.6443 38.6048 11.6429 38.6039ZM211.841 1.78333C211.73 1.7612 211.667 1.74197 211.644 1.7251C211.644 1.72351 211.644 1.72193 211.644 1.72034C211.704 1.74106 211.769 1.76202 211.841 1.78333ZM294.886 6.99222C293.908 5.87895 297.585 9.15125 298.287 10.6332C298.182 10.569 298.134 10.5796 297.941 10.4004C297.389 9.21701 295.078 7.12637 294.886 6.99222ZM217.591 41.3022C221.469 41.3053 216.422 41.7563 216.214 41.3965C216.222 41.3895 217.491 41.3028 217.591 41.3022ZM296.603 34.3101C296.044 35.123 297.455 33.736 295.225 35.9834C295.067 36.0846 294.908 36.1831 294.748 36.2792C295.41 35.6653 296.031 35.0064 296.603 34.3101ZM242.995 41.8943C247.876 41.8183 252.543 41.6841 249.364 41.3075C248.995 41.3196 248.62 41.3313 248.251 41.3434C248.196 41.5271 246.833 41.4268 244.837 41.4208C244.553 41.4938 243.446 41.5106 243.239 41.5726C242.837 41.6924 244.109 41.7767 242.995 41.8943ZM36.9406 41.5953C37.0192 41.564 37.096 41.5324 37.1746 41.5014C37.9465 41.466 38.7204 41.4308 39.4923 41.3954C39.3677 41.4556 39.2426 41.5157 39.118 41.5759C38.3927 41.5824 37.6708 41.589 36.9456 41.5955C36.9439 41.5954 36.9423 41.5954 36.9406 41.5953ZM255.816 1.31899C255.373 1.66415 256.922 1.60058 260.065 1.4261C258.651 1.3904 257.23 1.3547 255.816 1.31899ZM164.567 41.7544C164.466 41.6564 164.366 41.5586 164.259 41.4606C162.591 41.5627 162.901 41.675 163.7 41.8048C163.991 41.788 164.276 41.7712 164.567 41.7544ZM140.533 41.7962C141.225 41.8166 140.872 41.7375 140.944 41.739C142.696 41.7807 142.943 41.817 145.092 41.7574C145.355 41.7366 145.614 41.7147 145.878 41.6933C144.884 41.4878 144.163 41.5998 142.06 41.4791C142.439 41.5495 142.817 41.6201 143.196 41.6909C142.026 41.676 140.862 41.6613 139.693 41.6464C139.555 41.6681 139.416 41.6897 139.277 41.7114C139.693 41.7393 140.122 41.7707 140.533 41.7962ZM28.0146 41.5062C26.8776 41.4981 25.7354 41.4897 24.5984 41.4816C24.5568 41.5322 24.5169 41.5832 24.4752 41.6338C25.6536 41.5912 26.8363 41.5487 28.0146 41.5062ZM232.472 1.47627C232.381 1.49422 232.294 1.51228 232.215 1.53065C232.223 1.50827 232.322 1.49079 232.472 1.47627ZM32.0083 1.36056C30.719 1.32517 28.8611 1.3484 27.4468 1.34096C27.558 1.46792 31.1525 1.43282 32.4147 1.50978C32.6176 1.487 32.5533 1.37545 32.0083 1.36056ZM278.724 41.549C278.4 41.6123 278.077 41.6754 277.758 41.7387C276.977 41.7319 276.194 41.7246 275.408 41.7178C275.385 41.7697 275.363 41.822 275.339 41.8738C278.801 41.8064 278.003 41.956 279.716 42.1034C279.383 41.9187 279.056 41.734 278.724 41.549ZM1.25378 23.2936C1.55306 25.8218 1.94269 26.6501 1.77798 25.2368C1.57904 24.3705 1.43774 23.4905 1.35467 22.6008C1.31725 22.8326 1.28379 23.0653 1.25378 23.2936ZM186.933 1.35909C184.84 1.41721 184.805 1.20846 182.76 1.32503C183.855 1.36352 184.951 1.40244 186.041 1.44093C186.336 1.41372 186.638 1.38631 186.933 1.35909ZM289.628 2.44028C288.802 2.02071 287.124 1.68544 284.638 1.03987C284.024 1.02519 283.632 1.0566 283.109 1.08909C282.814 0.984538 282.471 0.883805 282.183 0.794303C282.181 0.794248 282.18 0.794194 282.178 0.794139C281.902 0.78855 281.678 0.79083 281.5 0.795968C280.227 0.834475 281.356 0.922411 281.311 0.998208C281.287 1.03386 279.616 0.974263 280.139 1.05186C280.416 1.09281 280.926 1.11393 281.5 1.12826C282.819 1.1429 284.457 1.36564 284.442 1.48317C283.469 1.27412 281.697 1.23552 281.5 1.31988C281.477 1.32813 281.476 1.33704 281.5 1.34657C281.519 1.35414 281.555 1.36211 281.608 1.37073C282.355 1.46861 284.566 1.4402 285.912 1.87396C283.997 1.18751 288.06 2.17457 288.398 2.62332C290.697 3.41352 288.71 2.34836 286.26 1.7613C287.784 1.99232 285.578 1.50549 285.227 1.34098C286.874 1.35783 291.897 3.65339 289.628 2.44028ZM222.668 41.9562C224.332 41.9464 226.932 42.0337 228.071 41.9048C228.735 41.8296 226.129 41.7715 227.926 41.6535C226.305 41.665 225.935 41.7111 226.212 41.8145C225.842 41.8269 225.468 41.839 225.099 41.8511C224.928 41.8309 224.752 41.811 224.581 41.7909C224.387 41.8334 224.192 41.8756 224.003 41.9181C223.61 41.9097 223.213 41.9014 222.82 41.8927C222.774 41.9141 222.695 41.9327 222.668 41.9562ZM126.852 1.3655C127.314 1.36426 127.772 1.36302 128.234 1.36147C128.183 1.3363 128.122 1.31008 128.064 1.2842C128.022 1.26376 127.98 1.24331 127.938 1.22287C128.206 1.29592 130.407 1.41733 131.335 1.33932C131.801 1.30018 130.74 1.16125 132.717 1.13699C131.284 1.14414 129.957 1.1631 128.566 1.1749C128.691 1.1336 128.811 1.09187 128.936 1.05057C128.935 1.05051 128.934 1.05045 128.933 1.05039C128.471 1.04108 128.004 1.03132 127.542 1.02201C127.311 1.13658 127.083 1.25093 126.852 1.3655ZM165.922 41.9483C167.498 41.8673 168.026 41.8252 167.282 41.6942C167.28 41.6941 167.278 41.6941 167.277 41.694C166.69 41.7521 166.102 41.8101 165.516 41.8681C165.65 41.8948 165.783 41.9216 165.922 41.9483ZM218.895 1.0438C215.545 1.54148 223.091 1.23639 221.654 1.06687C221.589 1.05911 219.21 1.09875 218.895 1.0438ZM283.995 41.5607C283.168 41.666 282.339 41.7201 281.5 41.7237C281.403 41.7241 281.306 41.7245 281.209 41.725C281.305 41.7527 281.403 41.7803 281.5 41.808C281.62 41.8414 281.741 41.8737 281.86 41.9051C282.579 41.8278 283.292 41.7126 283.995 41.5607ZM4.91952 33.6531C5.36398 34.5576 7.07429 36.5183 8.15266 37.1859C7.66434 36.7468 7.19734 36.2848 6.75409 35.8025C7.62824 36.6793 8.5699 37.4668 9.59089 38.1782C9.76487 38.0537 8.48512 37.3643 7.00735 35.7978C6.75589 35.5678 5.55087 33.8292 5.00909 33.3242C4.87606 33.2359 6.24688 35.0354 5.1956 33.8597C5.60657 34.4139 5.99165 34.8691 6.42872 35.3529C6.42734 35.4184 6.42594 35.4838 6.42848 35.553C5.88705 34.9479 5.3854 34.3159 4.91952 33.6531ZM232.357 41.9414C234.643 41.9519 234.926 41.8758 235.401 41.7414C234.338 41.7566 233.275 41.7716 232.212 41.7868C232.263 41.8382 232.306 41.8897 232.357 41.9414ZM23.1575 42.1045C24.4091 42.1265 23.873 42.0171 24.3767 41.9963C26.2808 41.9181 27.5796 41.9963 29.4604 41.9472C29.3356 41.9683 29.221 41.9881 29.1008 42.0086C29.1025 42.0086 29.1041 42.0086 29.1057 42.0086C38.0119 42.1008 33.3339 41.8527 28.0048 41.893C27.8799 41.8524 27.7601 41.8116 27.6353 41.7713C25.2505 41.8424 23.0513 41.9108 23.1575 42.1045ZM248.666 1.02677C248.564 1.00131 249.429 0.839524 247.806 0.915265C246.522 1.15148 248.629 1.03424 249.156 1.12509C248.717 1.14776 248.268 1.16981 247.833 1.19247C250.459 1.25923 250.842 1.20306 249.885 1.03043C249.817 1.01883 248.768 1.05215 248.666 1.02677ZM231.412 0.910322C231.052 1.25837 234.365 1.10186 234.245 0.993814C233.788 0.989506 233.432 1.04844 232.947 1.02238C232.457 0.996301 232.332 0.915004 231.412 0.910322ZM297.571 34.2666C297.638 34.195 298.355 33.477 298.201 33.488C297.297 34.361 295.71 36.2478 296.069 36.0014C296.645 35.4092 296.984 34.9741 297.571 34.2668C297.571 34.2668 297.571 34.2667 297.571 34.2666ZM1.0198 19.0031C0.994699 19.0406 0.799262 20.715 0.835304 21.5117C0.838712 21.6892 0.847101 21.8212 0.858067 21.8802C0.924611 22.1463 0.995544 22.2754 1.06787 22.47C1.04327 22.1963 1.02618 21.8639 1.02028 21.5117C0.979919 20.1205 1.22156 18.4659 1.01919 19.0081C1.01939 19.0064 1.0196 19.0048 1.0198 19.0031Z" fill="#234C91"/>
</svg>
