<svg width="809" height="838" viewBox="0 0 809 838" fill="none" xmlns="http://www.w3.org/2000/svg">
<path d="M311.722 130.435C311.482 130.979 311.28 131.551 311.104 132.113C310.441 134.206 308.514 140.042 310.367 141.692C311.787 142.945 315.105 143.554 316.857 144.236L325.781 147.73C329.662 149.251 333.553 150.772 337.434 152.284L347.335 155.871L346.312 142.623C345.206 141.931 344.099 141.24 342.993 140.558C337.913 137.386 332.825 134.224 327.745 131.053C323.347 128.315 316.866 122.913 312.552 128.979C312.229 129.43 311.962 129.928 311.731 130.435H311.722Z" fill="#F3ECE4"/>
<path d="M248.61 770.172L183.654 775.056C183.654 775.056 172.193 784.762 195.003 789.235C217.814 793.709 260.284 817.594 260.284 817.594L286.219 826.408L323.67 810.771V778.216L248.61 770.172Z" fill="#F3ECE4"/>
<path d="M593.193 128.54V128.457L593.165 128.383C593.174 128.439 593.183 128.494 593.193 128.549V128.54Z" fill="#234C91"/>
<path d="M659.399 578.797L652.568 547.701C650.706 547.793 648.567 547.867 648.005 546.161C646.318 511.959 639.726 474.944 624.367 444.125C607.478 410.236 587.131 407.765 556.22 392.987C542.779 386.562 542.428 383.989 532.26 375.056C520.718 364.915 506.059 362.647 494.093 354.95C485.243 349.261 479.739 338.779 469.451 334.981C467.201 333.073 469.404 325.688 470.087 322.895C472.262 314.036 476.623 304.78 479.923 296.252C482.901 295.238 485.879 295.533 489.05 294.51C504.677 289.495 540.502 266.917 547.886 252.277C552.91 242.321 551.601 232.346 554.8 223.68C556.893 218.038 568.647 204.615 572.685 197.857C594.285 161.728 595.548 120.676 567.301 87.7271C559.336 78.4344 548.826 71.3173 540.409 62.7159C528.867 50.9248 523.004 40.2215 507.359 32.0258C485.215 20.4375 464.869 22.3919 443.186 16.0769C436.797 14.2147 430.694 8.61872 424.231 5.89911C394.528 -6.59266 334.189 0.745675 316.922 31.2514C313.013 38.1565 311.695 46.26 308.145 52.5289C305.131 57.8575 299.221 61.9231 296.29 67.9892C291.072 78.7662 291.588 93.3231 297.212 103.824C299.304 107.723 308.726 117.385 309.03 119.339C309.713 123.783 304.873 129.95 302.844 133.73C303.471 134.726 304.098 134.818 305.14 135.048C319.669 138.275 335.498 141.88 346.524 152.38C334.42 147.116 320.628 142.129 307.565 139.907C303.398 139.197 278.119 136.837 276.423 138.736C284.323 157.607 270.375 180.424 285.356 196.677C283.448 203.112 282.544 209.934 281.89 216.591C280.709 228.612 279.539 242.8 279.115 254.794C278.433 274.237 280.415 293.311 281.834 312.616C263.157 314.681 245.364 321.217 227.7 327.219C183.338 342.292 126.088 362.085 96.1908 399.662C64.671 439.285 59.3608 500.278 43.6239 547.424C39.1988 560.663 28.9934 573.588 36.0459 587.094C31.04 612.428 24.2087 637.614 19.9587 663.086C15.93 687.249 11.6523 716.464 23.3328 738.857C25.7759 743.54 31.3811 747.938 35.1793 751.432C44.0296 759.581 54.2074 766.791 65.6482 770.773C76.1947 774.443 87.5065 774.194 98.4863 773.382C109.78 772.543 119.736 771.926 131.076 772.682C147.78 773.806 164.522 774.221 181.264 773.945C188.667 773.825 196.558 772.636 203.832 773.862C211.106 775.088 218.49 775.927 226.179 776.065C232.927 776.185 242.146 774.258 248.627 775.89C256.039 777.761 261.82 786.317 269.527 788.243L287.956 795.683L312.469 799.979L526.848 806.608L640.528 803.132L667.337 638.822L659.39 578.76L659.409 578.806L659.399 578.797ZM324.186 59.4893L311.031 79.5591C312.027 65.2235 323.32 51.8928 337.425 48.6108L324.186 59.4893ZM390.232 64.0803C388.406 63.2598 389.605 59.4893 389.107 57.4611C387.171 49.5788 381.907 41.2356 374.458 37.5111C373.001 36.7828 362.473 33.1229 361.551 33.1229H346.985C346.469 33.1229 343.067 35.5382 342.892 33.1229C353.982 29.6657 363.681 27.9879 374.734 32.6711C380.718 35.2064 390.222 42.9503 390.222 49.9568V64.0711L390.232 64.0803ZM404.788 58.6042L400.944 44.7112C398.759 39.3088 395.652 34.5518 391.07 30.9103L382.045 25.8306C398.953 26.5221 408.725 42.6277 404.788 58.6042ZM554.09 180.636L552.385 173.704C553.012 161.535 547.066 152.214 538.621 144.221C554.644 148.13 556.865 166.688 554.09 180.636ZM527.272 108.673C539.912 118.897 559.797 125.23 561.383 144.212L556.303 136.099C545.139 121.441 521.381 117.034 515.878 97.7758C519.999 101.113 523.115 105.317 527.272 108.682V108.673ZM523.142 135.122C522.856 136.505 519.178 137.648 518.081 137.786C492.074 141.142 476.964 120.224 473.996 96.8632L482.357 114.435C491.512 129.36 505.442 137.169 523.142 135.113V135.122ZM442.135 47.6981C459.771 41.798 473.986 51.1 482.053 66.4865C490.018 81.6794 490.83 99.1771 496.739 115.08C478.854 94.6322 486.091 55.0273 452.377 48.8136L442.135 47.6981Z" fill="#234C91"/>
<path d="M583.182 100.464V100.441C583.182 100.441 583.182 100.453 583.193 100.464H583.182Z" fill="#234C91"/>
<path d="M593.193 128.54V128.457L593.165 128.383C593.174 128.439 593.183 128.494 593.193 128.549V128.54Z" fill="#234C91"/>
<path d="M324.186 59.4903L311.03 79.5601C312.026 65.2245 323.319 51.8938 337.424 48.6118L324.186 59.4903ZM390.231 64.0813C388.406 63.2608 389.604 59.4903 389.106 57.4621C387.17 49.5798 381.906 41.2366 374.457 37.5121C373.001 36.7838 362.472 33.1238 361.551 33.1238H346.985C346.468 33.1238 343.066 35.5392 342.891 33.1238C353.982 29.6667 363.68 27.9888 374.734 32.6721C380.717 35.2073 390.222 42.9513 390.222 49.9578V64.0721L390.231 64.0813ZM404.788 58.6052L400.944 44.7121C398.759 39.3098 395.652 34.5528 391.07 30.9112L382.044 25.8315C398.952 26.523 408.724 42.6286 404.788 58.6052ZM554.09 180.638L552.385 173.705C553.012 161.536 547.065 152.215 538.621 144.222C554.644 148.131 556.865 166.689 554.09 180.638ZM527.272 108.674C539.911 118.898 559.797 125.231 561.383 144.213L556.303 136.1C545.139 121.442 521.381 117.036 515.877 97.7769C519.998 101.114 523.114 105.318 527.272 108.683V108.674ZM523.142 135.123C522.856 136.506 519.178 137.649 518.081 137.788C492.074 141.143 476.964 120.225 473.995 96.8642L482.357 114.436C491.511 129.361 505.441 137.17 523.142 135.114V135.123ZM442.134 47.6991C459.77 41.7989 473.986 51.1009 482.053 66.4875C490.018 81.6805 490.829 99.1782 496.739 115.081C478.854 94.6332 486.091 55.0282 452.377 48.8146L442.134 47.6991Z" fill="#234C91"/>
<path d="M583.182 100.464V100.441C583.182 100.441 583.182 100.453 583.193 100.464H583.182Z" fill="#234C91"/>
<path d="M309.813 110.763C309.26 109.906 308.679 109.067 307.979 108.284C306.412 106.523 304.881 104.716 303.461 102.826C300.714 99.1751 297.137 94.3812 297.22 89.5689C297.358 81.6774 299.331 70.1167 306.522 63.2116C313.713 56.3066 315.686 44.036 321.605 33.7476C327.523 23.4592 342.606 14.572 352.617 11.6127C362.629 8.65337 377.149 4.28355 394.905 5.26999C412.661 6.25642 425.78 13.309 425.78 13.309C425.78 13.309 437.765 22.611 451.861 23.8832C465.956 25.1554 489.216 29.3778 495.845 32.9087C502.473 36.4396 507.719 36.4303 523.133 52.0843C538.547 67.7382 528.406 65.0555 559.843 89.5781C591.28 114.101 587.648 177.279 559.013 202.299C559.013 202.299 550.043 213.565 549.463 218.912L548.697 224.655C548.697 224.655 547.739 210.32 539.727 206.503C531.716 202.686 513.914 203.064 498.564 213.952C483.214 224.84 476.715 237.249 483.399 204.788C490.083 172.328 480.154 155.715 480.154 155.715C480.154 155.715 458.194 135.664 457.429 116.378C456.664 97.0916 460.48 76.4686 444.255 66.7333C435.358 61.3955 424 61.9855 414.201 63.9953C410.78 64.6959 407.231 65.5072 403.977 66.7886C398.574 68.9274 394.066 69.3607 388.249 68.531C385.732 68.1715 383.197 67.7382 380.883 66.6872C374.909 63.9584 369.258 60.5566 362.888 58.5837C351.179 54.9698 339.692 64.3271 332.76 72.6612C327.551 78.9117 323.55 86.0656 319.687 93.2196C316.47 99.2028 313.99 106.993 313.713 113.815C313.695 114.304 313.584 114.921 313.114 115.023C312.708 115.106 312.367 114.737 312.127 114.405C311.261 113.207 310.569 111.98 309.804 110.782V110.763H309.813Z" fill="#234C91"/>
<path d="M275.983 319.205C275.983 319.205 193.408 339.81 146.944 367.54C127.059 379.415 111.101 393.815 96.3409 411.525C82.3187 428.349 76.2618 456.421 72.2515 477.644C68.0569 499.825 60.8475 521.729 52.7532 542.85C45.9957 560.467 40.5564 579.643 49.6372 597.537C61.8708 621.654 80.5671 642.084 101.752 658.89C122.938 675.696 146.621 689.073 170.711 701.371C175.975 704.063 181.294 706.709 186.946 708.442C194.007 710.599 201.42 711.282 208.767 711.936C223.379 713.254 238.185 714.564 252.64 712.038C260.984 710.581 269.069 707.871 276.933 704.718C289.102 699.841 300.838 693.904 311.974 686.989C321.829 680.868 324.374 674.055 327.389 663.739C329.961 654.944 332.524 646.149 335.096 637.363C340.544 618.713 345.993 600.054 351.441 581.404C352.206 578.776 352.981 576.149 353.746 573.522C353.746 573.522 360.863 550.354 378.416 550.557C395.969 550.76 412.314 549.958 412.314 549.958L399.205 520.724C399.205 520.724 387.027 502.572 383.431 496.524C379.836 490.476 373.189 473.154 373.189 473.154C373.189 473.154 366.828 456.108 349.118 451.434C331.408 446.76 312.592 418.439 312.592 418.439L300.967 404.103C300.967 404.103 297.86 414.862 290.005 415.138C282.151 415.415 254.761 414.982 251.986 390.994C249.211 367.006 252.853 350.236 257.822 341.985C262.781 333.734 274.683 323.013 274.683 323.013L275.983 319.214V319.205Z" fill="#234C91"/>
<path d="M145.329 666.926C122.973 656.435 92.5408 646.479 70.5903 662.759C69.5669 663.515 68.3224 662.741 68.8755 665.101C110.251 650.102 144.094 682.424 179.716 695.837C197.214 702.429 215.772 704.983 234.376 705.508C239.539 705.656 245.54 703.065 250.684 701.507C256.999 699.589 263.287 697.58 269.62 695.699C279.088 692.887 291.294 687.973 301.361 689.734C304.708 690.315 315.337 694.169 317.421 696.547C319.799 699.258 314.296 708.596 314.674 712.459C311.336 711.205 308.525 709.196 305.141 707.887C300.495 706.089 295.083 704.337 290.096 704.273L310.894 721.291L305.123 740.67C295.378 727.92 282.61 717.327 265.518 718.839C267.472 721.448 271.381 721.752 274.184 723.365C280.517 726.998 288.095 733.755 292.797 739.351C294.401 741.26 300.919 749.972 301.481 751.677C302.882 755.936 296.872 764.805 297.37 769.829C295.987 770.207 295.858 769.47 295.083 768.935C288.953 764.694 281.918 755.78 275.954 750.737C267.491 743.574 257.617 737.6 246.397 736.143C245.844 738.503 247.098 737.729 248.112 738.485C264.725 750.838 277.834 764.353 291.967 779.353C294.318 782.635 290.4 786.138 290.999 789.872C266.735 787.087 253.118 759.928 228.19 758.444L235.464 765.745C235.796 767.552 235.15 766.861 234.32 767.294C228.632 770.29 212.739 770.023 206.119 768.677C195.13 766.446 183.56 753.217 185.395 741.601C178.425 746.708 181.293 755.632 183.579 762.537C163.583 764.593 123.646 760.822 123.498 761.624C82.2524 759.292 52.4011 765.275 31.1051 728.832C22.7157 714.478 25.4169 692.86 32.8936 650.507C37.3556 625.238 43.3019 600.134 49.0638 575.151C86.4931 569.361 130.947 574.496 159.49 601.388L145.338 666.917H145.329V666.926Z" fill="#F3ECE4"/>
<path d="M527.174 262.075C520.905 267.533 515.53 268.962 508.837 273.332C500.503 278.78 492.731 288.884 481.245 285.851C472.357 283.51 473.15 273.313 472.634 266.251C468.743 274.641 465.508 280.716 459.792 288.008C447.567 303.589 424.446 321.538 406.045 328.959C397.48 332.417 388.151 333.246 379.752 337.155C365.315 319.141 339.013 290.073 313.052 299.689C306.037 302.289 299.528 308.991 293.748 313.61C286.76 275.996 289.848 237.802 290.097 199.782L314.675 204.346C300.219 220.848 312.849 240.033 333.795 236.197C327.738 230.076 316.288 226.075 317.782 215.252C318.713 208.485 336.072 186.322 340.912 179.113C347.218 169.719 350.472 155.236 364.577 166.704C365.038 179.777 360.807 193.735 364.799 206.558C370.035 223.365 407.326 230.5 422.16 226.693C428.124 225.162 431.462 220.221 434.283 215.141C437.104 210.061 442.589 191.688 444.424 189.77C450.029 183.907 474.127 194.795 476.257 199.791C479.189 206.669 464.871 237.838 483.485 235.248C489.791 234.372 493.266 225.374 498.659 221.253C500.844 219.575 503.619 218.008 506.154 216.911C546.654 199.441 554.195 238.53 527.183 262.075H527.174ZM350.177 240.733C355.773 242.337 363.72 245.711 367.887 239.793C373.068 232.436 367.14 226.186 365.647 218.893C364.329 219.068 364.135 220.147 363.904 221.235C362.632 227.347 363.6 236.917 355.893 238.714C353.625 239.24 349.449 237.719 350.187 240.742L350.177 240.733ZM524.067 253.492C531.368 247.758 543.206 225.808 529.479 221.207C514.083 216.054 494.077 235.727 495.377 250.754C497.83 249.528 499.664 243.748 502.504 244.485C508.081 245.933 502.928 254.553 499.406 256.618C496.742 258.176 485.716 260.241 486.822 264.712C489.145 274.042 510.764 258.397 514.037 253.953C518.821 247.445 517.862 235.34 508.579 233.93C516.139 228.029 530.318 224.48 529.525 238.456C529.211 243.932 526.206 248.689 524.058 253.511V253.492H524.067ZM353.819 237.092C350.426 227.292 342.175 222.433 331.97 225.264L332.532 228.057C336.598 228.647 350.998 239.138 353.819 237.082V237.092ZM375.668 279.896C373.649 268.658 370.754 275.028 364.707 273.12C358.106 271.036 349.384 261.107 341.133 259.365C336.22 258.332 332.965 260.287 329.766 259.881C327.766 259.623 324.622 256.442 322.308 255.419C312.287 250.994 308.848 257.493 299.196 258.056C299.758 266.316 311.743 264.398 317.634 265.569C332.421 268.51 349.689 276.199 364.43 278.033C366.274 278.264 367.869 277.148 369.556 277.351C371.086 277.536 374.709 280.698 375.668 279.905V279.896ZM341.069 286.294L309.208 281.739C312.121 297.246 333.122 297.393 341.069 286.294Z" fill="#F3ECE4"/>
<path d="M413.709 455.48L401.632 462.966L384.78 479.329C382.512 475.098 380.714 470.415 378.216 466.312C376.363 463.261 370.352 453.627 368.296 451.654C364.019 447.542 351.914 443.099 345.7 438.738C330.848 428.302 314.097 410.334 305.413 394.348C301.799 387.692 300.333 380.501 297.116 374.417C291.935 364.645 279.425 364.322 271.422 357.315L275.35 367.954L280.079 373.679C276.594 376.021 272.086 376.583 268.611 378.16C267.541 378.648 266.96 377.726 267.329 380.059C276.714 382.437 283.25 383.544 281.812 395.012C280.217 407.716 267.172 407.218 262.332 396.441C256.451 383.35 257.013 362.248 262.12 348.898C263.568 345.119 265.154 340.749 269.662 340.048C285.168 337.633 306.814 345.884 321.039 351.83C321.98 350.844 313.996 343.127 312.881 342.242C302.869 334.351 286.201 331.456 273.709 330.875C277.857 321.121 282.928 322.237 292.405 322.652C307.939 323.325 325.345 327.28 340.16 331.788C333.614 321.638 319.721 316.789 308.299 314.484C318.661 305.421 325.004 304.546 337.145 310.686C384.402 334.563 387.656 394.929 422.947 429.823C416.549 437.383 413.156 445.385 413.709 455.471V455.48Z" fill="#F3ECE4"/>
<path d="M477.618 188.843C470.28 183.68 461.844 179.725 453.658 175.936C429.799 164.874 404.41 154.797 377.49 156.964C377.638 155.498 381.399 155.258 382.505 155.166C400.667 153.636 423.788 159.6 440.779 166.072C447.122 168.487 453.916 171.364 459.42 175.199C460.028 167.612 452.459 159.388 447.573 153.82C442.973 148.593 437.036 141.89 430.324 140.111C420.644 137.548 391.457 138.848 381.694 141.605C377.02 142.923 373.932 144.841 373.812 150.188C373.766 152.299 375.812 156.871 374.236 157.987C366.75 160.365 360.158 153.405 352.101 155.064C350.349 149.644 350.847 143.329 349.612 137.982C347.528 128.928 333.008 122.152 324.739 120.06C321.789 119.313 318.497 120.567 316.543 118.299C322.01 106.766 327.993 93.6749 334.889 82.9439C339.572 75.6609 344.984 68.8019 353.631 66.1745C368.501 61.6479 377.001 73.4483 389.89 74.9326C404.815 76.6473 418.395 67.124 434.574 73.0426C455.041 80.5193 447.499 104.249 450.569 120.788C454.644 142.739 476.493 153.912 478.558 174.747C479.047 179.689 477.36 184.012 477.637 188.871L477.618 188.843Z" fill="#F3ECE4"/>
<path d="M418.453 547.655L405.039 516.098C409.132 502.371 423.108 495.365 434.614 488.607C436.587 488.183 444.524 492.811 447.53 493.521C454.315 495.125 467.913 494.387 473.905 490.644C475.832 489.437 477.879 485.795 479.898 485.694L532.253 547.646H418.453V547.655Z" fill="#F3ECE4"/>
<path d="M453.907 370.443C449.233 388.07 436.51 402.47 424.369 415.57C412.532 402.913 405.101 386.964 397.763 371.411C420.082 350.844 443.637 331.686 463.965 309.044C463.965 309.044 453.234 366.497 453.907 370.443Z" fill="#F3ECE4"/>
<path d="M379.067 164.466C393.034 162.124 414.413 166.291 427.255 172.284C433.017 174.976 437.673 176.81 438.29 184.093C438.696 188.859 428.14 214.636 424.379 217.992C415.888 225.551 390.803 219.236 381.409 214.507C374.153 210.847 370.143 206.772 369.295 198.392C368.779 193.294 369.894 171.546 372.485 167.914C373.739 166.153 376.947 164.825 379.058 164.475H379.067V164.466ZM432.095 193.395C436.152 190.252 425.024 179.816 422.544 177.916C415.455 172.468 399.303 166.743 390.886 170.836C389.402 171.555 384.009 176.893 382.939 178.368C382.202 179.392 379.427 184.536 382.469 183.365C384.534 182.563 389.983 175.916 392.038 177.013C389.955 185.412 398.492 192.058 406.051 187.827C409.85 185.697 408.891 182.609 409.352 179.281C409.49 178.258 408.937 177.409 410.679 177.935C418.967 180.415 424.277 190.233 432.086 193.395H432.095Z" fill="#F3ECE4"/>
<path d="M637.293 512.123C637.164 505.513 635.348 498.451 634.113 491.961C633.006 486.135 631.716 480.336 630.167 474.602C625.723 458.219 618.993 441.985 606.999 429.65C600.196 422.652 592.009 417.738 583.832 412.576C579.886 410.087 575 408.759 570.676 406.86C565.864 404.749 561.135 402.463 556.498 400.001C549.298 396.175 543.324 391.75 537.331 386.292C531.634 381.102 524 376.714 517.077 373.358C508.881 369.385 500.833 366.204 493.43 360.875C489.779 358.248 485.76 356.321 482.284 353.38C480.68 352.016 479.159 350.55 477.785 348.955C475.057 345.756 473.628 341.884 468.686 341.94C467.405 341.958 466.096 342.152 465.008 342.825C464.925 342.88 464.851 342.944 464.768 343C462.067 358.534 459.569 373.957 459.919 376.022C454.848 395.143 441.103 410.778 427.929 425.003C428.731 426.838 430.187 428.525 432.087 428.949C443.583 427.732 457.347 427.308 466.538 435.522C481.86 448.217 486.682 463.797 481.501 475.33C500.842 498.304 521.751 521.019 537.986 545.883C570.713 549.912 606.373 547.45 639.497 547.017C643.175 536.904 637.496 523.223 637.275 512.114H637.293V512.123Z" fill="#234C91"/>
<path d="M263.702 777.858C263.444 777.545 260.973 777.929 260.605 777.939C247.458 778.283 234.293 778.607 221.147 778.95C209.439 779.254 197.445 778.829 185.782 779.871C183.118 780.113 185.294 781.893 186.649 782.156C190.853 782.945 194.909 784.745 199.003 786.323C205.299 788.75 211.605 791.167 217.902 793.594C232.579 799.236 247.246 804.879 261.923 810.532C269.455 813.435 276.996 816.327 284.528 819.229L287.414 832.477L178.767 786.97C171.032 784.431 169.142 773.53 178.352 772.205C193.904 769.97 211.854 770.456 227.563 770.193C239.76 769.991 254.861 767.493 263.675 777.879H263.693L263.702 777.858Z" fill="#234C91"/>
<path d="M341.056 165.161C332.971 157.057 315.04 149.36 310.117 164.239H313.749C312.634 170.766 318.718 177.422 325.015 174.14C330.122 171.485 329.016 168.71 328.74 164.257C328.601 162.008 331.846 164.045 332.833 164.737C334.004 165.557 337.009 169.153 337.267 170.388C337.793 172.896 327.347 187.738 325.061 190.578C324.195 191.656 319.631 197.289 319.225 197.492C313.685 200.212 299.893 195.141 293.726 194.284C297.902 185.461 304.318 175.846 306.061 166.111C307.176 159.86 305.203 152.973 309.149 147.368C311.186 146.207 330.98 153.573 334.077 155.297C337.599 157.26 343.02 160.8 341.056 165.152V165.161Z" fill="#F3ECE4"/>
<path d="M426.65 482.984C419.072 486.459 410.876 492.193 404.773 497.992C402.883 499.79 399.776 505.008 397.942 505.736C396.384 506.354 396.725 505.118 396.365 504.621C395.084 502.823 388.879 492.783 388.548 491.419C388.326 490.506 388.566 490.174 388.852 489.428C390.419 485.261 411.807 466.251 416.186 464.785L418.62 471.451L426.65 482.984Z" fill="#F3ECE4"/>
<path d="M440.131 434.021C454.531 433.016 472.849 445.591 475.394 460.176C481.404 494.572 434.848 490.174 425.297 462.932C420.844 450.228 424.928 435.091 440.131 434.021ZM438.232 439.488C429.132 441.166 426.929 450.671 428.699 458.627C434.59 485.049 481.109 488.165 469.475 456.986C465.096 445.241 450.576 437.211 438.232 439.479V439.488Z" fill="#F3ECE4"/>
<path d="M288.261 189.74L283.799 178.29C283.799 173.792 283.486 169.21 283.735 164.72C283.901 161.696 285.247 149.214 286.205 147.158C287.699 143.959 296.042 143.701 297.849 146.042C300.596 149.601 298.015 164.084 296.734 168.62C294.77 175.525 290.29 182.725 288.271 189.759V189.74H288.261Z" fill="#F3ECE4"/>
<path d="M174.627 535.688C173.005 535.909 173.751 533.521 173.705 532.36C173.051 515.507 174.378 498.729 172.654 481.904C170.617 462.019 165.399 442.419 157.148 424.368C152.833 414.918 146.574 406.262 143.07 396.388C159.499 412.522 169.308 433.808 174.175 456.487C179.817 482.807 181.689 509.441 174.618 535.679L174.627 535.688Z" fill="#F3ECE4"/>
<path d="M166.276 598.653C164.663 598.884 165.4 596.487 165.364 595.334C164.331 567.391 161.095 542.454 153.96 515.451C150.622 502.821 144.621 490.44 144.021 477.497L151.6 492.118C163.962 525.426 176.076 562.957 166.286 598.653H166.276Z" fill="#F3ECE4"/>
<path d="M563.674 424.072C559.737 430.498 554.261 435.771 549.901 441.874C539.963 455.813 532.882 470.49 527.932 487.038L522.834 513.736C516.546 489.371 529.849 458.395 545.135 439.837C546.849 437.753 561.904 422.413 563.674 424.072Z" fill="#F3ECE4"/>
<path d="M586.89 467.966C569.346 483.454 553.59 500.813 540.472 520.431C545.487 497.153 565.824 476.733 586.89 467.966Z" fill="#F3ECE4"/>
<path d="M289.945 380.24C295.292 390.354 299.367 402.403 285.538 407.4C287.732 402.191 288.792 396.3 288.165 390.658C287.714 386.537 282.699 378.59 289.945 380.249V380.24Z" fill="#F3ECE4"/>
<path d="M496.675 114.837C477.425 91.1077 486.11 48.8107 444.246 47.7413C442.301 47.5293 441.296 47.5201 443.066 47.0222C459.845 41.6936 475.563 52.1019 482.901 67.931C490.064 82.6907 491.457 99.4878 496.702 114.828L496.675 114.847V114.837Z" fill="#F3ECE4"/>
<path d="M561.386 144.215L556.306 136.102C545.142 121.444 521.385 117.037 515.881 97.7783C520.002 101.116 523.118 105.319 527.276 108.684C539.915 118.908 559.8 125.242 561.386 144.224V144.215Z" fill="#F3ECE4"/>
<path d="M391.146 63.2025C390.584 63.0089 390.178 60.4183 389.865 59.4226C385.136 38.2742 365.923 30.2628 345.872 32.6137C342.829 32.8073 343.253 32.0882 345.669 31.111C368.421 23.0996 395.83 37.3523 391.183 63.1932H391.146V63.2025Z" fill="#F3ECE4"/>
<path d="M523.154 135.121C522.868 136.504 519.189 137.647 518.092 137.785C492.085 141.141 476.975 120.223 474.007 96.8618L482.369 114.433C491.523 129.359 505.453 137.167 523.154 135.112V135.121Z" fill="#F3ECE4"/>
<path d="M405.506 58.0951C405.275 58.2887 404.999 57.8646 404.648 56.8781C403.929 54.7209 402.906 50.7844 402.104 48.1108C399.624 39.1776 393.539 31.369 385.076 27.3864C384.385 26.9255 382.495 26.0404 382.689 25.4873C398.389 26.0773 409.368 43.2708 405.543 58.0674L405.506 58.1043V58.0951Z" fill="#F3ECE4"/>
<path d="M554.658 180.267C554.391 180.221 554.087 179.64 553.82 178.663C553.285 176.709 552.925 173.731 552.704 171.537C552.206 161.442 546.951 152.804 540.074 145.521C539.438 144.71 539.18 144.147 539.429 143.944C539.641 143.76 540.258 143.852 541.134 144.193C553.266 149.264 556.76 163.443 555.626 176.054C555.442 177.225 555.507 179.687 554.695 180.258H554.658V180.267Z" fill="#F3ECE4"/>
<path d="M336.905 48.3901C337.182 48.4823 336.859 48.9248 335.993 49.6992C333.126 52.1607 329.641 54.9172 326.682 57.3787C324.137 59.3607 323.261 60.928 321.334 63.8688C318.458 68.2387 315.13 73.3091 312.318 77.5776C311.535 78.7576 311.009 79.3937 310.769 79.3107C310.336 78.8221 310.899 76.7571 311.092 75.7706C313.959 63.242 324.257 51.543 336.859 48.3809H336.905V48.3901Z" fill="#F3ECE4"/>
<path d="M340.817 285.537L308.956 280.982C311.869 296.489 332.87 296.636 340.817 285.537Z" fill="#234C91"/>
<path d="M349.923 240.901C355.519 242.506 363.465 245.88 367.632 239.961C372.813 232.604 366.886 226.354 365.392 219.062C364.074 219.237 363.88 220.315 363.65 221.403C362.378 227.515 363.346 237.085 355.638 238.882C353.371 239.408 349.194 237.887 349.932 240.911H349.923V240.901Z" fill="#234C91"/>
<path d="M364.445 273.288C357.844 271.205 349.123 261.276 340.872 259.533C335.958 258.501 332.704 260.455 329.505 260.05C327.504 259.792 324.361 256.611 322.047 255.588C312.026 251.163 308.587 257.662 298.935 258.224C299.497 266.485 311.482 264.567 317.373 265.738C332.16 268.679 349.427 276.367 364.168 278.202C366.012 278.432 367.607 277.317 369.294 277.52C370.825 277.704 374.448 280.866 375.407 280.073C373.388 268.835 370.493 275.206 364.445 273.297V273.288Z" fill="#234C91"/>
<path d="M513.799 254.119C518.584 247.611 517.625 235.506 508.351 234.096C515.91 228.196 530.089 224.646 529.296 238.613C528.983 244.089 525.978 248.846 523.83 253.668C531.131 247.934 542.968 225.983 529.241 221.383C513.845 216.229 493.84 235.903 495.14 250.93C497.592 249.704 499.427 243.923 502.266 244.661C507.844 246.108 502.69 254.728 499.169 256.793C496.504 258.351 485.478 260.416 486.585 264.887C488.908 274.217 510.526 258.572 513.799 254.129V254.119Z" fill="#234C91"/>
<path d="M422.293 178.081C415.203 172.633 399.052 166.908 390.635 171.001C389.15 171.72 383.757 177.058 382.688 178.533C381.95 179.556 379.175 184.701 382.218 183.53C384.283 182.728 389.731 176.081 391.787 177.178C389.704 185.576 398.24 192.223 405.8 187.992C409.598 185.862 408.639 182.774 409.1 179.446C409.248 178.422 408.686 177.574 410.428 178.1C418.716 180.58 424.026 190.398 431.835 193.56C435.891 190.416 424.764 179.98 422.284 178.081H422.293Z" fill="#234C91"/>
<path d="M331.711 225.44L332.273 228.234C336.339 228.824 350.739 239.315 353.56 237.259C350.168 227.459 341.916 222.601 331.711 225.431V225.44Z" fill="#234C91"/>
<path d="M379.61 142.266C379.61 142.266 375.582 143.87 374.816 145.954C374.051 148.037 373.369 149.098 374.236 152.804C375.102 156.51 374.798 155.763 374.798 155.763C374.798 155.763 375.932 156.593 378.698 155.828C381.463 155.062 387.76 154.758 391.568 154.97C395.375 155.182 409.904 156.206 424.802 160.751C439.7 165.296 451.021 170.089 454.534 172.173C458.046 174.256 459.41 175.178 459.41 175.178C459.41 175.178 460.812 169.287 451.113 157.883C441.415 146.479 434.952 139.455 425.632 139.279C416.311 139.104 400.731 137.085 379.61 142.257V142.266Z" fill="#234C91"/>
<path d="M302.855 133.748C302.855 133.748 302.246 134.955 311.115 136.421C311.115 136.421 325.543 140.275 328.825 141.648C332.107 143.022 340.644 146.977 343.585 149.687C346.525 152.398 351.181 151.19 351.181 151.19C351.181 151.19 350.158 140.367 349.761 138.754C349.365 137.14 348.922 132.835 340.395 126.99C331.867 121.145 324.722 120.048 324.722 120.048C324.722 120.048 319.597 119.873 318.647 119.532C317.698 119.191 316.518 118.278 316.518 118.278C316.518 118.278 313.484 117.2 311.253 118.278C309.022 119.357 302.846 133.757 302.846 133.757L302.855 133.748Z" fill="#234C91"/>
<path d="M310.117 164.246C310.117 164.246 312.348 156.972 318.57 156.059C324.793 155.146 332.307 157.866 336.677 161.508L341.056 165.158L337.267 170.395C337.267 170.395 336.151 166.652 330.472 163.139C330.472 163.139 328.619 162.771 328.739 164.255C328.859 165.739 331.081 172.091 324.01 174.58C316.939 177.069 312.431 168.219 313.74 164.236H310.107H310.117V164.246Z" fill="#234C91"/>
<path d="M785.406 550.816L376.237 552.143C369.249 552.143 362.372 554.015 354.83 576.629L285.199 817.91C284.508 821.948 284.821 824.815 286.13 826.41C288.186 828.936 293.542 829.277 298.511 829.277H690.662C708.915 829.277 718.992 829.277 727.058 807.382L800 565.17C799.695 557.196 793.27 550.816 785.415 550.816H785.406Z" fill="#F3ECE4" stroke="#234C91" stroke-width="16.9621" stroke-miterlimit="10"/>
<path d="M22.3585 384.517C23.0387 385.956 30.5919 388.126 39.387 389.602C53.0717 391.853 55.4639 391.643 56.6621 388.964C59.9525 382.29 56.9413 380.274 40.8643 378.233C23.3944 376.282 18.7302 377.701 22.3585 384.517Z" fill="#234C91"/>
<path d="M53.8064 345.891C69.1933 359.362 74.1574 361.727 74.6467 355.43C74.8455 352.871 69.7478 347.129 59.3688 338.007C50.6541 330.4 43.0132 324.262 42.0292 324.186C41.242 324.125 40.2865 326.229 40.0877 328.787C39.8125 332.33 43.246 336.556 53.8064 345.891Z" fill="#234C91"/>
<path d="M79.5093 314.568C86.4162 330.152 95.232 344.103 97.5039 342.893C101.427 340.822 100.129 334.583 92.6455 321.33C88.6694 313.893 84.3303 306.033 83.1362 303.564C81.942 301.095 80.3237 298.989 79.3396 298.913C75.2067 298.592 75.2925 305.132 79.5093 314.568Z" fill="#234C91"/>
</svg>
