<svg width="4200" height="717" viewBox="0 0 4200 717" fill="none" xmlns="http://www.w3.org/2000/svg">
<path d="M0.843834 700V60.4147H198.852L345.169 419.634H361.815L506.379 60.4147H707.892V700H565.957V154.162L586.108 155.914L417.012 570.331H280.334L110.362 155.914L132.265 154.162V700H0.843834ZM1077.37 716.647C1035.31 716.647 997.928 710.222 965.219 697.372C932.509 683.937 904.765 665.83 881.985 643.051C859.789 620.271 842.85 594.279 831.169 565.074C819.487 535.285 813.646 504.036 813.646 471.326V451.175C813.646 417.882 819.487 386.34 831.169 356.551C843.435 326.178 860.957 299.602 883.737 276.822C907.101 254.043 935.138 236.228 967.847 223.377C1000.56 209.943 1037.06 203.226 1077.37 203.226C1118.84 203.226 1155.63 209.943 1187.76 223.377C1220.47 236.228 1248.21 254.043 1270.99 276.822C1293.77 299.602 1311.3 326.178 1323.56 356.551C1335.83 386.34 1341.96 417.882 1341.96 451.175V471.326C1341.96 504.036 1336.12 535.285 1324.44 565.074C1312.76 594.279 1295.53 620.271 1272.75 643.051C1250.55 665.83 1223.1 683.937 1190.39 697.372C1157.68 710.222 1120 716.647 1077.37 716.647ZM1077.37 598.367C1104.82 598.367 1127.6 592.526 1145.7 580.844C1163.81 569.162 1177.54 552.808 1186.88 531.78C1196.81 510.753 1201.78 487.389 1201.78 461.689C1201.78 434.236 1196.81 410.288 1186.88 389.845C1176.95 368.817 1162.64 352.171 1143.95 339.905C1125.85 327.639 1103.65 321.506 1077.37 321.506C1051.66 321.506 1029.47 327.639 1010.78 339.905C992.087 352.171 977.777 368.817 967.847 389.845C958.502 410.288 953.829 434.236 953.829 461.689C953.829 487.389 958.502 510.753 967.847 531.78C977.193 552.808 991.211 569.162 1009.9 580.844C1028.59 592.526 1051.08 598.367 1077.37 598.367ZM983.618 147.153C957.333 147.153 938.35 140.144 926.668 126.125C914.986 112.107 909.145 94.8763 909.145 74.4329C909.145 53.4055 914.986 35.8826 926.668 21.8643C938.35 7.84598 957.333 0.836826 983.618 0.836826C1009.32 0.836826 1028.01 7.84598 1039.69 21.8643C1051.37 35.8826 1057.21 53.4055 1057.21 74.4329C1057.21 94.8763 1051.37 112.107 1039.69 126.125C1028.01 140.144 1009.32 147.153 983.618 147.153ZM1171.99 147.153C1145.7 147.153 1126.72 140.144 1115.04 126.125C1103.36 112.107 1097.52 94.8763 1097.52 74.4329C1097.52 53.4055 1103.36 35.8826 1115.04 21.8643C1126.72 7.84598 1145.7 0.836826 1171.99 0.836826C1197.69 0.836826 1216.38 7.84598 1228.06 21.8643C1239.74 35.8826 1245.58 53.4055 1245.58 74.4329C1245.58 94.8763 1239.74 112.107 1228.06 126.125C1216.38 140.144 1197.69 147.153 1171.99 147.153ZM1439.79 700V219.873H1551.06V426.643H1543.18C1543.18 377.579 1549.31 336.692 1561.58 303.983C1573.84 271.273 1592.24 246.741 1616.78 230.387C1641.31 213.448 1671.39 204.978 1707.02 204.978H1713.15C1749.37 204.978 1779.45 213.448 1803.39 230.387C1827.93 246.741 1846.33 271.273 1858.59 303.983C1871.44 336.692 1877.87 377.579 1877.87 426.643H1843.7C1843.7 377.579 1849.83 336.692 1862.1 303.983C1874.95 271.273 1893.64 246.741 1918.17 230.387C1942.7 213.448 1972.78 204.978 2008.41 204.978H2014.55C2050.76 204.978 2081.13 213.448 2105.66 230.387C2130.78 246.741 2149.76 271.273 2162.61 303.983C2175.46 336.692 2181.89 377.579 2181.89 426.643V700H2041.71V418.758C2041.71 392.473 2034.7 371.154 2020.68 354.799C2007.24 338.444 1987.97 330.267 1962.85 330.267C1937.74 330.267 1917.88 338.736 1903.27 355.675C1888.67 372.03 1881.37 393.934 1881.37 421.386V700H1740.31V418.758C1740.31 392.473 1733.3 371.154 1719.28 354.799C1705.85 338.444 1686.87 330.267 1662.34 330.267C1636.63 330.267 1616.48 338.736 1601.88 355.675C1587.28 372.03 1579.98 393.934 1579.98 421.386V700H1439.79ZM2521.31 716.647C2480.42 716.647 2444.2 709.638 2412.66 695.619C2381.71 681.601 2355.71 662.91 2334.69 639.546C2314.24 615.598 2298.47 589.022 2287.38 559.817C2276.86 530.028 2271.6 499.655 2271.6 468.698V451.175C2271.6 419.05 2276.86 388.385 2287.38 359.18C2298.47 329.391 2314.24 302.815 2334.69 279.451C2355.13 256.087 2380.54 237.688 2410.91 224.254C2441.87 210.235 2476.91 203.226 2516.05 203.226C2567.45 203.226 2610.67 214.908 2645.72 238.272C2681.35 261.052 2708.51 291.133 2727.2 328.515C2745.89 365.313 2755.24 405.615 2755.24 449.423V496.735H2330.31V417.005H2670.25L2624.69 453.803C2624.69 425.183 2620.6 400.651 2612.42 380.207C2604.25 359.764 2591.98 344.285 2575.63 333.772C2559.86 322.674 2540 317.125 2516.05 317.125C2491.52 317.125 2470.78 322.674 2453.84 333.772C2436.9 344.87 2424.05 361.224 2415.29 382.836C2406.53 403.863 2402.15 429.856 2402.15 460.813C2402.15 489.433 2406.24 514.549 2414.42 536.161C2422.59 557.188 2435.44 573.543 2452.97 585.225C2470.49 596.907 2493.27 602.748 2521.31 602.748C2547.01 602.748 2568.03 597.783 2584.39 587.854C2600.74 577.924 2611.84 565.658 2617.68 551.055H2746.47C2739.47 583.181 2725.74 611.801 2705.3 636.918C2684.85 662.034 2659.15 681.601 2628.2 695.619C2597.24 709.638 2561.61 716.647 2521.31 716.647ZM2848.13 700V219.873H2959.4V425.767H2951.51C2951.51 376.703 2957.65 335.816 2969.91 303.107C2982.76 270.397 3002.04 245.865 3027.74 229.511C3053.44 213.156 3084.69 204.978 3121.49 204.978H3127.62C3183.69 204.978 3226.33 223.377 3255.54 260.176C3285.32 296.39 3300.22 351.587 3300.22 425.767V700H3160.04V417.882C3160.04 392.181 3152.44 371.154 3137.26 354.799C3122.07 338.444 3101.63 330.267 3075.93 330.267C3049.64 330.267 3028.32 338.736 3011.97 355.675C2996.2 372.03 2988.31 393.642 2988.31 420.51V700H2848.13ZM3637.84 706.133C3589.36 706.133 3550.22 700.292 3520.43 688.61C3490.64 676.344 3468.74 656.193 3454.72 628.156C3441.29 599.535 3434.57 560.985 3434.57 512.505V90.2035H3565.12V517.762C3565.12 540.542 3570.96 558.065 3582.64 570.331C3594.9 582.013 3612.14 587.854 3634.33 587.854H3705.3V706.133H3637.84ZM3361.85 322.382V219.873H3705.3V322.382H3361.85ZM4087.86 700V558.065H4064.2V403.863C4064.2 379.331 4058.36 360.932 4046.68 348.666C4035 336.4 4016.31 330.267 3990.61 330.267C3977.76 330.267 3960.82 330.559 3939.79 331.143C3918.76 331.727 3897.15 332.603 3874.96 333.772C3852.76 334.94 3832.61 336.108 3814.5 337.276V218.997C3827.94 217.829 3843.71 216.66 3861.81 215.492C3879.92 214.324 3898.61 213.448 3917.89 212.864C3937.16 212.28 3955.27 211.988 3972.21 211.988C4021.27 211.988 4062.45 218.997 4095.74 233.015C4129.62 247.033 4155.32 268.353 4172.84 296.974C4190.37 325.01 4199.13 361.224 4199.13 405.615V700H4087.86ZM3934.53 712.266C3900.07 712.266 3869.7 706.133 3843.41 693.867C3817.71 681.601 3797.56 664.078 3782.96 641.298C3768.36 617.934 3761.06 590.19 3761.06 558.065C3761.06 523.019 3770.11 494.398 3788.22 472.202C3806.32 449.423 3831.73 432.776 3864.44 422.262C3897.15 411.164 3934.83 405.615 3977.46 405.615H4079.97V483.592H3976.59C3952.06 483.592 3933.07 489.725 3919.64 501.991C3906.79 513.673 3900.36 529.736 3900.36 550.179C3900.36 569.454 3906.79 585.225 3919.64 597.491C3933.07 609.173 3952.06 615.014 3976.59 615.014C3992.36 615.014 4006.38 612.386 4018.64 607.129C4031.49 601.288 4042.01 591.65 4050.18 578.216C4058.36 564.782 4063.03 546.091 4064.2 522.143L4097.5 557.188C4094.58 590.482 4086.4 618.519 4072.96 641.298C4060.11 664.078 4042.01 681.601 4018.64 693.867C3995.86 706.133 3967.83 712.266 3934.53 712.266Z" fill="#101828"/>
</svg>
