<svg xmlns="http://www.w3.org/2000/svg" version="1.1" xmlns:xlink="http://www.w3.org/1999/xlink" width="92" height="59"><svg width="92" height="59" viewBox="0 0 92 59" fill="none" xmlns="http://www.w3.org/2000/svg">
<path d="M17.4604 59H0.943165C0.854363 59 0.76556 59 0.676758 58.9107C1.12077 58.4644 5.82728 51.5023 5.91608 51.056C6.18249 49.9849 6.27129 48.7353 6.5377 47.5749C6.89291 45.6112 7.15931 43.6475 7.51452 41.6838C8.22494 38.0242 8.75775 34.2753 9.46817 30.6157C10.5338 25.171 11.4218 19.7262 12.3986 14.2814C12.665 13.0318 13.4643 8.83661 13.4643 7.76551C13.4643 7.31921 11.333 0.892586 10.9778 0H41.5257V0.178515C41.5257 1.0711 39.0393 6.60514 39.0393 7.85477C39.0393 9.01513 39.8385 12.3177 40.1049 13.6566C40.3713 15.4418 40.7265 17.3162 40.9929 19.1014C42.5913 28.295 44.1898 37.5779 45.877 46.7716C46.0546 47.4856 46.5874 51.2345 46.8538 51.6808C47.1202 52.2163 47.5643 52.6626 47.9195 53.1982C49.1627 55.0726 50.4059 56.8578 51.6492 58.7322C51.738 58.8215 51.738 58.9107 51.8268 59H35.132C34.1551 54.8941 33.7111 50.6097 32.9119 46.5038C32.8231 45.9682 32.8231 45.9682 32.2903 45.9682H20.2132C19.6804 45.9682 19.6804 45.9682 19.5916 46.5038C19.3252 47.8427 19.1476 49.1815 18.97 50.5204C18.526 53.3767 17.9044 56.1437 17.4604 59ZM14.8851 27.0454C14.8851 26.5098 14.3523 26.2421 13.8195 26.2421C13.4643 26.2421 13.3755 26.5991 13.3755 26.9561C13.3755 27.1346 13.4643 27.3132 13.7307 27.3132C14.0859 27.4917 14.5299 27.3132 14.8851 27.5809H14.9739C15.0627 27.5809 15.0627 27.5809 15.1515 27.5809C15.2403 27.5809 15.4179 27.4917 15.4179 27.4024C15.2403 27.2239 15.0627 27.2239 14.8851 27.0454ZM17.3716 26.7776C17.3716 26.9561 17.3715 27.3132 17.638 27.3132C17.8156 27.3132 18.3484 27.0454 18.526 26.8669L18.6148 26.5991C18.526 26.5991 18.3484 26.5098 18.3484 26.5098C18.1708 26.5098 18.082 26.5098 17.9044 26.5991H17.3716L17.2828 26.6884C17.2828 26.5991 16.2171 24.0106 16.1283 23.8321C16.1283 23.7428 16.1283 23.7428 16.1283 23.6536C16.1283 23.5643 16.1283 23.5643 16.0395 23.5643C15.7731 23.5643 15.5067 23.7428 15.1515 23.7428C14.8851 23.8321 14.7963 24.2784 14.8851 24.5461C14.8851 24.8139 14.7075 25.0817 14.7075 25.2602C14.7075 25.4387 14.8851 25.528 15.0627 25.528C15.5955 25.6172 15.7731 26.1528 16.3059 26.1528C16.6611 26.1528 16.4835 26.5991 16.9275 26.5991C17.1939 26.5991 17.2828 26.5991 17.2828 26.3313L17.3716 26.2421C17.3716 25.6172 16.1283 25.6172 16.0395 25.171L16.2171 24.9924L16.4835 24.9032C16.5723 24.8139 16.6611 24.7247 16.6611 24.6354L16.5723 24.4569C16.5723 24.4569 16.4835 24.3676 16.3947 24.3676L16.3059 24.2784C16.3059 24.5461 17.2828 26.5991 17.3716 26.7776ZM31.2247 38.292C31.4023 38.292 31.4023 38.2027 31.4023 38.0242C31.4023 36.5961 30.4255 32.5794 30.1591 30.9728C29.1822 25.4387 28.383 19.9047 27.3174 14.4599C27.2286 13.9244 26.3406 9.10439 26.2518 9.01513C26.2518 9.19365 26.163 9.2829 26.163 9.46142C25.5413 12.4962 25.0973 15.6203 24.5645 18.6551L22.4333 30.7943C22.0781 32.5794 21.1012 36.5068 21.1012 38.1135C21.1012 38.3812 21.4564 38.292 21.5452 38.292H31.2247ZM16.7499 11.2466C16.8387 11.4251 17.1939 12.1392 17.3716 12.1392C17.5492 11.9607 17.8156 11.4251 18.1708 11.4251C18.3484 11.4251 18.4372 11.8714 18.526 12.0499C18.6148 11.8714 18.6148 11.7821 18.6148 11.6036C18.6148 11.4251 18.6148 11.3359 18.6148 11.1573C18.526 10.9788 18.4372 10.8003 18.1708 10.8003C18.082 10.711 17.9932 10.6218 17.9044 10.4433L18.082 10.354C18.3484 10.4433 18.7036 10.711 18.97 10.711C19.1476 10.711 19.2364 10.6218 19.414 10.6218C19.7692 10.6218 20.0356 10.8896 20.4796 10.8896C20.746 10.8896 20.9236 10.8003 21.19 10.711C21.5453 10.8003 21.8117 10.711 22.0781 10.9788H22.1669C22.3445 10.9788 22.5221 10.8896 22.5221 10.8003C22.5221 10.5325 21.5452 9.90772 21.3676 9.55068C21.3676 9.19364 21.1012 9.10439 20.9236 8.92587C20.4796 8.92587 20.2132 9.19365 20.2132 9.63994C20.1244 9.81846 20.0356 9.90772 19.858 9.90772C19.7692 9.81846 19.5916 9.81846 19.5028 9.72919C18.7036 9.46142 18.97 8.92587 18.4372 8.65809C18.082 8.65809 17.8156 8.47957 17.4604 8.47957C17.1051 8.47957 16.9275 8.92587 16.9275 9.2829C16.8387 9.46142 16.7499 9.55068 16.5723 9.46142C16.4835 9.46142 16.4835 9.46142 16.3947 9.46142C16.2171 9.46142 16.0395 9.63994 16.0395 9.81846C16.0395 10.0862 16.3059 10.2648 16.3059 10.5325L16.3947 10.6218C16.5723 10.6218 16.6611 10.4433 16.7499 10.4433C16.9275 10.4433 17.0163 10.5325 17.0163 10.711C17.0163 10.8896 16.9275 11.0681 16.7499 11.2466ZM15.5067 17.941C15.6843 18.0303 15.7731 18.0303 15.9507 18.0303C16.2171 18.2088 16.4835 18.298 16.8387 18.298C17.1939 18.298 17.5492 18.2088 17.9044 18.2088C18.2596 17.8517 18.6148 18.0303 18.8812 17.7625C18.8812 17.4947 18.3484 17.1377 18.082 17.1377C17.638 17.1377 17.638 17.6732 17.1939 17.6732C17.1051 17.584 17.1051 17.584 17.1051 17.4947C17.1051 17.1377 17.5492 16.6914 17.5492 16.4236C17.5492 16.1558 16.5723 15.4418 16.3947 15.4418C16.3059 15.4418 16.2171 15.4418 16.2171 15.531C16.2171 16.1558 15.9507 16.6914 15.3291 16.9592C15.2403 16.9592 15.1515 16.9592 15.1515 17.0484C15.2403 17.2269 15.3291 17.941 15.5067 17.941ZM18.2596 31.2405C18.2596 31.062 18.1708 30.9728 17.9932 30.9728C17.7268 30.9728 17.638 31.5976 17.2828 31.5976C17.1051 31.5976 16.5723 31.1513 16.3947 31.062H16.3059C16.3059 31.3298 16.3947 31.6868 16.0395 31.6868C15.9507 31.6868 15.6843 31.6868 15.5955 31.5976C15.5067 31.5976 15.4179 31.5976 15.4179 31.7761C15.4179 31.9546 16.0395 32.5794 16.1283 32.8472C16.3947 33.5613 16.1283 34.0076 16.8387 34.6324V34.5431C17.3716 34.0076 16.8387 33.829 17.9932 33.829C18.2596 33.829 18.4372 33.829 18.526 34.0076H18.6148C18.7036 34.0076 18.97 33.2042 18.97 33.0257C18.97 32.8472 18.7924 32.8472 18.6148 32.8472C18.2596 32.8472 18.2596 33.3828 17.9932 33.3828C17.7268 33.3828 16.9275 32.8472 16.9275 32.5794C16.9275 32.4009 17.2827 31.9546 17.4604 31.9546C17.638 32.0439 17.8156 32.1331 17.9932 32.1331C18.1708 32.1331 18.2596 31.9546 18.2596 31.7761V31.2405ZM17.638 24.3676C17.638 24.2784 17.7268 24.1891 17.8156 24.1891C18.6148 24.1891 18.526 25.528 18.97 25.528C19.3252 25.2602 19.2364 25.0817 19.2364 24.6354C19.1476 24.5461 19.1476 24.5461 19.1476 24.4569L19.2364 24.2784C19.3252 24.1891 19.3252 24.0998 19.3252 24.0106C19.3252 23.7428 19.1476 23.6536 19.1476 23.3858C19.1476 23.0287 19.5028 22.8502 19.7692 22.5825C19.858 22.5825 19.9468 22.4932 19.9468 22.4039C19.858 22.2254 18.8812 21.0651 18.6148 21.0651C18.4372 21.0651 18.3484 21.4221 18.3484 21.6006C18.3484 21.6899 18.4372 21.8684 18.4372 21.9576C18.6148 22.1362 18.7036 22.2254 18.7036 22.4932C18.7036 22.5825 18.1708 23.3858 18.082 23.3858C17.9044 23.2965 17.8156 23.2073 17.638 23.2073C17.5492 23.2073 17.4604 23.2965 17.3716 23.3858C17.1051 23.7428 17.3716 24.2784 17.3716 24.7247C17.3716 24.8139 17.2828 24.9924 17.1939 25.0817C17.1939 25.2602 17.3715 25.4387 17.5492 25.4387H17.638C17.7268 25.4387 17.8156 25.3495 17.8156 25.2602L17.7268 25.171C17.7268 24.9032 17.638 24.6354 17.638 24.3676ZM33.8887 10.2648C33.8887 10.1755 33.8887 10.1755 33.8887 10.0862C33.8887 9.99697 33.7999 9.63994 33.6223 9.63994C33.3559 9.90772 33.2671 9.90772 33.0895 10.354C33.1783 10.711 33.0895 11.0681 33.2671 11.3359C33.3559 11.4251 33.3559 11.5144 33.3559 11.6036C33.2671 11.8714 32.9119 11.9607 32.9119 12.407C32.9119 12.6747 33.1783 13.5673 33.5335 13.5673C33.7999 13.5673 33.7111 13.121 33.7111 12.9425C33.7111 12.6747 33.7999 12.407 34.0663 12.407C34.1551 12.407 34.2439 12.4962 34.3327 12.4962C34.5104 12.6747 34.688 12.8533 34.9544 12.9425C35.0432 13.121 35.3096 13.2103 35.4872 13.2103C35.6648 13.2103 35.7536 13.121 35.7536 12.9425C35.7536 12.3177 34.8656 12.8533 34.688 12.1392C34.5992 11.6036 34.4216 11.4251 34.4216 10.8896C34.4216 10.5325 33.8887 10.8003 33.8887 10.2648ZM17.4604 21.5113C17.4604 21.6006 17.2828 21.7791 17.1939 21.7791C17.0163 21.7791 16.8387 21.7791 16.7499 21.6006C16.5723 21.5113 16.2171 21.1543 16.0395 21.1543C15.6843 21.2436 15.6843 22.3147 15.2403 22.3147C15.0627 22.3147 14.7963 21.7791 14.5299 21.7791L14.3523 21.9576V22.3147C14.3523 22.4039 14.4411 22.4039 14.4411 22.4932C14.3523 22.761 13.9971 22.8502 13.9971 23.0287C13.9971 23.2073 14.0859 23.475 14.2635 23.475C14.5299 23.475 14.4411 23.0287 14.4411 22.8502C14.4411 22.761 14.6187 22.5825 14.7075 22.5825C15.0627 22.5825 15.4179 23.2965 15.5955 23.2965C15.8619 23.2965 16.0395 22.8502 16.2171 22.8502C16.3059 22.8502 16.5723 23.118 16.6611 23.118C16.7499 23.0287 17.7268 21.7791 17.9044 21.6006V21.4221C17.8156 21.2436 17.8156 20.9758 17.638 20.7973C17.3715 20.9758 17.4604 21.2436 17.4604 21.5113ZM16.2171 36.6853L16.3059 36.5961C16.2171 36.4175 16.0395 36.1498 16.0395 35.882C16.0395 35.6142 16.2171 35.4357 16.2171 35.3464C16.2171 35.3464 15.6843 34.9002 15.5955 34.9002H15.3291C15.2403 34.9894 15.1515 35.0787 15.0627 35.0787C14.9739 35.0787 14.7963 34.9894 14.7075 34.9002C14.5299 34.9002 13.9971 34.9002 13.9971 34.5431C13.9971 34.3646 14.2635 34.1861 14.2635 34.0076C14.1747 33.9183 13.4643 33.3828 13.2867 33.3828C13.1979 33.3828 13.1091 33.472 13.1091 33.5613C13.1091 33.829 13.2867 34.0968 13.2867 34.3646C13.2867 34.7216 13.0203 34.8109 13.0203 35.1679C13.0203 35.2572 13.1979 35.3464 13.2867 35.3464C13.6419 35.3464 14.0859 35.1679 14.4411 35.1679C14.7075 35.1679 14.7963 35.3464 14.7963 35.6142C14.8851 35.7927 14.7963 35.882 14.7963 36.0605C14.7963 36.5068 15.4179 36.3283 15.5955 36.3283C15.8619 36.3283 16.0395 36.5068 16.2171 36.6853ZM35.576 22.5825C35.576 23.118 34.4216 23.118 34.4216 23.6536C34.4216 23.8321 34.8656 24.0998 35.0432 24.0998C35.4872 24.0998 35.3096 23.2965 35.7536 23.3858C35.9312 23.3858 36.02 23.3858 36.1088 23.3858C36.3752 23.3858 36.6416 22.9395 36.6416 22.761C36.6416 22.5824 36.2864 21.2436 36.02 21.2436C35.7536 21.2436 35.576 21.6899 35.0432 21.6899C34.8656 21.8684 34.7768 21.8684 34.5992 22.1362C34.7768 22.5824 35.576 22.0469 35.576 22.5825ZM38.5952 25.885C38.5952 25.7958 38.5064 25.6172 38.3288 25.6172C38.0624 25.6172 37.8848 25.885 37.6184 25.885C37.352 25.885 36.908 25.171 36.3752 24.9924C36.3752 24.9924 36.2864 24.9924 36.1976 24.9924C36.1976 24.9924 36.1088 24.9924 36.02 24.9924V25.171C36.3752 25.7958 36.7304 26.2421 36.7304 26.9561V27.4024C36.7304 27.4917 36.8192 28.295 36.908 28.295C37.0856 28.295 37.352 27.8487 37.4408 27.6702V27.5809C37.4408 27.4917 37.4408 27.3132 37.352 27.2239V27.0454C37.352 27.0454 37.2632 26.9561 37.2632 26.8669L37.352 26.7776C37.6184 26.0635 38.5952 26.4206 38.5952 25.885ZM31.8463 8.39032H31.7575C31.7575 9.55068 31.2247 8.56884 30.8695 9.37216C30.8695 9.46142 30.7807 9.55068 30.6919 9.55068C30.6031 9.55068 30.5143 9.37216 30.4255 9.2829C30.3367 9.2829 30.0702 9.2829 30.0702 9.46142C30.0702 9.55068 30.4255 9.72919 30.5143 9.72919C30.6919 9.81846 30.6919 9.90772 30.7807 9.99697V10.1755C30.8695 10.2648 30.8695 10.354 30.9583 10.354C31.0471 10.354 31.1359 10.2648 31.2247 10.1755C31.2247 9.99697 31.1359 9.81846 31.1359 9.63994C31.1359 9.37216 31.5799 9.37216 31.7575 9.37216C32.1127 9.10439 32.3791 8.92587 32.8231 8.83661C32.9119 8.74735 33.0007 8.56884 33.0007 8.47957C33.0007 8.2118 32.6455 8.2118 32.4679 8.12254C32.2015 8.12254 32.0239 7.85477 32.0239 7.58699C32.0239 7.31921 32.3791 7.31921 32.4679 7.14069L32.3791 7.05144H31.8463C31.5799 7.05144 31.4911 7.40847 31.4911 7.58699C31.5799 7.67625 31.5799 7.76551 31.6687 7.85477C31.6687 8.03328 31.7575 8.2118 31.8463 8.39032ZM36.8192 40.4342L36.6416 40.6127C36.6416 41.416 38.5065 41.3268 38.5065 42.1301C38.5953 42.2194 38.684 42.2194 38.7729 42.2194H38.8617V42.0408H39.0393C39.1281 42.1301 39.2169 42.2194 39.3945 42.2194C39.6609 42.2194 39.7497 41.7731 39.7497 41.5946C39.7497 41.5946 39.7497 41.5053 39.7497 41.416C39.7497 41.3268 39.5721 41.2375 39.4833 41.2375C39.0393 41.1483 38.684 41.059 38.24 40.9697C37.6184 40.8805 37.4408 40.4342 36.8192 40.4342ZM17.9044 8.2118C17.9932 8.2118 19.1476 7.49773 19.1476 7.22995C19.1476 7.22995 19.0588 7.05144 19.0588 6.96218H18.97C18.7924 6.96218 18.6148 7.14069 18.4372 7.14069C18.3484 7.14069 18.082 7.05144 18.082 6.96218C18.082 6.87292 18.1708 6.78366 18.2596 6.78366C18.2596 6.6944 18.4372 6.51589 18.4372 6.51589C18.4372 6.33737 18.082 6.06959 17.9044 6.06959C17.5492 6.06959 17.4604 7.14069 17.1051 7.49773C17.1051 7.58699 17.1051 7.58699 17.1051 7.67625C17.1051 7.94402 17.5492 8.03328 17.7268 8.12254C17.8156 8.12254 17.8156 8.2118 17.9044 8.2118ZM21.5452 7.22995C21.5452 7.14069 21.6341 7.14069 21.6341 7.05144C22.0781 7.05144 22.0781 7.58699 22.4333 7.58699C22.7885 7.58699 22.6997 6.6944 22.6997 6.51589C22.6997 6.15885 22.5221 6.24811 22.3445 6.24811C22.0781 6.24811 21.8117 6.15885 21.5452 6.15885C21.4564 6.15885 21.3676 6.24811 21.3676 6.33737C21.19 6.51589 21.2788 6.78366 21.2788 6.96218C21.2788 7.22995 20.8348 7.22995 20.8348 7.85477C20.8348 8.03328 20.8348 8.2118 21.0124 8.30106C21.0124 8.39032 21.1012 8.39032 21.19 8.47957L21.3676 8.30106C21.5452 7.94402 21.5452 7.94402 21.5452 7.58699V7.22995ZM26.8734 3.21331C26.3406 3.21331 26.3406 3.83812 25.8966 4.01664C25.8078 4.01664 25.8078 4.1059 25.719 4.19516C25.8966 4.37367 26.3406 4.81997 26.607 4.81997C26.8734 4.81997 26.9622 4.46294 27.1398 4.46294C27.3174 4.55219 27.5838 4.90923 27.6726 4.90923C27.8502 4.90923 28.2054 4.37367 28.2942 4.28442V4.19516C28.2054 4.19516 28.1166 4.19516 28.1166 4.19516C27.7614 4.19516 27.495 3.92738 27.4062 3.65961V3.57034C27.2286 3.39183 27.051 3.21331 26.8734 3.21331ZM10.6226 49.0923V49.2708C10.6226 49.4493 10.8002 49.6278 10.9778 49.6278C11.5994 49.6278 13.1979 49.1815 13.1979 48.5567C13.1979 48.3782 13.1979 48.289 13.1091 48.1997H12.5762C12.3098 48.1997 12.1322 49.003 11.8658 49.003C11.777 49.003 11.6882 48.9138 11.5994 48.9138C11.5994 48.7353 11.5106 48.646 11.333 48.646H10.9778C10.7114 48.646 10.6226 48.9138 10.6226 49.0923ZM39.4833 50.4312C39.6609 50.4312 39.7497 50.3419 39.6609 50.1634C39.6609 49.8956 39.8385 49.6278 39.8385 49.4493C39.8385 49.3601 39.7497 49.3601 39.6609 49.3601C39.4833 49.3601 39.3945 49.6278 39.2169 49.6278C39.1281 49.6278 39.0393 49.6278 39.0393 49.6278H38.8617C38.7729 49.6278 38.7729 49.5386 38.6841 49.5386C38.5952 49.5386 38.5064 49.8956 37.9736 49.9849C37.5296 50.0741 37.352 50.4312 37.0856 50.6989C37.0856 50.7882 37.0856 50.7882 37.0856 50.8775C37.0856 51.056 37.1744 51.1452 37.352 51.1452C37.6184 51.1452 37.796 51.056 38.0624 50.9667C38.24 50.7882 38.24 50.2526 38.5065 50.2526C38.8617 50.2526 39.1281 50.4312 39.4833 50.4312ZM36.8192 30.705C36.464 30.7942 35.576 31.062 35.576 31.5083C35.576 31.8654 36.9968 32.7579 37.2632 32.7579C37.4408 32.7579 37.4408 32.6687 37.4408 32.5794V32.3116C37.4408 31.9546 37.352 31.7761 36.9968 31.7761C36.908 31.6868 36.8192 31.7761 36.5528 31.5083C36.7304 31.3298 37.0856 31.1513 37.0856 30.8835C36.9968 30.7943 36.908 30.7942 36.8192 30.705ZM16.9275 13.8351L16.5723 13.9244L16.3947 14.1029L16.5723 14.2814C16.7499 14.2814 17.1051 14.2814 17.1051 14.5492C17.1939 14.7277 17.3715 14.8169 17.5492 14.9062C17.9044 15.0847 17.8156 15.2632 18.082 15.531C18.1708 15.6203 18.1708 15.6203 18.2596 15.6203C18.3484 15.6203 18.526 15.531 18.526 15.4418C18.526 15.174 18.1708 14.9955 18.1708 14.7277C18.1708 14.6384 18.2596 14.5492 18.2596 14.4599C18.3484 14.3707 18.7924 13.8351 18.7924 13.8351L18.7036 13.6566C18.7036 13.6566 18.6148 13.6566 18.526 13.6566C18.3484 13.6566 18.1708 14.0136 17.638 14.0136C17.4604 14.0136 17.1939 13.9244 16.9275 13.8351ZM29.271 7.22995C29.271 7.40847 29.4486 7.58699 29.6262 7.58699C29.9814 7.58699 29.8926 6.78366 29.9814 6.42662C30.1591 5.80182 30.2479 6.06959 30.7807 6.06959C30.8695 6.06959 30.9583 5.98033 30.9583 5.89107C31.0471 5.80182 31.0471 5.71256 31.0471 5.62329C30.8695 5.35552 30.6919 5.177 30.5143 4.90923H30.4255V4.99849C30.4255 5.08774 30.5143 5.08774 30.5143 5.177C30.5143 5.89107 29.5374 5.62329 29.3598 5.98033C29.3598 6.42662 29.271 6.78366 29.271 7.22995ZM17.9044 4.19516C17.9044 4.1059 17.8156 4.01664 17.7268 4.01664C17.5492 4.01664 17.3716 4.19516 17.2828 4.28442L17.1051 4.1059C17.0163 3.92738 16.9275 3.83812 16.7499 3.83812C16.6611 3.83812 16.6611 3.74886 16.5723 3.74886C16.4835 3.74886 16.3059 3.92738 16.3059 4.01664C16.3059 4.19516 16.5723 4.46294 16.5723 4.81997C16.5723 5.08774 16.8387 4.99849 17.0163 4.99849C17.2827 4.99849 17.4604 5.26626 17.5492 5.44478V5.53404L17.7268 5.71256C17.8156 5.62329 17.8156 5.53404 17.9044 5.44478V4.19516ZM8.49135 54.0908C8.49135 54.3586 8.84655 55.2511 9.11296 55.2511C9.37936 55.2511 9.73457 54.8048 9.82337 54.6263V54.4478C9.82337 54.0908 9.29056 53.5552 8.93535 53.5552C8.58015 53.5552 8.49135 53.823 8.49135 54.0908ZM40.2825 50.5204C40.2825 50.6989 40.2825 50.9667 40.5489 50.9667L41.2593 51.3238C41.3481 51.3238 41.4369 51.2345 41.4369 51.1452C41.4369 51.056 41.5257 51.056 41.5257 50.9667C41.6145 50.8775 41.6145 50.7882 41.6145 50.6097C41.6145 50.3419 41.2593 50.3419 41.2593 49.6278C41.1705 49.5386 41.0817 49.4493 40.9929 49.4493C40.6377 49.6278 40.2825 50.1634 40.2825 50.5204ZM38.6841 46.4145C38.8617 46.4145 38.9505 46.4145 39.0393 46.236C39.0393 45.7005 38.5952 45.879 38.5952 45.4327C38.5952 45.4327 38.6841 45.3434 38.6841 45.2542C38.7729 45.1649 38.9505 44.8971 38.9505 44.7186V44.6293C38.9505 44.5401 38.8617 44.4508 38.7729 44.4508C38.5952 44.4508 38.3288 44.5401 38.0624 44.5401H37.8848C37.8848 44.6294 37.9736 44.6293 37.9736 44.7186C38.0624 44.8079 38.3288 44.8971 38.3288 45.0756C38.24 45.3434 37.8848 45.5219 37.8848 45.7897C37.8848 46.0575 38.0624 46.4145 38.3288 46.4145H38.6841ZM36.2864 17.584C36.2864 18.5658 36.7304 18.298 37.4408 18.5658C37.5296 18.5658 37.5296 18.4766 37.5296 18.3873C37.5296 18.2088 36.9968 17.8517 36.908 17.584L36.9968 17.3162C37.2632 17.1377 37.2632 16.8699 37.4408 16.6914V16.5129H37.2632C36.908 16.5129 36.5528 16.7806 36.464 17.1377C36.3752 17.2269 36.2864 17.4054 36.2864 17.584ZM34.688 27.4917C34.4216 27.4917 33.7999 27.7595 33.7999 28.1165L33.8887 28.3843L33.9775 28.4735C34.244 28.4735 34.3327 28.2057 34.5104 28.2057C34.5992 28.2057 34.688 28.295 34.7768 28.295C34.8656 28.3843 34.8656 28.4735 34.9544 28.5628H35.0432C35.132 28.295 35.3096 28.2057 35.576 28.1165C35.576 28.1165 35.6648 28.0272 35.6648 27.938C35.6648 27.938 35.576 27.8487 35.576 27.7595C35.4872 27.6702 35.3984 27.5809 35.2208 27.4917C35.0432 27.4917 34.8656 27.4917 34.688 27.4917ZM11.5994 39.8986C11.1554 39.8986 10.889 40.1664 10.889 40.6127L11.0666 40.7912C11.4218 40.7912 11.777 40.702 11.9546 41.059C12.0434 41.2375 12.0434 41.7731 12.3986 41.7731C12.4874 41.7731 12.665 41.5946 12.665 41.5053C12.665 41.2375 11.9546 41.059 11.9546 40.1664C11.9546 39.9879 11.777 39.8986 11.5994 39.8986ZM20.1244 20.8865C20.2132 20.8865 20.302 20.9758 20.3908 20.9758C20.6572 20.9758 20.8348 20.708 20.8348 20.5295L20.746 20.2617H20.1244C19.858 20.2617 19.7692 20.0832 19.5028 20.0832C19.414 20.0832 18.8812 20.2617 18.8812 20.351C18.8812 20.4402 18.97 20.4402 18.97 20.5295C19.2364 20.708 19.5028 20.9758 19.858 20.9758C19.9468 20.9758 20.0356 20.8865 20.1244 20.8865ZM40.6377 32.4009C40.4601 32.0439 40.3713 31.9546 40.1049 31.6868H39.9273L39.8385 31.8654C39.8385 32.1331 39.9273 32.4009 39.5721 32.4902C39.3945 32.6687 39.3945 32.4902 39.2169 32.8472L39.3945 32.9365C39.6609 32.9365 39.8385 32.8472 40.1937 32.8472H40.4601C40.5489 32.6687 40.6377 32.5794 40.6377 32.4009ZM41.8809 48.1997C41.9697 48.1104 42.0585 48.0212 42.0585 47.8427C42.0585 47.7534 41.9697 47.6641 41.8809 47.6641C41.7033 47.6641 41.4369 47.9319 40.9929 47.9319C40.9041 47.9319 40.7265 47.8427 40.6377 47.8427L40.5489 47.7534C40.3713 47.8427 39.9273 47.8427 39.9273 48.1104C39.9273 48.289 40.0161 48.3782 40.1937 48.3782C40.7265 48.3782 41.2593 48.1997 41.8809 48.1997ZM18.97 18.4765C18.97 18.4765 18.8812 18.3873 18.7924 18.3873L18.7036 18.4765C18.3484 18.5658 18.2596 19.0121 18.2596 19.3691C18.2596 19.5477 18.2596 19.9047 18.526 19.9047L18.7036 19.8154C18.7924 19.6369 19.0588 19.3691 19.0588 19.1906C19.0588 18.9228 18.97 18.7443 18.97 18.4765ZM32.4679 26.7776C32.4679 26.8669 32.5567 27.0454 32.5567 27.1346C32.6455 27.0454 32.8231 27.0454 32.9119 26.9561H33.0007C33.1783 26.7776 33.4447 26.4206 33.4447 26.1528C33.4447 25.9743 33.1783 25.9743 33.0007 25.9743C32.6455 25.9743 32.4679 26.4206 32.4679 26.7776ZM9.91218 51.056C10.0898 50.9667 10.5338 50.8775 10.5338 50.6097C10.445 50.4312 9.73457 50.1634 9.55697 50.1634C9.37936 50.1634 9.20176 50.3419 9.20176 50.6097V50.6989C9.37936 50.8775 9.73457 50.9667 9.91218 51.056ZM42.6801 52.6626C42.7689 52.6626 43.3906 52.5734 43.3906 52.4841C43.3906 52.3949 43.3018 52.3949 43.3018 52.3056C42.9465 51.9486 42.8578 52.1271 42.4137 52.1271C42.0585 51.9486 42.1473 51.5023 41.7033 51.5023C41.7033 51.5023 41.7033 51.5023 41.6145 51.5023C41.6145 51.5023 41.6145 51.5023 41.6145 51.5915C41.6145 52.1271 42.3249 52.2163 42.5025 52.5734L42.6801 52.6626ZM39.0393 39.1846C38.7729 39.1846 38.5952 39.2738 38.4176 39.3631C38.3288 39.3631 38.24 39.4523 38.24 39.5416V39.6309C38.3288 39.8094 38.4176 39.8986 38.5952 39.8986C38.7728 39.8986 38.9505 39.8094 39.1281 39.8094C39.3057 39.8094 39.3945 39.8986 39.3945 39.8986C39.4833 39.8986 39.6609 39.6309 39.6609 39.5416C39.6609 39.4523 39.1281 39.1846 39.0393 39.1846ZM41.8809 54.5371C41.7921 54.2693 41.7033 53.823 41.3481 53.823C41.2593 53.823 41.1705 53.9123 41.0817 53.9123C40.9929 54.0015 40.9929 54.0908 40.9929 54.18C40.9929 54.2693 41.1705 54.7156 41.2593 54.8941L41.5257 54.9834C41.7033 54.8941 41.7921 54.7156 41.8809 54.5371ZM37.8848 38.9168C37.8848 38.8275 37.796 38.7383 37.7072 38.649C37.352 38.5598 36.908 38.3812 36.5528 38.292C36.464 38.3812 36.3752 38.4705 36.3752 38.5598C36.5528 38.7383 36.6416 39.1846 36.908 39.1846C37.1744 39.1846 37.5296 38.9168 37.8848 38.9168ZM21.19 16.8699L21.2788 17.0484C21.4564 16.9592 21.5453 16.8699 21.6341 16.6914C21.6341 16.5129 21.7229 16.3343 21.9005 16.1558L21.9893 15.888C21.9005 15.7095 21.7229 15.6203 21.5452 15.6203H21.4564C21.2788 15.6203 21.19 15.7988 21.19 15.9773C21.19 16.3343 21.2788 16.5129 21.19 16.8699ZM35.2208 30.9728C35.3096 30.8835 35.4872 30.7942 35.4872 30.705C35.4872 30.5265 35.132 29.9909 35.0432 29.8124H34.7768C34.688 29.9017 34.688 30.0802 34.688 30.1694C34.688 30.348 34.7768 30.6157 34.7768 30.7943C34.8656 30.9728 35.0432 30.9728 35.2208 30.9728ZM20.8348 5.44478C20.8348 5.26626 20.746 4.64145 20.4796 4.64145C20.2132 4.64145 20.0356 4.99849 20.0356 5.177C20.0356 5.44478 20.2132 5.80182 20.4796 5.80182C20.6572 5.80182 20.746 5.53404 20.8348 5.44478ZM36.02 9.99697C36.02 9.7292 35.8424 9.01513 35.4872 9.01513C35.3984 9.01513 35.3096 9.19364 35.3096 9.2829C35.3096 9.37216 35.3096 9.37216 35.3096 9.37216C35.3096 9.63994 35.7536 10.2648 35.8424 10.4433C36.02 10.354 36.02 10.1755 36.02 9.99697ZM32.2903 43.112C32.3791 43.112 32.5567 43.0227 32.5567 42.9334C32.5567 42.4871 31.9351 42.4871 32.1127 42.1301C32.0239 41.9516 31.9351 41.8623 31.7575 41.8623C31.6687 41.8623 31.5799 41.9516 31.5799 42.0408L31.6687 42.3979C32.2015 42.6657 31.6687 43.112 32.2903 43.112ZM14.6187 41.5946L14.4411 41.416C14.0859 41.3268 13.9083 41.059 13.9083 40.702L13.7307 40.5234H13.5531L13.4643 40.702C13.5531 40.9697 13.4643 40.9697 13.4643 41.2375C13.4643 41.6838 14.0859 41.5946 14.4411 41.6838L14.6187 41.5946ZM17.3716 12.407C17.1939 12.407 17.1051 12.5855 17.1051 12.6747C17.1051 12.764 17.1051 12.8533 17.1051 12.8533C17.1051 13.2103 17.5492 13.3888 17.8156 13.3888C17.9044 13.2995 17.9044 13.2103 17.9044 13.121C17.9044 12.8533 17.5492 12.5855 17.4604 12.407H17.3716ZM19.1476 12.407C19.1476 12.5855 19.2364 12.764 19.3252 12.8533C19.5916 12.8533 19.3252 12.407 20.0356 12.1392C20.1244 12.1392 20.1244 12.1392 20.2132 12.1392H20.302V12.0499C20.2132 11.8714 19.9468 11.8714 19.7692 11.8714C19.6804 11.8714 19.6804 11.8714 19.5916 11.8714C19.5028 11.9607 19.1476 12.2284 19.1476 12.407ZM11.333 44.3616L10.8002 44.6293V44.8079C11.1554 44.9864 11.2442 45.2542 11.5106 45.5219C11.5994 45.4327 11.5994 45.3434 11.5994 45.2542C11.4218 44.9864 11.5994 44.8971 11.5994 44.6293C11.5994 44.4508 11.5106 44.3616 11.333 44.3616ZM35.4872 14.8169C35.6648 14.8169 35.8424 14.8169 35.8424 14.5492C35.8424 14.3707 35.7536 14.1029 35.4872 14.1029C35.3096 14.1029 35.0432 14.1921 35.0432 14.3707C35.0432 14.7277 35.2208 14.8169 35.4872 14.8169ZM22.7885 4.19516C22.9661 4.1059 23.0549 4.01664 23.0549 3.83812C23.0549 3.74887 22.7885 3.48109 22.6997 3.48109C22.5221 3.48109 22.0781 3.92738 22.0781 4.01664C22.0781 4.19516 22.3445 4.19516 22.4333 4.19516H22.7885ZM14.3523 32.3116C14.5299 32.3116 14.9739 31.8654 14.9739 31.7761C14.9739 31.6868 14.8851 31.5976 14.7963 31.5976C14.7963 31.5976 14.7075 31.5083 14.6187 31.5083C14.5299 31.5083 14.0859 31.9546 14.0859 32.0439C14.0859 32.2224 14.1747 32.3116 14.3523 32.3116ZM35.132 4.64145L35.2208 4.55219C35.2208 4.46294 35.2208 4.46294 35.2208 4.46294C35.132 4.28442 35.0432 4.01664 34.7768 4.01664C34.688 4.01664 34.2439 4.28442 34.2439 4.37367V4.46294C34.2439 4.64145 34.4216 4.64145 34.5992 4.64145H35.132ZM15.7731 19.9939C15.7731 20.1725 15.8619 20.5295 16.1283 20.5295H16.2171C16.3059 20.5295 16.3947 20.4402 16.3947 20.351C16.3947 20.0832 16.2171 19.7262 15.9507 19.5477C15.7731 19.6369 15.7731 19.8154 15.7731 19.9939ZM19.3252 27.938C19.3252 27.6702 19.2364 27.4917 18.97 27.4917C18.8812 27.5809 18.7924 27.5809 18.7036 27.6702C18.8812 28.0272 19.0588 27.938 19.0588 28.3843L18.97 28.4735L19.0588 28.652L19.2364 28.5628C19.3252 28.3843 19.3252 28.1165 19.3252 27.938ZM36.1976 6.60514C36.1088 6.33737 36.1976 6.33737 36.1976 6.06959V5.89107L36.1088 5.71256C35.8424 5.71256 35.7536 6.06959 35.7536 6.33737C35.7536 6.51589 35.8424 6.6944 36.02 6.87292C36.1088 6.78366 36.1976 6.6944 36.1976 6.60514ZM36.464 4.99849C36.464 4.90923 36.464 4.81997 36.3752 4.73071C36.3752 4.55219 36.2864 4.55219 36.1088 4.55219L36.02 4.64145C35.8424 4.64145 35.7536 4.73071 35.6648 4.81997C35.7536 4.90923 35.8424 4.99849 35.8424 5.177H35.9312C36.02 5.26626 36.02 5.26626 36.1088 5.26626C36.3752 5.26626 36.3752 5.08774 36.464 4.99849ZM22.3445 9.37216C22.4333 9.37216 22.5221 9.2829 22.5221 9.19364C22.4333 8.92587 22.2557 8.83661 21.9893 8.83661C21.8117 8.83661 21.7229 8.92587 21.7229 9.10439C21.7229 9.2829 21.8117 9.37216 21.9893 9.37216H22.3445ZM36.464 33.2935V33.115L36.2864 33.0257L36.1088 33.115C36.1088 33.3828 36.02 33.5613 36.02 33.829C36.02 34.0076 36.02 34.0968 36.1976 34.0968L36.3752 33.9183C36.3752 33.7398 36.464 33.472 36.464 33.2935ZM36.464 12.8533L36.6416 12.9425C36.8192 12.8533 36.908 12.6747 36.908 12.4962C36.908 12.3177 36.8192 12.0499 36.6416 12.0499C36.5528 12.0499 36.464 12.1392 36.464 12.2284V12.8533ZM13.2867 53.1089C13.1979 53.1982 13.1979 53.1982 13.1979 53.2874C13.1979 53.466 13.2867 53.7337 13.4643 53.7337C13.6419 53.7337 13.8195 53.5552 13.8195 53.466C13.8195 53.3767 13.7307 53.2874 13.7307 53.1982C13.5531 53.1982 13.4643 53.1982 13.2867 53.1089ZM14.5299 21.0651C14.7963 21.0651 14.8851 20.9758 15.0627 20.7973C15.0627 20.708 14.9739 20.4402 14.8851 20.4402C14.7963 20.4402 14.7963 20.4402 14.7963 20.4402C14.6187 20.4402 14.4411 20.6188 14.4411 20.7973C14.4411 20.8865 14.5299 20.9758 14.5299 21.0651ZM17.638 28.652C17.638 28.4735 17.4604 28.295 17.3716 28.2057C17.1939 28.2057 17.0163 28.3843 17.0163 28.5628C17.0163 28.7413 17.1939 28.9198 17.3716 28.9198C17.5492 28.9198 17.638 28.8306 17.638 28.652ZM34.8656 37.3994C34.8656 37.3101 34.688 37.1316 34.688 37.1316C34.5992 37.1316 34.5104 37.2209 34.5104 37.3101C34.4216 37.3994 34.3327 37.4887 34.3327 37.6672C34.3327 37.6672 34.4216 37.7564 34.4216 37.8457H34.5104C34.5992 37.8457 34.5992 37.8457 34.688 37.8457C34.7768 37.6672 34.8656 37.5779 34.8656 37.3994ZM7.33692 55.5189V55.8759C7.42572 55.9652 7.51452 55.9652 7.60332 56.0545C7.69213 56.0545 7.78093 55.9652 7.78093 55.8759C7.78093 55.7867 7.78093 55.7867 7.78093 55.6974C7.78093 55.6082 7.60332 55.3404 7.51452 55.3404H7.42572L7.33692 55.5189ZM21.0124 17.584C21.0124 17.4947 20.9236 17.3162 20.746 17.3162C20.5684 17.3162 20.302 17.4054 20.1244 17.4054V17.584C20.302 17.584 20.4796 17.7625 20.6572 17.7625C20.746 17.7625 20.9236 17.6732 21.0124 17.584ZM15.5067 34.2753C15.5955 34.2753 15.8619 34.2753 15.8619 34.0968C15.8619 34.0076 15.4179 33.7398 15.3291 33.7398C15.2403 33.829 15.2403 33.9183 15.2403 34.0076C15.2403 34.0968 15.4179 34.1861 15.5067 34.2753ZM35.576 37.4887C35.7536 37.4887 36.1088 37.3101 36.1088 37.1316C36.1088 37.0424 36.02 36.9531 35.9312 36.9531C35.7536 37.0424 35.576 37.1316 35.3984 37.1316V37.2209C35.3984 37.3101 35.3984 37.3101 35.3984 37.3994L35.576 37.4887ZM39.0393 24.0998V24.0106C38.9505 23.9213 38.9505 23.8321 38.8617 23.7428C38.6841 23.9213 38.5952 24.0106 38.5952 24.2784L38.6841 24.4569C39.0393 24.2784 38.8617 24.2784 39.0393 24.0998ZM33.3559 30.2587C33.5335 30.2587 33.7999 30.1694 33.7999 29.9909C33.7999 29.9017 33.7111 29.7231 33.6223 29.7231C33.5335 29.7231 33.3559 29.9017 33.2671 29.9017L33.1783 30.1694L33.3559 30.2587ZM37.8848 35.3464C37.8848 35.4357 37.796 35.525 37.796 35.6142C37.796 35.7927 37.8848 35.9713 38.0624 35.9713C38.1512 35.9713 38.24 35.882 38.24 35.7035C38.24 35.6142 37.9736 35.4357 37.8848 35.3464ZM20.1244 14.5492C20.1244 14.4599 20.0356 14.3707 19.9468 14.3707C19.858 14.3707 19.5916 14.5492 19.5916 14.6384C19.5916 14.7277 19.7692 14.9062 19.858 14.9062C19.9468 14.8169 20.1244 14.7277 20.1244 14.5492ZM18.7924 3.12405C18.7036 3.12405 18.7036 3.12405 18.6148 3.21331C18.6148 3.39183 18.8812 3.65961 19.0588 3.65961L19.2364 3.57034C19.2364 3.39183 19.1476 3.21331 18.97 3.12405H18.7924ZM44.4562 54.3585C44.2786 54.18 44.1898 54.0015 44.0122 54.0015C43.9234 54.0015 43.8346 54.0908 43.8346 54.0908C43.8346 54.4478 43.9234 54.5371 44.2786 54.5371L44.4562 54.3585ZM13.3755 28.652C13.4643 28.652 13.6419 28.4735 13.6419 28.3843C13.6419 28.2057 13.5531 28.1165 13.3755 28.1165C13.2867 28.2057 13.1091 28.295 13.1091 28.4735C13.1979 28.5628 13.2867 28.652 13.3755 28.652ZM14.9739 43.2012C14.9739 43.0227 14.7963 42.9334 14.7075 42.8442C14.5299 42.8442 14.5299 42.9334 14.5299 43.112V43.2012C14.5299 43.3797 14.7075 43.3797 14.7963 43.3797C14.8851 43.3797 14.9739 43.2905 14.9739 43.2012ZM28.9158 6.42662V6.24811L28.7382 6.06959L28.5606 6.24811V6.42662C28.5606 6.51589 28.5606 6.60514 28.7382 6.60514H28.827L28.9158 6.42662ZM16.7499 38.649L16.6611 38.4705C16.4835 38.5598 16.3059 38.7383 16.3059 38.9168C16.3059 39.0061 16.3947 39.0953 16.4835 39.1846C16.5723 39.0953 16.7499 38.8275 16.7499 38.649ZM19.2364 5.89107L19.1476 5.98033C19.1476 6.15885 19.5028 6.42662 19.6804 6.51589L19.858 6.42662C19.6804 6.24811 19.3252 6.06959 19.2364 5.89107ZM39.4833 37.2209C39.4833 37.1316 39.5721 37.1316 39.5721 37.0424V36.9531C39.5721 36.7746 39.4833 36.5961 39.3945 36.5068C39.3057 36.5961 39.1281 36.5961 39.1281 36.7746C39.1281 36.7746 39.3945 37.1316 39.4833 37.2209ZM19.858 8.39032L20.0356 8.2118C19.9468 8.12254 19.858 7.94402 19.6804 7.94402L19.5028 8.12254C19.5028 8.30106 19.6804 8.39032 19.858 8.39032ZM14.4411 51.7701C14.4411 51.5915 14.3523 51.5023 14.1747 51.5023L13.9971 51.6808C13.9971 51.8593 14.1747 51.9486 14.2635 52.0378C14.3523 51.9486 14.3523 51.8593 14.4411 51.7701ZM31.2247 15.2632C31.4023 15.4418 31.2247 15.531 31.5799 15.7095L31.6687 15.531C31.5799 15.2632 31.5799 15.2632 31.3135 15.0847C31.3135 15.174 31.2247 15.174 31.2247 15.2632ZM36.02 20.351L35.9312 20.4402C35.9312 20.5295 36.02 20.5295 36.02 20.6188L36.2864 20.708L36.3752 20.6188V20.5295C36.3752 20.351 36.1976 20.351 36.02 20.351ZM8.75775 52.3949C8.93535 52.2163 8.93535 52.1271 9.02415 51.8593L8.84655 51.7701C8.75775 51.8593 8.66895 51.9486 8.66895 52.1271L8.75775 52.3056V52.3949ZM41.3481 42.0408L41.2593 41.8623C41.0817 41.8623 40.9929 42.0408 40.9929 42.1301L41.0817 42.3086H41.1705C41.3481 42.3086 41.3481 42.1301 41.3481 42.0408ZM17.4604 29.3661C17.2827 29.3661 17.1939 29.4554 17.1939 29.6339C17.2828 29.7231 17.3715 29.8124 17.4604 29.8124C17.5492 29.7231 17.638 29.7231 17.7268 29.6339L17.4604 29.3661ZM14.9739 29.6339L14.8851 29.7231C14.9739 29.9909 14.9739 29.9909 15.2403 30.1694V29.9909C15.2403 29.9017 15.1515 29.7231 15.0627 29.6339H14.9739ZM23.0549 8.03328H22.7885L22.6997 8.12254C22.6997 8.2118 22.7885 8.30106 22.8773 8.39032C23.0549 8.39032 23.1437 8.2118 23.2325 8.12254L23.0549 8.03328ZM13.1091 30.1694C12.9314 30.2587 12.8426 30.6157 12.8426 30.7943L12.9314 30.8835C13.1091 30.705 13.1091 30.5265 13.1091 30.2587V30.1694ZM40.1937 37.9349C40.2825 37.9349 40.4601 37.7564 40.4601 37.6672C40.4601 37.5779 40.3713 37.5779 40.2825 37.5779L40.0161 37.7564L40.1937 37.9349ZM15.2403 30.8835C15.1515 30.7943 15.1515 30.7943 15.0627 30.7943C14.8851 30.7943 14.7963 30.8835 14.7963 31.062V31.1513C14.9739 31.1513 15.1515 30.9728 15.2403 30.8835ZM17.1939 5.80182C17.0163 5.71256 16.9275 5.62329 16.8387 5.53404C16.7499 5.53404 16.6611 5.53404 16.5723 5.44478C16.6611 5.53404 16.7499 5.71256 16.9275 5.89107C17.0163 5.80182 17.1051 5.80182 17.1939 5.80182ZM17.0163 19.1014C17.0163 19.0121 17.0163 18.9228 16.9275 18.9228C16.8387 18.9228 16.7499 19.0121 16.7499 19.1014L16.9275 19.2799L17.0163 19.1014ZM36.8192 46.9501C36.7304 46.8608 36.6416 46.8608 36.5528 46.7716L36.464 46.9501L36.5528 47.1286C36.6416 47.0393 36.7304 47.0393 36.8192 46.9501ZM15.4179 19.2799C15.3291 19.2799 15.1515 19.2799 15.1515 19.3691C15.1515 19.4584 15.2403 19.5477 15.2403 19.5477C15.3291 19.5477 15.4179 19.4584 15.5067 19.3691L15.4179 19.2799ZM34.7768 38.4705L34.5992 38.3812C34.5104 38.4705 34.5104 38.5598 34.5104 38.649L34.5992 38.7383C34.688 38.649 34.7768 38.5598 34.7768 38.4705ZM10.1786 55.5189C10.1786 55.5189 10.2674 55.4297 10.2674 55.3404C10.2674 55.3404 10.1786 55.1619 10.0898 55.1619H10.001C10.001 55.3404 10.0898 55.4297 10.1786 55.5189ZM34.2439 19.1906L34.1551 19.1014C34.0663 19.1014 33.9775 19.1906 33.8887 19.2799C33.8887 19.2799 33.9775 19.3691 34.0663 19.3691C34.1551 19.3691 34.2439 19.2799 34.2439 19.1906ZM37.7072 20.6188C37.6184 20.5295 37.5296 20.5295 37.4408 20.4402C37.4408 20.4402 37.352 20.5295 37.352 20.6188C37.352 20.708 37.4408 20.7973 37.5296 20.7973L37.7072 20.6188ZM13.6419 50.3419L13.3755 50.2526L13.2867 50.4312L13.4643 50.5204L13.6419 50.3419ZM35.3984 26.2421C35.3984 26.3313 35.3984 26.4206 35.3096 26.5098L35.3984 26.6884C35.4872 26.5991 35.576 26.5991 35.576 26.4206L35.3984 26.2421ZM24.3869 5.53404C24.2981 5.62329 24.2093 5.71256 24.2093 5.80182L24.2981 5.89107C24.3869 5.89107 24.4757 5.71256 24.4757 5.62329L24.3869 5.53404ZM22.4333 11.9607L22.6109 11.7821L22.5221 11.6036C22.4333 11.6036 22.3445 11.6929 22.3445 11.7821C22.3445 11.8714 22.3445 11.8714 22.4333 11.9607ZM34.2439 21.6006L34.4216 21.4221C34.3328 21.3328 34.3327 21.3328 34.2439 21.3328L34.1551 21.4221L34.2439 21.6006ZM18.1708 41.6838H18.2596L18.4372 41.5053L18.2596 41.416L18.1708 41.5946V41.6838ZM35.6648 28.9198C35.7536 29.0091 35.7536 29.0091 35.8424 29.0091L36.02 28.8306L35.8424 28.7413L35.6648 28.9198ZM34.0663 25.7958L33.8887 25.6172L33.7999 25.7065L33.9775 25.885L34.0663 25.7958ZM32.6455 41.7731H32.5567V41.9516L32.6455 42.0408L32.7343 41.9516C32.7343 41.8623 32.7343 41.8623 32.6455 41.7731ZM27.6726 5.80182L27.7614 5.62329L27.6726 5.44478L27.5838 5.53404C27.5838 5.62329 27.5838 5.71256 27.6726 5.80182ZM34.2439 24.3676L34.4216 24.1891L34.3327 24.0998L34.1551 24.1891L34.2439 24.3676ZM40.8153 38.649C40.7265 38.649 40.6377 38.649 40.5489 38.5598L40.4601 38.7383H40.6377C40.7265 38.7383 40.8153 38.649 40.8153 38.649ZM32.4679 17.4054C32.5567 17.4054 32.6455 17.3162 32.6455 17.2269V17.1377L32.4679 17.3162V17.4054ZM34.5104 17.941H34.4216L34.2439 18.1195H34.3327C34.4216 18.1195 34.5104 18.0303 34.5104 17.941ZM36.3752 3.92738C36.2864 4.01664 36.2864 4.01664 36.2864 4.1059L36.3752 4.19516L36.464 4.01664L36.3752 3.92738ZM20.746 21.8684L20.5684 21.6899L20.4796 21.7791L20.5684 21.9576L20.746 21.8684ZM39.3945 34.1861C39.3057 34.0968 39.3057 34.0968 39.2169 34.0968L39.1281 34.1861L39.3057 34.2753L39.3945 34.1861ZM34.7768 31.4191L34.688 31.5976L34.7768 31.6868L34.8656 31.5976C34.8656 31.5083 34.8656 31.5083 34.7768 31.4191ZM32.2903 21.0651C32.3791 20.9758 32.3791 20.9758 32.3791 20.8865H32.2015C32.2015 20.9758 32.2903 20.9758 32.2903 21.0651ZM13.6419 38.7383L13.7307 38.649L13.6419 38.4705L13.5531 38.649L13.6419 38.7383ZM39.3057 54.9834H39.1281V55.0726H39.2169C39.3057 55.0726 39.3057 55.0726 39.3057 54.9834ZM18.97 31.3298L18.8812 31.2405C18.7924 31.2405 18.7924 31.2405 18.7924 31.3298L18.8812 31.4191C18.8812 31.3298 18.8812 31.3298 18.97 31.3298ZM17.3716 36.0605C17.3716 35.9713 17.3716 35.9713 17.2828 35.9713C17.1939 35.9713 17.1939 35.9713 17.1939 36.0605H17.3716ZM32.3791 11.0681C32.3791 10.9788 32.3791 10.9788 32.2903 10.9788H32.2015C32.2015 11.0681 32.2015 11.0681 32.2903 11.0681H32.3791ZM39.5721 29.0983V29.0091C39.4833 29.0091 39.4833 29.0091 39.4833 29.0983H39.5721ZM14.5299 37.1316L14.4411 37.0424H14.3523C14.3523 37.1316 14.3523 37.1316 14.4411 37.1316H14.5299ZM40.8153 51.6808V51.7701C40.9041 51.7701 40.9041 51.77 40.9041 51.6808H40.8153ZM16.2171 2.94554H16.3947C16.3947 2.85628 16.3947 2.85628 16.3059 2.85628C16.3059 2.94554 16.3059 2.94554 16.2171 2.94554ZM20.6572 41.5053H20.746C20.746 41.416 20.746 41.416 20.6572 41.416V41.5053ZM28.0278 41.416C27.939 41.416 27.939 41.416 27.939 41.5053H28.0278V41.416ZM18.7924 23.9213C18.8812 24.0106 18.8812 24.0106 18.8812 24.0998L18.7924 24.1891L18.7036 24.0998C18.7036 24.0106 18.7036 24.0106 18.7924 23.9213ZM14.8851 27.0454L14.7075 27.2239H14.7963L14.8851 27.1346V27.0454Z" fill="#234C91"></path>
<path d="M85.054 59H60.4558C60.2782 58.8215 60.1894 58.5537 60.0118 58.3752C59.2126 57.4826 58.5022 56.59 57.703 55.6974C56.5485 54.3585 55.4829 53.0197 54.3285 51.6808C54.0621 51.413 54.1509 51.2345 54.1509 50.8775V8.12254C54.1509 8.03328 54.1509 8.03328 54.1509 7.94402C54.1509 7.85477 54.2397 7.49773 54.2397 7.40847C54.6837 6.6944 55.3941 6.06959 55.9269 5.44478C57.4366 3.65961 58.9462 1.78517 60.4558 0H85.054C85.498 0.535551 85.8532 1.0711 86.2972 1.60666C87.8957 3.48109 89.4941 5.26626 91.0926 7.14069C91.359 7.40847 91.4477 7.76551 91.4477 8.12254V17.4054C91.4477 18.0303 91.4478 18.0303 90.8261 18.0303H79.1043C78.4826 18.0303 78.4826 18.0303 78.4826 17.4054V8.30106C78.4826 7.76551 78.4826 7.67625 77.9498 7.67625H67.6488C67.116 7.67625 67.116 7.76551 67.116 8.30106V50.6989C67.116 51.3238 67.116 51.3238 67.7376 51.3238C71.2009 51.3238 74.6642 51.3238 78.1274 51.3238H78.2162C78.5714 51.3238 78.4826 50.9667 78.4826 50.6989V41.5053C78.4826 40.9697 78.5715 40.9697 79.1043 40.9697H90.8261C91.4478 40.9697 91.4477 40.9697 91.4477 41.5946V50.8775C91.4477 51.5915 91.0037 51.9486 91.0037 52.0378C88.8725 54.18 87.1853 56.8578 85.054 59ZM58.8574 32.3116C58.8574 32.3116 58.6798 32.4009 58.591 32.4009C58.591 32.4009 58.5022 32.4902 58.5022 32.5794C58.5022 32.5794 58.6798 32.8472 58.7686 32.9365C58.591 33.115 58.3246 33.115 58.3246 33.3828C58.3246 33.472 58.4134 33.5613 58.5022 33.6505C58.8574 33.6505 59.2126 33.6505 59.3902 34.0076V34.0968C59.479 34.1861 59.5678 34.2753 59.7454 34.2753C60.0118 34.2753 60.0118 34.0968 60.1894 33.9183C60.2782 33.9183 60.5446 34.0076 60.5446 34.1861L60.4558 34.2753C60.0118 34.6324 60.2782 35.0787 60.1006 35.2572C59.6566 35.7035 59.5678 36.239 59.5678 36.8638C59.5678 36.9531 59.5678 37.0424 59.7454 37.0424H59.8342C60.0118 37.0424 60.1894 36.8638 60.1894 36.6853C60.5446 35.882 60.1006 35.9713 61.0774 35.9713C61.5214 35.9713 61.7879 35.4357 61.7879 35.0787C61.7879 34.8109 61.6103 34.7216 61.4326 34.6324C61.3438 34.6324 61.3438 34.5431 61.255 34.5431C60.9886 34.4539 60.811 34.1861 60.811 33.9183C60.811 33.5613 60.9886 33.3828 60.9886 33.115C60.9886 32.7579 60.7222 32.5794 60.367 32.5794C60.1006 32.5794 60.0118 33.0257 59.6566 33.0257C59.5678 33.0257 59.479 32.9365 59.479 32.8472C59.2126 32.5794 59.3902 32.3116 58.8574 32.3116ZM84.3436 11.7821C84.4324 11.7821 84.4324 11.7821 84.4324 11.6929C84.4324 11.6036 84.4324 11.6036 84.4324 11.5144C84.2548 11.2466 83.8996 11.0681 83.5444 11.0681C83.278 11.3359 82.8339 11.4251 82.5675 11.7821C82.5675 12.2284 81.8571 11.6036 81.8571 12.407C81.8571 12.764 82.0347 13.121 82.0347 13.4781C82.0347 13.7458 81.9459 13.9244 81.9459 14.0136C81.9459 14.1921 82.2123 14.1921 82.3011 14.1921C82.9228 14.1921 82.7451 13.4781 83.1004 13.3888C83.278 13.3888 83.3668 13.4781 83.5444 13.4781C83.5444 13.2995 82.8339 13.0318 82.8339 12.407C82.8339 11.7821 83.9884 11.7821 84.3436 11.7821ZM63.6527 6.24811C63.7415 6.15885 63.9191 6.15885 64.0079 6.15885C64.1855 6.06959 64.8959 5.98033 64.8959 5.89107C64.8959 5.53404 64.4519 5.08774 64.4519 4.99849C64.4519 4.90923 64.5407 4.81997 64.6295 4.81997C64.8071 4.64145 65.3399 4.28442 65.3399 4.1059C65.3399 3.92738 65.0735 3.92738 64.9847 3.92738C64.6295 3.92738 63.0311 4.99849 63.0311 5.35552C63.0311 5.80182 63.3863 5.98033 63.6527 6.24811ZM83.1892 5.80182C83.1892 5.71256 83.1892 5.71256 83.1892 5.62329C83.1892 5.53404 82.5675 4.64145 82.3899 4.64145C82.2123 4.64145 82.1235 4.90923 82.1235 4.99849C82.1235 5.26626 82.3011 5.35552 82.3011 5.62329C82.2123 5.80182 81.8571 5.89107 81.8571 6.15885C81.8571 6.6944 82.4787 6.96218 82.6563 7.40847C82.6563 7.49773 82.7451 7.76551 82.9228 7.76551C83.1892 7.76551 83.1892 7.31921 83.1892 7.14069C83.0116 6.78366 82.9228 6.51589 82.4788 6.33737C82.3899 6.24811 82.3011 6.24811 82.3011 6.06959C82.4788 5.89107 83.1892 6.15885 83.1892 5.80182ZM80.8803 5.08774C80.8803 5.26626 80.9691 5.44478 80.9691 5.62329L81.0579 5.80182L81.2355 5.62329V5.35552C81.5019 4.90923 81.6795 4.55219 81.6795 4.01664C81.6795 3.92738 81.6795 3.92738 81.7683 3.92738C81.9459 3.92738 82.0347 4.01664 82.1235 4.01664C82.2123 4.01664 82.3011 3.92738 82.3899 3.92738L82.5675 3.74886L82.3899 3.57034C81.5907 3.57034 81.4131 3.12405 81.2355 3.12405C80.9691 3.21331 80.7027 3.39183 80.6139 3.65961V3.83812C80.6139 4.01664 80.7027 4.19516 80.7915 4.37367V4.55219C80.8803 4.73071 80.9691 4.90923 80.8803 5.08774ZM60.6334 40.4342C60.811 40.4342 60.8998 40.4342 60.8998 40.2557C60.8998 39.6309 60.367 39.8986 59.923 39.8986C59.7454 39.8986 59.479 39.8986 59.479 39.6309L59.5678 39.4523C59.5678 38.9168 60.4558 39.0061 60.2782 38.5598C60.2782 38.5598 60.2782 38.4705 60.2782 38.3812C60.2782 38.292 60.367 38.2027 60.4558 38.1135L60.5446 37.9349C60.6334 37.9349 60.6334 37.8457 60.6334 37.7564C60.6334 37.6672 60.5446 37.4887 60.367 37.4887C60.367 37.4887 60.2782 37.5779 60.1894 37.5779C59.7454 38.0242 60.1006 38.5598 59.3902 38.9168C59.2126 38.9168 59.035 39.1846 59.035 39.3631C59.035 40.2557 60.0118 40.4342 60.6334 40.4342ZM62.8535 13.3888H62.7647C62.8535 13.4781 62.7647 13.6566 62.8535 13.7458C62.9423 14.0136 63.0311 14.2814 63.0311 14.5492L63.2087 14.8169H63.2975C63.9191 14.8169 63.7415 14.3707 63.7415 14.0136C63.7415 13.7458 64.0967 13.5673 64.0967 13.2103C64.0967 12.9425 63.5639 12.8533 63.3863 12.764C63.2975 12.8533 63.1199 12.8533 63.0311 12.8533C62.8535 12.9425 62.7647 13.0318 62.8535 13.2103V13.3888ZM87.8069 12.2284C87.8069 11.9607 87.6293 11.6929 87.5405 11.5144L87.3629 11.6929C87.3629 12.3177 86.5636 12.407 86.5636 12.764C86.5636 13.121 87.0076 13.121 87.1852 13.2103C87.4517 13.2103 87.8069 13.121 87.8957 13.3888C87.9845 13.4781 88.1621 13.5673 88.2509 13.5673L88.4285 13.4781C88.5173 13.3888 88.5173 13.2995 88.6061 13.2103C88.6061 12.9425 88.4285 12.9425 88.2509 12.9425C87.8069 12.9425 87.8069 12.4962 87.8069 12.2284ZM84.3436 7.05144L84.5212 6.96218C84.8764 6.78366 85.5868 6.6944 85.5868 6.24811C85.5868 5.98033 85.4092 5.71256 85.4092 5.44478L85.498 5.177V5.08774L85.4092 4.99849C85.2316 5.177 85.1428 5.177 84.9652 5.35552C84.8764 5.71256 84.8764 5.98033 84.5212 6.15885C84.2548 6.15885 84.0772 6.15885 83.8996 6.42662C83.8996 6.6944 84.0772 6.87292 84.2548 7.05144H84.3436ZM58.9462 28.3843C59.2126 28.1165 59.1238 27.7595 59.5678 27.7595C59.8342 27.7595 60.1894 28.1165 60.1006 28.3843C60.1006 28.4735 60.1894 28.7413 60.2782 28.7413C60.367 28.7413 60.7222 28.2057 60.7222 28.1165C60.7222 27.938 59.7454 27.2239 59.6566 27.2239C59.479 27.2239 58.5022 27.8487 58.5022 28.0272C58.6798 28.295 58.7686 28.2057 58.9462 28.3843ZM62.6759 8.92587L62.8535 9.10439L63.0311 9.01513C63.1199 8.74735 63.3863 8.2118 63.6527 8.03328C63.6527 7.94402 63.7415 7.85477 63.7415 7.85477C63.7415 7.76551 63.1199 6.6944 62.9423 6.6944C62.8535 6.78366 62.5871 6.78366 62.5871 6.96218C62.5871 7.05144 62.6759 7.05144 62.6759 7.14069C62.8535 7.31921 62.9423 7.58699 62.9423 7.94402C62.9423 8.12254 62.8535 8.39032 62.7647 8.56884C62.7647 8.65809 62.7647 8.83661 62.6759 8.92587ZM59.8342 24.5461C59.8342 24.9032 60.367 25.2602 60.7222 25.2602H60.8998C61.0774 25.0817 61.4326 24.9032 61.4326 24.6354C61.4326 24.1891 60.2782 24.2784 60.1006 24.2784C59.8342 24.2784 59.8342 24.3676 59.8342 24.5461ZM58.4134 38.4705C58.591 38.4705 58.7686 38.292 58.7686 38.0242C58.7686 37.6672 58.4134 37.3994 58.0582 37.2209C57.9694 37.3101 57.3477 38.4705 57.3477 38.649C57.3477 38.649 57.4366 38.7383 57.5254 38.7383C57.6142 38.7383 57.703 38.3812 57.9694 38.3812C58.147 38.3812 58.3246 38.4705 58.4134 38.4705ZM76.7954 4.1059C76.7954 3.74887 76.7066 3.30257 76.2626 3.30257C76.2626 3.30257 76.085 3.39183 75.9962 3.39183V3.48109C75.9962 3.65961 76.3514 3.74886 76.3514 4.01664C76.3514 4.28442 75.9962 4.28442 75.8186 4.37367C75.7298 4.46294 75.7298 4.55219 75.7298 4.64145C75.7298 4.73071 75.9074 4.81997 75.9962 4.90923C76.529 4.81997 76.7954 4.73071 76.7954 4.1059ZM59.479 22.8502C59.479 22.5825 58.9462 22.1362 58.6798 22.1362C58.5022 22.1362 58.4134 22.3147 58.4134 22.4039C58.591 22.761 58.8574 22.9395 58.8574 23.3858C58.8574 23.6536 58.9462 23.8321 59.2126 23.9213L59.3902 23.7428C59.3902 23.475 59.479 23.118 59.479 22.8502ZM68.004 3.30257V3.21331C68.004 3.12405 67.9152 3.03479 67.8264 3.03479C67.7376 3.03479 67.56 3.12405 67.4712 3.12405C67.3824 3.21331 67.3824 3.21331 67.2936 3.21331C67.116 3.12405 66.9384 3.03479 66.8496 2.94554C66.7608 3.03479 66.5832 3.12405 66.4944 3.21331H66.4056L66.228 3.39183L66.4944 3.48109C66.5832 3.57034 66.672 3.48109 66.7608 3.57034C67.0272 3.57034 67.116 3.74887 67.2048 3.92738C67.2936 3.83812 67.3824 3.83812 67.4712 3.74886H67.7376C67.9152 3.65961 68.004 3.48109 68.004 3.30257ZM72.8881 3.74886V3.57034C72.8881 3.30257 72.5329 3.21331 72.3553 3.21331C72.1777 3.30257 71.8225 3.48109 71.8225 3.74886C71.8225 4.01664 72.0889 4.37367 72.3553 4.37367C72.6217 4.37367 72.8881 4.01664 72.8881 3.74886ZM73.5985 3.03479C73.4209 3.03479 73.2433 3.12405 73.1545 3.21331C73.1545 3.48109 73.8649 3.74886 74.0425 4.01664L74.2201 4.1059H74.5754V3.83812C74.309 3.30257 74.2201 3.03479 73.5985 3.03479ZM83.278 10.2648C83.278 10.354 83.3668 10.5325 83.4556 10.6218C84.0772 10.6218 83.9884 9.81846 84.3436 9.46142C84.3436 9.2829 84.2548 9.10439 83.9884 9.10439C83.8996 9.10439 83.3668 10.0862 83.278 10.2648ZM60.2782 49.4493C60.367 49.5386 60.367 49.7171 60.367 49.8064C60.367 49.8064 60.4558 49.8956 60.5446 49.8956H60.6334C60.8998 49.8064 61.5215 49.5386 61.5215 49.1815C61.255 49.0923 60.9886 48.9138 60.7222 48.9138C60.4558 48.9138 60.2782 49.1815 60.2782 49.4493ZM62.0543 20.708C62.0543 20.4402 61.6103 19.9939 61.3438 19.9939L61.1662 20.0832C61.0774 20.1725 61.0774 20.1725 61.0774 20.2617C61.0774 20.5295 61.4326 21.1543 61.6991 21.3328L61.8767 21.2436C61.9655 21.0651 62.0543 20.8865 62.0543 20.708ZM58.4134 20.4402C58.4134 20.1725 58.3246 20.1725 58.2358 19.9939L58.0582 20.0832C57.8806 20.351 57.2589 20.708 57.2589 20.8865C57.3478 21.0651 57.6142 21.1543 57.8806 21.1543C57.9694 21.1543 58.0582 21.1543 58.147 21.0651C58.2358 20.8865 58.3246 20.6188 58.4134 20.4402ZM78.8379 4.73071C79.1931 4.73071 79.4595 4.55219 79.5483 4.19516L79.4595 3.92738C79.2819 3.83812 79.0155 3.83812 78.8379 3.74886L78.6602 3.92738C78.6602 4.1059 78.5714 4.37367 78.5714 4.55219C78.6603 4.64145 78.749 4.73071 78.8379 4.73071ZM64.0967 18.5658C64.0967 18.4766 64.0079 18.3873 63.9191 18.3873C63.6527 18.3873 63.2975 18.7443 63.2975 19.0121C63.2975 19.2799 63.5639 19.3691 63.7415 19.5477C63.8303 19.5477 63.9191 19.4584 64.0079 19.3691C64.0079 19.2799 63.9191 19.1906 63.9191 19.0121C63.9191 18.9228 64.0079 18.7443 64.0967 18.6551V18.5658ZM84.4324 45.3434C84.5212 45.4327 84.5212 45.5219 84.61 45.6112C85.054 45.6112 85.1428 45.2542 85.498 45.2542C85.5868 45.1649 85.6756 45.0756 85.6756 44.9864C85.6756 44.8971 85.5868 44.8079 85.498 44.8079C85.1428 44.8079 84.4324 44.8079 84.4324 45.3434ZM58.4134 36.7746C58.5022 36.7746 58.5022 36.8638 58.591 36.8638C58.6798 36.7746 58.7686 36.5961 58.7686 36.5068V36.239C58.7686 36.1498 58.6798 36.0605 58.591 36.0605C58.591 36.0605 58.4134 36.1498 58.3246 36.1498C58.147 36.3283 57.9694 36.5068 57.8806 36.7746V36.9531H57.9694C58.147 36.8638 58.2358 36.8638 58.4134 36.7746ZM58.6798 42.0408C58.591 41.9516 58.4134 41.7731 58.2358 41.7731C58.0582 41.8623 57.8806 41.9516 57.7918 42.1301C57.7918 42.3086 57.8806 42.6657 58.147 42.6657C58.147 42.6657 58.2358 42.5764 58.3246 42.5764L58.6798 42.2194V42.0408ZM87.1852 48.4675C87.0076 48.4675 86.7412 48.5567 86.7412 48.8245C86.7412 48.9138 86.83 49.003 86.9188 49.0923C87.0076 49.0923 87.0964 49.1815 87.1852 49.1815C87.3629 49.1815 87.6293 49.003 87.6293 48.8245C87.6293 48.646 87.3629 48.4675 87.1852 48.4675ZM82.9228 44.9864C83.0116 44.8971 83.1892 44.8971 83.278 44.8971C83.3668 44.8079 83.5444 44.8079 83.6332 44.6293C83.5444 44.5401 83.1004 44.3616 83.0116 44.3616H82.7451C82.6563 44.4508 82.5675 44.5401 82.5675 44.6293C82.5675 44.7186 82.6563 44.8971 82.6563 44.8971L82.9228 44.9864ZM58.591 30.5265L57.7918 30.7943L57.6142 30.9728L57.7918 31.062H57.8806C58.2358 31.062 58.591 30.8835 58.9462 30.8835L59.035 30.7943V30.6157C58.9462 30.6157 58.6798 30.5265 58.591 30.5265ZM85.2316 11.4251C85.3204 11.5144 85.4092 11.6036 85.498 11.6036L85.5868 11.6929C85.7644 11.6036 86.0308 11.6036 86.2084 11.6036C86.2972 11.6036 86.2972 11.5144 86.386 11.5144C86.4748 11.4251 86.4748 11.4251 86.4748 11.3359C86.4748 11.2466 86.4748 11.2466 86.4748 11.1573H86.2084C86.0308 11.1573 85.3204 11.2466 85.2316 11.4251ZM60.8998 51.5915C61.0774 51.413 61.255 51.2345 61.3438 50.9667C61.3438 50.8775 61.255 50.7882 61.1662 50.7882C60.9886 50.7882 60.5446 51.2345 60.5446 51.413C60.5446 51.5915 60.7222 51.5915 60.8998 51.5915ZM62.3207 41.8623C62.3207 41.6838 62.2319 41.5946 62.0543 41.5946C61.7879 41.5946 61.6103 41.8623 61.255 41.8623L61.1662 41.9516L61.3438 42.1301C61.4327 42.1301 61.5215 42.0408 61.6103 42.0408C61.7879 42.0408 61.9655 42.1301 62.0543 42.1301C62.2319 42.1301 62.3207 42.0408 62.3207 41.8623ZM58.8574 35.0787C58.7686 35.0787 58.6798 34.9894 58.591 34.9894C58.3246 34.9894 58.147 35.1679 58.147 35.4357C58.147 35.525 58.2358 35.7035 58.3246 35.7035C58.591 35.7035 58.7686 35.2572 58.8574 35.0787ZM63.5639 17.4947C63.4751 17.3162 63.2975 16.9592 63.1199 16.9592L62.9423 17.0484L62.8535 17.3162C62.9423 17.4947 62.9423 17.6732 63.2087 17.6732C63.2975 17.6732 63.2975 17.6732 63.3863 17.6732L63.5639 17.4947ZM60.5446 41.3268L60.367 41.1483C60.2782 41.1483 59.6566 41.5946 59.6566 41.6838C59.6566 41.7731 59.7454 41.8623 59.8342 41.8623H60.0118C60.2782 41.7731 60.4558 41.5946 60.5446 41.3268ZM60.4558 18.8336C60.2782 18.8336 60.1894 18.9228 60.1006 19.1014C60.1894 19.2799 60.367 19.3691 60.5446 19.4584C60.6334 19.3691 60.7222 19.3691 60.811 19.2799C60.811 19.0121 60.6334 18.9228 60.4558 18.8336ZM84.9652 8.03328L84.8764 7.85477C84.5212 7.85477 84.4324 8.2118 84.4324 8.47957L84.61 8.56884H84.7876C84.8764 8.39032 84.8764 8.2118 84.9652 8.03328ZM84.4324 4.81997L84.61 4.64145L84.5212 4.46294C84.3436 4.37367 84.166 4.37367 83.9884 4.37367C83.9884 4.37367 83.8108 4.37367 83.8108 4.46294C83.8108 4.73071 84.2548 4.81997 84.4324 4.81997ZM65.2511 3.21331C65.1623 3.12405 65.0735 3.03479 64.8959 3.03479C64.8071 3.03479 64.4519 3.12405 64.4519 3.39183C64.4519 3.48109 64.4519 3.48109 64.5407 3.57034L65.0735 3.30257C65.1623 3.30257 65.1623 3.21331 65.2511 3.21331ZM59.035 43.826H58.9462C58.9462 43.6475 59.035 43.469 59.035 43.2905V43.2012C58.8574 43.2905 58.591 43.6475 58.591 43.826C58.591 43.9153 58.7686 44.0938 58.8574 44.0938L59.035 44.0045V43.826ZM60.7222 42.8442L60.8998 42.7549C60.8998 42.5764 60.7222 42.3086 60.5446 42.3086C60.4558 42.3086 60.367 42.3979 60.2782 42.3979C60.2782 42.3979 60.1894 42.4871 60.1894 42.5764C60.1894 42.7549 60.5446 42.8442 60.7222 42.8442ZM60.7222 45.5219L60.8998 45.7005L61.0774 45.6112V45.2542C61.0774 45.0756 61.0774 44.9864 60.8998 44.9864C60.8998 44.9864 60.8998 44.9864 60.811 44.9864C60.7222 44.9864 60.7222 45.1649 60.7222 45.2542V45.5219ZM65.9616 4.19516L65.784 4.37367C65.784 4.64145 65.9616 4.81997 66.228 4.81997L66.4056 4.64145C66.4056 4.46294 66.1392 4.19516 65.9616 4.19516ZM64.0079 11.5144C64.0079 11.3359 63.9191 11.1573 63.8303 11.0681C63.7415 11.0681 63.6527 11.1573 63.6527 11.2466C63.6527 11.3359 63.6527 11.4251 63.6527 11.4251V11.6036C63.7415 11.6036 63.7415 11.6929 63.8303 11.6929L64.0079 11.6036V11.5144ZM81.9459 9.63994L81.7683 9.81846C81.7683 9.99697 82.0347 10.1755 82.1235 10.2648L82.3011 10.1755V10.0862C82.3011 9.90772 82.1235 9.63994 81.9459 9.63994ZM81.9459 45.879V45.9682C81.9459 46.1467 82.3011 46.236 82.3899 46.236L82.6563 46.1467V45.9682L82.5675 45.879H81.9459ZM62.4983 28.1165C62.4095 28.0272 62.4095 27.938 62.2319 27.938C62.1431 27.938 62.0543 28.0272 61.9655 28.1165C61.9655 28.295 62.0543 28.3843 62.2319 28.3843C62.3207 28.3843 62.4983 28.2057 62.4983 28.1165ZM63.3863 41.7731L63.2087 41.9516C63.2087 42.1301 63.2975 42.3086 63.4751 42.3086L63.7415 42.0408C63.6527 41.9516 63.5639 41.7731 63.3863 41.7731ZM60.8998 47.9319C60.8998 47.8427 60.811 47.6641 60.7222 47.5749C60.6334 47.5749 60.4558 47.7534 60.4558 47.8427C60.4558 48.0212 60.5446 48.1104 60.7222 48.1104L60.8998 47.9319ZM62.7647 10.5325C62.8535 10.6218 62.8535 10.711 62.9423 10.8003C63.0311 10.711 63.2087 10.6218 63.2087 10.4433C63.2087 10.354 63.2087 10.2648 63.1199 10.1755C63.0311 10.2648 63.0311 10.2648 62.9423 10.2648C62.8535 10.354 62.8535 10.4433 62.7647 10.5325ZM83.6332 54.8941C83.5444 54.8941 83.4556 54.9834 83.3668 55.0726C83.3668 55.2511 83.4556 55.3404 83.6332 55.3404L83.8108 55.1619C83.8108 55.0726 83.722 54.9834 83.6332 54.8941ZM63.5639 34.4539L63.3863 34.6324L63.6527 34.8109C63.8303 34.8109 63.9191 34.8109 63.9191 34.6324C63.8303 34.5431 63.6527 34.4539 63.5639 34.4539ZM84.61 48.8245C84.61 48.7353 84.5212 48.7353 84.4324 48.7353C84.2548 48.7353 84.0772 48.9138 84.0772 49.003L84.2548 49.1815C84.4324 49.1815 84.61 49.003 84.61 48.8245ZM60.0118 49.1815C59.923 49.0923 59.7454 49.0923 59.6566 49.0923L59.479 49.3601C59.5678 49.4493 59.5678 49.4493 59.6566 49.4493C59.7454 49.4493 59.7454 49.4493 59.7454 49.4493L60.0118 49.3601V49.1815ZM63.1199 3.21331L62.9423 3.30257C62.9423 3.39183 63.0311 3.39183 63.0311 3.48109C63.1199 3.48109 63.2975 3.57034 63.2975 3.57034H63.3863V3.48109C63.3863 3.30257 63.2975 3.21331 63.1199 3.21331ZM87.7181 50.0741C87.6293 50.1634 87.5405 50.1634 87.4517 50.2526C87.4517 50.4312 87.5405 50.5204 87.7181 50.5204L87.8957 50.2526L87.7181 50.0741ZM68.8032 4.01664L68.892 4.19516C69.0696 4.1059 69.0696 3.83812 69.0696 3.65961V3.48109L68.892 3.65961L68.8032 4.01664ZM84.7876 14.1921C84.7876 14.0136 84.6988 13.9244 84.5212 13.9244L84.3436 14.0136C84.4324 14.1029 84.5212 14.2814 84.6988 14.2814L84.7876 14.1921ZM86.6524 6.78366V6.6944C86.5636 6.60514 86.4748 6.60514 86.386 6.60514C86.2972 6.60514 86.2972 6.60514 86.2084 6.6944C86.2084 6.87292 86.2972 6.87292 86.4748 6.87292H86.5636L86.6524 6.78366ZM57.5254 36.6853L57.6142 36.5961L57.5254 36.3283H57.4366C57.3478 36.4176 57.3477 36.4175 57.3477 36.5068C57.3477 36.5961 57.4366 36.6853 57.5254 36.6853ZM85.5868 8.92587L85.6756 8.83661L85.5868 8.65809H85.498C85.498 8.65809 85.498 8.65809 85.4092 8.65809C85.3204 8.65809 85.3204 8.65809 85.2316 8.74735C85.2316 8.92587 85.4092 8.83661 85.498 8.92587H85.5868ZM63.9191 20.1725L63.7415 20.0832C63.6527 20.0832 63.5639 20.1725 63.4751 20.2617C63.4751 20.2617 63.6527 20.351 63.7415 20.351C63.8303 20.351 63.9191 20.2617 63.9191 20.1725ZM87.1852 46.236C87.0964 46.3253 87.0964 46.3253 87.0964 46.4145L87.1852 46.593L87.3629 46.5038L87.1852 46.236ZM60.1006 45.9682C60.0118 45.879 59.923 45.879 59.8342 45.7897L59.6566 45.879C59.7454 45.9682 59.8342 46.0575 59.923 46.0575L60.1006 45.9682ZM58.2358 9.19364L58.0582 9.10439C57.9694 9.19364 57.9694 9.19364 57.8806 9.19364L57.9694 9.2829C58.0582 9.2829 58.147 9.2829 58.2358 9.19364ZM86.9188 8.56884C87.0076 8.47957 87.0076 8.39032 87.0964 8.30106L87.0076 8.2118L86.9188 8.30106C86.9188 8.39032 86.9188 8.39032 86.9188 8.39032V8.56884ZM64.0967 16.2451H64.0079L63.9191 16.4236C64.0079 16.4236 64.0079 16.4236 64.0967 16.5129V16.2451ZM84.61 11.0681L84.6988 10.9788L84.61 10.8896L84.5212 10.9788C84.5212 11.0681 84.5212 11.0681 84.61 11.0681ZM85.8532 49.4493L85.7644 49.3601L85.5868 49.4493L85.6756 49.5386L85.8532 49.4493ZM58.2358 47.7534C58.147 47.6641 58.147 47.6641 58.0582 47.6641V47.7534C58.0582 47.8427 58.0582 47.8427 58.147 47.8427C58.147 47.7534 58.147 47.7534 58.2358 47.7534ZM64.5407 6.78366C64.4519 6.78366 64.4519 6.78366 64.4519 6.87292L64.5407 6.96218C64.5407 6.87292 64.5407 6.87292 64.6295 6.78366H64.5407ZM62.9423 26.8669C62.9423 26.9561 62.9423 26.9561 63.0311 26.9561C63.0311 26.8669 63.0311 26.8669 63.1199 26.8669H62.9423ZM58.0582 39.7201L57.9694 39.6309L57.8806 39.7201V39.8094C57.9694 39.7201 57.9694 39.7201 58.0582 39.7201ZM63.0311 23.2073V23.118H62.9423L63.0311 23.2073ZM85.1428 12.407C85.1428 12.4962 85.1428 12.4962 85.054 12.4962H85.1428V12.407ZM60.5446 35.1679C60.6334 35.1679 60.811 35.2572 60.8998 35.3464C60.8998 35.4357 60.811 35.525 60.7222 35.6142C60.5446 35.6142 60.4558 35.4357 60.367 35.3464L60.5446 35.1679Z" fill="#234C91"></path>
</svg><style>@media (prefers-color-scheme: light) { :root { filter: none; } }
@media (prefers-color-scheme: dark) { :root { filter: contrast(0.3846153846153846) brightness(4.5); } }
</style></svg>