<svg width="856" height="904" viewBox="0 0 856 904" fill="none" xmlns="http://www.w3.org/2000/svg">
<path d="M321.045 141.383C320.785 141.973 320.565 142.593 320.375 143.203C319.655 145.473 317.565 151.803 319.575 153.593C321.115 154.953 324.715 155.613 326.615 156.353L336.295 160.143C340.505 161.793 344.725 163.443 348.935 165.083L359.675 168.973L358.565 154.603C357.365 153.853 356.165 153.103 354.965 152.363C349.455 148.923 343.935 145.493 338.425 142.053C333.655 139.083 326.625 133.223 321.945 139.803C321.595 140.293 321.305 140.833 321.055 141.383H321.045Z" fill="white"/>
<path d="M252.585 835.312L182.126 840.61C182.126 840.61 169.694 851.138 194.437 855.991C219.18 860.843 265.248 886.752 265.248 886.752L293.379 896.312L334.003 879.351V844.038L252.585 835.312Z" fill="white"/>
<path d="M626.345 139.323V139.233L626.315 139.153C626.325 139.213 626.335 139.273 626.345 139.333V139.323Z" fill="#F42222"/>
<path d="M698.175 627.723L690.765 593.993C688.745 594.093 686.425 594.173 685.815 592.323C683.985 555.223 676.835 515.073 660.175 481.643C641.855 444.883 619.785 442.203 586.255 426.173C571.675 419.203 571.295 416.413 560.265 406.723C547.745 395.723 531.845 393.263 518.865 384.913C509.265 378.743 503.295 367.373 492.135 363.253C489.695 361.183 492.085 353.173 492.825 350.143C495.185 340.533 499.915 330.493 503.495 321.243C506.725 320.143 509.955 320.463 513.395 319.353C530.345 313.913 569.205 289.423 577.215 273.543C582.665 262.743 581.245 251.923 584.715 242.523C586.985 236.403 599.735 221.843 604.115 214.513C627.545 175.323 628.915 130.793 598.275 95.0529C589.635 84.9729 578.235 77.2529 569.105 67.9229C556.585 55.1329 550.225 43.5229 533.255 34.6329C509.235 22.0629 487.165 24.1829 463.645 17.3329C456.715 15.3129 450.095 9.24292 443.085 6.29292C410.865 -7.25708 345.415 0.702915 326.685 33.7929C322.445 41.2829 321.015 50.0729 317.165 56.8729C313.895 62.6529 307.485 67.0629 304.305 73.6429C298.645 85.3329 299.205 101.123 305.305 112.513C307.575 116.743 317.795 127.223 318.125 129.343C318.865 134.163 313.615 140.853 311.415 144.953C312.095 146.033 312.775 146.133 313.905 146.383C329.665 149.883 346.835 153.793 358.795 165.183C345.665 159.473 330.705 154.063 316.535 151.653C312.015 150.883 284.595 148.323 282.755 150.383C291.325 170.853 276.195 195.603 292.445 213.233C290.375 220.213 289.395 227.613 288.685 234.833C287.405 247.873 286.135 263.263 285.675 276.273C284.935 297.363 287.085 318.053 288.625 338.993C268.365 341.233 249.065 348.323 229.905 354.833C181.785 371.183 119.685 392.653 87.2552 433.413C53.0653 476.393 47.3052 542.553 30.2352 593.693C25.4352 608.053 14.3653 622.073 22.0153 636.723C16.5853 664.203 9.17525 691.523 4.56525 719.153C0.195247 745.363 -4.44478 777.053 8.22522 801.343C10.8752 806.423 16.9553 811.193 21.0753 814.983C30.6753 823.823 41.7152 831.643 54.1252 835.963C65.5652 839.943 77.8352 839.673 89.7452 838.793C101.995 837.883 112.795 837.213 125.095 838.033C143.215 839.253 161.375 839.703 179.535 839.403C187.565 839.273 196.125 837.983 204.015 839.313C211.905 840.643 219.915 841.553 228.255 841.703C235.575 841.833 245.575 839.743 252.605 841.513C260.645 843.543 266.915 852.823 275.275 854.913L295.265 862.983L321.855 867.643L554.395 874.833L677.705 871.063L706.785 692.833L698.165 627.683L698.185 627.733L698.175 627.723ZM334.565 64.4229L320.295 86.1929C321.375 70.6429 333.625 56.1829 348.925 52.6229L334.565 64.4229ZM406.205 69.4029C404.225 68.5129 405.525 64.4229 404.985 62.2229C402.885 53.6729 397.175 44.6229 389.095 40.5829C387.515 39.7929 376.095 35.8229 375.095 35.8229H359.295C358.735 35.8229 355.045 38.4429 354.855 35.8229C366.885 32.0729 377.405 30.2529 389.395 35.3329C395.885 38.0829 406.195 46.4829 406.195 54.0829V69.3929L406.205 69.4029ZM421.995 63.4629L417.825 48.3929C415.455 42.5329 412.085 37.3729 407.115 33.4229L397.325 27.9129C415.665 28.6629 426.265 46.1329 421.995 63.4629ZM583.945 195.833L582.095 188.313C582.775 175.113 576.325 165.003 567.165 156.333C584.545 160.573 586.955 180.703 583.945 195.833ZM554.855 117.773C568.565 128.863 590.135 135.733 591.855 156.323L586.345 147.523C574.235 131.623 548.465 126.843 542.495 105.953C546.965 109.573 550.345 114.133 554.855 117.783V117.773ZM550.375 146.463C550.065 147.963 546.075 149.203 544.885 149.353C516.675 152.993 500.285 130.303 497.065 104.963L506.135 124.023C516.065 140.213 531.175 148.683 550.375 146.453V146.463ZM462.505 51.6329C481.635 45.2329 497.055 55.3229 505.805 72.0129C514.445 88.4929 515.325 107.473 521.735 124.723C502.335 102.543 510.185 59.5829 473.615 52.8429L462.505 51.6329Z" fill="#F42222"/>
<path d="M615.485 108.863V108.843C615.485 108.843 615.485 108.853 615.495 108.863H615.485Z" fill="#F42222"/>
<path d="M626.345 139.323V139.233L626.315 139.153C626.325 139.213 626.335 139.273 626.345 139.333V139.323Z" fill="#F42222"/>
<path d="M334.565 64.4231L320.295 86.1931C321.375 70.6431 333.625 56.1831 348.925 52.6231L334.565 64.4231ZM406.205 69.4031C404.225 68.5131 405.525 64.4231 404.985 62.2231C402.885 53.6731 397.175 44.6231 389.095 40.5831C387.515 39.7931 376.095 35.8231 375.095 35.8231H359.295C358.735 35.8231 355.045 38.4431 354.855 35.8231C366.885 32.0731 377.405 30.2531 389.395 35.3331C395.885 38.0831 406.195 46.4831 406.195 54.0831V69.3931L406.205 69.4031ZM421.995 63.4631L417.825 48.3931C415.455 42.5331 412.085 37.3731 407.115 33.4231L397.325 27.9131C415.665 28.6631 426.265 46.1331 421.995 63.4631ZM583.945 195.833L582.095 188.313C582.775 175.113 576.325 165.003 567.165 156.333C584.545 160.573 586.955 180.703 583.945 195.833ZM554.855 117.773C568.565 128.863 590.135 135.733 591.855 156.323L586.345 147.523C574.235 131.623 548.465 126.843 542.495 105.953C546.965 109.573 550.345 114.133 554.855 117.783V117.773ZM550.375 146.463C550.065 147.963 546.075 149.203 544.885 149.353C516.675 152.993 500.285 130.303 497.065 104.963L506.135 124.023C516.065 140.213 531.175 148.683 550.375 146.453V146.463ZM462.505 51.6331C481.635 45.2331 497.055 55.3231 505.805 72.0131C514.445 88.4931 515.325 107.473 521.735 124.723C502.335 102.543 510.185 59.5831 473.615 52.8431L462.505 51.6331Z" fill="#F42222"/>
<path d="M615.485 108.863V108.843C615.485 108.843 615.485 108.853 615.495 108.863H615.485Z" fill="#F42222"/>
<path d="M318.975 120.043C318.375 119.113 317.745 118.203 316.985 117.353C315.285 115.443 313.625 113.483 312.085 111.433C309.105 107.473 305.225 102.273 305.315 97.0531C305.465 88.4931 307.605 75.9531 315.405 68.4631C323.205 60.9731 325.345 47.6631 331.765 36.5031C338.185 25.3431 354.545 15.7031 365.405 12.4931C376.265 9.28307 392.015 4.54308 411.275 5.61308C430.535 6.68308 444.765 14.3331 444.765 14.3331C444.765 14.3331 457.765 24.4231 473.055 25.8031C488.345 27.1831 513.575 31.7631 520.765 35.5931C527.955 39.4231 533.645 39.4131 550.365 56.3931C567.085 73.3731 556.085 70.4631 590.185 97.0631C624.285 123.663 620.345 192.193 589.285 219.333C589.285 219.333 579.555 231.553 578.925 237.353L578.095 243.583C578.095 243.583 577.055 228.033 568.365 223.893C559.675 219.753 540.365 220.163 523.715 231.973C507.065 243.783 500.015 257.243 507.265 222.033C514.515 186.823 503.745 168.803 503.745 168.803C503.745 168.803 479.925 147.053 479.095 126.133C478.265 105.213 482.405 82.8431 464.805 72.2831C455.155 66.4931 442.835 67.1331 432.205 69.3131C428.495 70.0731 424.645 70.9531 421.115 72.3431C415.255 74.6631 410.365 75.1331 404.055 74.2331C401.325 73.8431 398.575 73.3731 396.065 72.2331C389.585 69.2731 383.455 65.5831 376.545 63.4431C363.845 59.5231 351.385 69.6731 343.865 78.7131C338.215 85.4931 333.875 93.2531 329.685 101.013C326.195 107.503 323.505 115.953 323.205 123.353C323.185 123.883 323.065 124.553 322.555 124.663C322.115 124.753 321.745 124.353 321.485 123.993C320.545 122.693 319.795 121.363 318.965 120.063V120.043H318.975Z" fill="#F42222"/>
<path d="M282.275 346.143C282.275 346.143 192.705 368.493 142.305 398.573C120.735 411.453 103.425 427.073 87.4151 446.283C72.2051 464.533 65.6351 494.983 61.2851 518.003C56.7351 542.063 48.9151 565.823 40.1351 588.733C32.8051 607.843 26.9051 628.643 36.7551 648.053C50.0251 674.213 70.3051 696.373 93.2851 714.603C116.265 732.833 141.955 747.343 168.085 760.683C173.795 763.603 179.565 766.473 185.695 768.353C193.355 770.693 201.395 771.433 209.365 772.143C225.215 773.573 241.275 774.993 256.955 772.253C266.005 770.673 274.775 767.733 283.305 764.313C296.505 759.023 309.235 752.583 321.315 745.083C332.005 738.443 334.765 731.053 338.035 719.863C340.825 710.323 343.605 700.783 346.395 691.253C352.305 671.023 358.215 650.783 364.125 630.553C364.955 627.703 365.795 624.853 366.625 622.003C366.625 622.003 374.345 596.873 393.385 597.093C412.425 597.313 430.155 596.443 430.155 596.443L415.935 564.733C415.935 564.733 402.725 545.043 398.825 538.483C394.925 531.923 387.715 513.133 387.715 513.133C387.715 513.133 380.815 494.643 361.605 489.573C342.395 484.503 321.985 453.783 321.985 453.783L309.375 438.233C309.375 438.233 306.005 449.903 297.485 450.203C288.965 450.503 259.255 450.033 256.245 424.013C253.235 397.993 257.185 379.803 262.575 370.853C267.955 361.903 280.865 350.273 280.865 350.273L282.275 346.153V346.143Z" fill="#F42222"/>
<path d="M140.555 723.323C116.305 711.943 83.2951 701.143 59.4851 718.803C58.3751 719.623 57.0251 718.783 57.6251 721.343C102.505 705.073 139.215 740.133 177.855 754.683C196.835 761.833 216.965 764.603 237.145 765.173C242.745 765.333 249.255 762.523 254.835 760.833C261.685 758.753 268.505 756.573 275.375 754.533C285.645 751.483 298.885 746.153 309.805 748.063C313.435 748.693 324.965 752.873 327.225 755.453C329.805 758.393 323.835 768.523 324.245 772.713C320.625 771.353 317.575 769.173 313.905 767.753C308.865 765.803 302.995 763.903 297.585 763.833L320.145 782.293L313.885 803.313C303.315 789.483 289.465 777.993 270.925 779.633C273.045 782.463 277.285 782.793 280.325 784.543C287.195 788.483 295.415 795.813 300.515 801.883C302.255 803.953 309.325 813.403 309.935 815.253C311.455 819.873 304.935 829.493 305.475 834.943C303.975 835.353 303.835 834.553 302.995 833.973C296.345 829.373 288.715 819.703 282.245 814.233C273.065 806.463 262.355 799.983 250.185 798.403C249.585 800.963 250.945 800.123 252.045 800.943C270.065 814.343 284.285 829.003 299.615 845.273C302.165 848.833 297.915 852.633 298.565 856.683C272.245 853.663 257.475 824.203 230.435 822.593L238.325 830.513C238.685 832.473 237.985 831.723 237.085 832.193C230.915 835.443 213.675 835.153 206.495 833.693C194.575 831.273 182.025 816.923 184.015 804.323C176.455 809.863 179.565 819.543 182.045 827.033C160.355 829.263 117.035 825.173 116.875 826.043C72.1351 823.513 39.7551 830.003 16.6551 790.473C7.55505 774.903 10.4851 751.453 18.5951 705.513C23.4351 678.103 29.8851 650.873 36.1351 623.773C76.7351 617.493 124.955 623.063 155.915 652.233L140.565 723.313H140.555V723.323Z" fill="white"/>
<path d="M554.745 284.173C547.945 290.093 542.115 291.643 534.855 296.383C525.815 302.293 517.385 313.253 504.925 309.963C495.285 307.423 496.145 296.363 495.585 288.703C491.365 297.803 487.855 304.393 481.655 312.303C468.395 329.203 443.315 348.673 423.355 356.723C414.065 360.473 403.945 361.373 394.835 365.613C379.175 346.073 350.645 314.543 322.485 324.973C314.875 327.793 307.815 335.063 301.545 340.073C293.965 299.273 297.315 257.843 297.585 216.603L324.245 221.553C308.565 239.453 322.265 260.263 344.985 256.103C338.415 249.463 325.995 245.123 327.615 233.383C328.625 226.043 347.455 202.003 352.705 194.183C359.545 183.993 363.075 168.283 378.375 180.723C378.875 194.903 374.285 210.043 378.615 223.953C384.295 242.183 424.745 249.923 440.835 245.793C447.305 244.133 450.925 238.773 453.985 233.263C457.045 227.753 462.995 207.823 464.985 205.743C471.065 199.383 497.205 211.193 499.515 216.613C502.695 224.073 487.165 257.883 507.355 255.073C514.195 254.123 517.965 244.363 523.815 239.893C526.185 238.073 529.195 236.373 531.945 235.183C575.875 216.233 584.055 258.633 554.755 284.173H554.745ZM362.755 261.023C368.825 262.763 377.445 266.423 381.965 260.003C387.585 252.023 381.155 245.243 379.535 237.333C378.105 237.523 377.895 238.693 377.645 239.873C376.265 246.503 377.315 256.883 368.955 258.833C366.495 259.403 361.965 257.753 362.765 261.033L362.755 261.023ZM551.375 274.863C559.295 268.643 572.135 244.833 557.245 239.843C540.545 234.253 518.845 255.593 520.255 271.893C522.915 270.563 524.905 264.293 527.985 265.093C534.035 266.663 528.445 276.013 524.625 278.253C521.735 279.943 509.775 282.183 510.975 287.033C513.495 297.153 536.945 280.183 540.495 275.363C545.685 268.303 544.645 255.173 534.575 253.643C542.775 247.243 558.155 243.393 557.295 258.553C556.955 264.493 553.695 269.653 551.365 274.883V274.863H551.375ZM366.705 257.073C363.025 246.443 354.075 241.173 343.005 244.243L343.615 247.273C348.025 247.913 363.645 259.293 366.705 257.063V257.073ZM390.405 303.503C388.215 291.313 385.075 298.223 378.515 296.153C371.355 293.893 361.895 283.123 352.945 281.233C347.615 280.113 344.085 282.233 340.615 281.793C338.445 281.513 335.035 278.063 332.525 276.953C321.655 272.153 317.925 279.203 307.455 279.813C308.065 288.773 321.065 286.693 327.455 287.963C343.495 291.153 362.225 299.493 378.215 301.483C380.215 301.733 381.945 300.523 383.775 300.743C385.435 300.943 389.365 304.373 390.405 303.513V303.503ZM352.875 310.443L318.315 305.503C321.475 322.323 344.255 322.483 352.875 310.443Z" fill="white"/>
<path d="M431.675 493.963L418.575 502.083L400.295 519.833C397.835 515.243 395.885 510.163 393.175 505.713C391.165 502.403 384.645 491.953 382.415 489.813C377.775 485.353 364.645 480.533 357.905 475.803C341.795 464.483 323.625 444.993 314.205 427.653C310.285 420.433 308.695 412.633 305.205 406.033C299.585 395.433 286.015 395.083 277.335 387.483L281.595 399.023L286.725 405.233C282.945 407.773 278.055 408.383 274.285 410.093C273.125 410.623 272.495 409.623 272.895 412.153C283.075 414.733 290.165 415.933 288.605 428.373C286.875 442.153 272.725 441.613 267.475 429.923C261.095 415.723 261.705 392.833 267.245 378.353C268.815 374.253 270.535 369.513 275.425 368.753C292.245 366.133 315.725 375.083 331.155 381.533C332.175 380.463 323.515 372.093 322.305 371.133C311.445 362.573 293.365 359.433 279.815 358.803C284.315 348.223 289.815 349.433 300.095 349.883C316.945 350.613 335.825 354.903 351.895 359.793C344.795 348.783 329.725 343.523 317.335 341.023C328.575 331.193 335.455 330.243 348.625 336.903C399.885 362.803 403.415 428.283 441.695 466.133C434.755 474.333 431.075 483.013 431.675 493.953V493.963Z" fill="white"/>
<path d="M500.995 204.733C493.035 199.133 483.885 194.843 475.005 190.733C449.125 178.733 421.585 167.803 392.385 170.153C392.545 168.563 396.625 168.303 397.825 168.203C417.525 166.543 442.605 173.013 461.035 180.033C467.915 182.653 475.285 185.773 481.255 189.933C481.915 181.703 473.705 172.783 468.405 166.743C463.415 161.073 456.975 153.803 449.695 151.873C439.195 149.093 407.535 150.503 396.945 153.493C391.875 154.923 388.525 157.003 388.395 162.803C388.345 165.093 390.565 170.053 388.855 171.263C380.735 173.843 373.585 166.293 364.845 168.093C362.945 162.213 363.485 155.363 362.145 149.563C359.885 139.743 344.135 132.393 335.165 130.123C331.965 129.313 328.395 130.673 326.275 128.213C332.205 115.703 338.695 101.503 346.175 89.8627C351.255 81.9627 357.125 74.5227 366.505 71.6727C382.635 66.7627 391.855 79.5627 405.835 81.1727C422.025 83.0327 436.755 72.7027 454.305 79.1227C476.505 87.2327 468.325 112.973 471.655 130.913C476.075 154.723 499.775 166.843 502.015 189.443C502.545 194.803 500.715 199.493 501.015 204.763L500.995 204.733Z" fill="white"/>
<path d="M436.815 593.942L422.265 559.712C426.705 544.822 441.865 537.222 454.345 529.892C456.485 529.432 465.095 534.452 468.355 535.222C475.715 536.962 490.465 536.162 496.965 532.102C499.055 530.792 501.275 526.842 503.465 526.732L560.255 593.932H436.815V593.942Z" fill="white"/>
<path d="M475.275 401.723C470.205 420.843 456.405 436.463 443.235 450.673C430.395 436.943 422.335 419.643 414.375 402.773C438.585 380.463 464.135 359.683 486.185 335.123C486.185 335.123 474.545 397.443 475.275 401.723Z" fill="white"/>
<path d="M394.095 178.293C409.245 175.753 432.435 180.273 446.365 186.773C452.615 189.693 457.665 191.683 458.335 199.583C458.775 204.753 447.325 232.713 443.245 236.353C434.035 244.553 406.825 237.703 396.635 232.573C388.765 228.603 384.415 224.183 383.495 215.093C382.935 209.563 384.145 185.973 386.955 182.033C388.315 180.123 391.795 178.683 394.085 178.303H394.095V178.293ZM451.615 209.673C456.015 206.263 443.945 194.943 441.255 192.883C433.565 186.973 416.045 180.763 406.915 185.203C405.305 185.983 399.455 191.773 398.295 193.373C397.495 194.483 394.485 200.063 397.785 198.793C400.025 197.923 405.935 190.713 408.165 191.903C405.905 201.013 415.165 208.223 423.365 203.633C427.485 201.323 426.445 197.973 426.945 194.363C427.095 193.253 426.495 192.333 428.385 192.903C437.375 195.593 443.135 206.243 451.605 209.673H451.615Z" fill="white"/>
<path d="M674.195 555.403C674.055 548.233 672.085 540.573 670.745 533.533C669.545 527.213 668.145 520.923 666.465 514.703C661.645 496.933 654.345 479.323 641.335 465.943C633.955 458.353 625.075 453.023 616.205 447.423C611.925 444.723 606.625 443.283 601.935 441.223C596.715 438.933 591.585 436.453 586.555 433.783C578.745 429.633 572.265 424.833 565.765 418.913C559.585 413.283 551.305 408.523 543.795 404.883C534.905 400.573 526.175 397.123 518.145 391.343C514.185 388.493 509.825 386.403 506.055 383.213C504.315 381.733 502.665 380.143 501.175 378.413C498.215 374.943 496.665 370.743 491.305 370.803C489.915 370.823 488.495 371.033 487.315 371.763C487.225 371.823 487.145 371.893 487.055 371.953C484.125 388.803 481.415 405.533 481.795 407.773C476.295 428.513 461.385 445.473 447.095 460.903C447.965 462.893 449.545 464.723 451.605 465.183C464.075 463.863 479.005 463.403 488.975 472.313C505.595 486.083 510.825 502.983 505.205 515.493C526.185 540.413 548.865 565.053 566.475 592.023C601.975 596.393 640.655 593.723 676.585 593.253C680.575 582.283 674.415 567.443 674.175 555.393H674.195V555.403Z" fill="#F42222"/>
<path d="M268.955 843.648C268.675 843.307 265.995 843.724 265.595 843.735C251.335 844.108 237.055 844.459 222.795 844.832C210.095 845.161 197.085 844.701 184.435 845.83C181.544 846.094 183.905 848.024 185.375 848.309C189.935 849.165 194.335 851.118 198.775 852.829C205.605 855.461 212.445 858.083 219.275 860.716C235.195 866.837 251.105 872.957 267.025 879.089C275.195 882.237 283.375 885.375 291.545 888.523L294.675 902.893L176.824 853.531C168.434 850.778 166.384 838.953 176.375 837.516C193.245 835.091 212.715 835.618 229.755 835.333C242.985 835.113 259.365 832.404 268.925 843.669H268.945L268.955 843.648Z" fill="#F42222"/>
<path d="M352.865 179.043C344.095 170.253 324.645 161.903 319.305 178.043H323.245C322.035 185.123 328.635 192.343 335.465 188.783C341.005 185.903 339.805 182.893 339.505 178.063C339.355 175.623 342.875 177.833 343.945 178.583C345.215 179.473 348.475 183.373 348.755 184.713C349.325 187.433 337.995 203.533 335.515 206.613C334.575 207.783 329.625 213.893 329.185 214.113C323.175 217.063 308.215 211.563 301.525 210.633C306.055 201.063 313.015 190.633 314.905 180.073C316.115 173.293 313.975 165.823 318.255 159.743C320.465 158.483 341.935 166.473 345.295 168.343C349.115 170.473 354.995 174.313 352.865 179.033V179.043Z" fill="white"/>
<path d="M445.705 523.793C437.485 527.563 428.595 533.783 421.975 540.073C419.925 542.023 416.555 547.683 414.565 548.473C412.875 549.143 413.245 547.803 412.855 547.263C411.465 545.313 404.735 534.423 404.375 532.943C404.135 531.953 404.395 531.593 404.705 530.783C406.405 526.263 429.605 505.643 434.355 504.053L436.995 511.283L445.705 523.793Z" fill="white"/>
<path d="M460.335 470.682C475.955 469.592 495.825 483.232 498.585 499.052C505.105 536.362 454.605 531.592 444.245 502.042C439.415 488.262 443.845 471.842 460.335 470.682ZM458.275 476.612C448.405 478.432 446.015 488.742 447.935 497.372C454.325 526.032 504.785 529.412 492.165 495.592C487.415 482.852 471.665 474.142 458.275 476.602V476.612Z" fill="white"/>
<path d="M295.595 205.713L290.755 193.293C290.755 188.413 290.415 183.443 290.685 178.573C290.865 175.293 292.325 161.753 293.365 159.523C294.985 156.053 304.035 155.773 305.995 158.313C308.975 162.173 306.175 177.883 304.785 182.803C302.655 190.293 297.795 198.103 295.605 205.733V205.713H295.595Z" fill="white"/>
<path d="M172.335 580.963C170.575 581.203 171.385 578.613 171.335 577.353C170.625 559.073 172.065 540.873 170.195 522.623C167.985 501.053 162.325 479.793 153.375 460.213C148.695 449.963 141.905 440.573 138.105 429.863C155.925 447.363 166.565 470.453 171.845 495.053C177.965 523.603 179.995 552.493 172.325 580.953L172.335 580.963Z" fill="white"/>
<path d="M163.275 649.263C161.525 649.513 162.325 646.913 162.285 645.663C161.165 615.353 157.655 588.303 149.915 559.013C146.295 545.313 139.785 531.883 139.135 517.843L147.355 533.703C160.765 569.833 173.905 610.543 163.285 649.263H163.275Z" fill="white"/>
<path d="M594.325 459.893C590.055 466.863 584.115 472.583 579.385 479.203C568.605 494.323 560.925 510.243 555.555 528.193L550.025 557.153C543.205 530.723 557.635 497.123 574.215 476.993C576.075 474.733 592.405 458.093 594.325 459.893Z" fill="white"/>
<path d="M619.505 507.503C600.475 524.303 583.385 543.133 569.155 564.413C574.595 539.163 596.655 517.013 619.505 507.503Z" fill="white"/>
<path d="M297.425 412.343C303.225 423.313 307.645 436.383 292.645 441.803C295.025 436.153 296.175 429.763 295.495 423.643C295.005 419.173 289.565 410.553 297.425 412.353V412.343Z" fill="white"/>
<path d="M521.665 124.463C500.785 98.7227 510.205 52.8427 464.795 51.6827C462.685 51.4527 461.595 51.4427 463.515 50.9027C481.715 45.1227 498.765 56.4128 506.725 73.5828C514.495 89.5928 516.005 107.813 521.695 124.453L521.665 124.473V124.463Z" fill="white"/>
<path d="M591.845 156.323L586.335 147.523C574.225 131.623 548.455 126.843 542.485 105.953C546.955 109.573 550.335 114.133 554.845 117.783C568.555 128.873 590.125 135.743 591.845 156.333V156.323Z" fill="white"/>
<path d="M407.195 68.453C406.585 68.243 406.145 65.433 405.805 64.353C400.675 41.413 379.835 32.723 358.085 35.273C354.785 35.483 355.245 34.703 357.865 33.643C382.545 24.953 412.275 40.413 407.235 68.443H407.195V68.453Z" fill="white"/>
<path d="M550.375 146.463C550.065 147.963 546.075 149.203 544.885 149.353C516.675 152.993 500.285 130.303 497.065 104.963L506.135 124.023C516.065 140.213 531.175 148.683 550.375 146.453V146.463Z" fill="white"/>
<path d="M422.775 62.913C422.525 63.123 422.225 62.663 421.845 61.593C421.065 59.253 419.955 54.983 419.085 52.083C416.395 42.393 409.795 33.923 400.615 29.603C399.865 29.103 397.815 28.143 398.025 27.543C415.055 28.183 426.965 46.833 422.815 62.883L422.775 62.923V62.913Z" fill="white"/>
<path d="M584.545 195.433C584.255 195.383 583.925 194.753 583.635 193.693C583.055 191.573 582.665 188.343 582.425 185.963C581.885 175.013 576.185 165.643 568.725 157.743C568.035 156.863 567.755 156.253 568.025 156.033C568.255 155.833 568.925 155.933 569.875 156.303C583.035 161.803 586.825 177.183 585.595 190.863C585.395 192.133 585.465 194.803 584.585 195.423H584.545V195.433Z" fill="white"/>
<path d="M348.365 52.3831C348.665 52.4831 348.315 52.9631 347.375 53.8031C344.265 56.4731 340.485 59.4631 337.275 62.1331C334.515 64.2831 333.565 65.983 331.475 69.173C328.355 73.913 324.745 79.413 321.695 84.043C320.845 85.323 320.275 86.0131 320.015 85.923C319.545 85.3931 320.155 83.1531 320.365 82.0831C323.475 68.4931 334.645 55.803 348.315 52.373H348.365V52.3831Z" fill="white"/>
<path d="M352.605 309.623L318.045 304.683C321.205 321.503 343.985 321.663 352.605 309.623Z" fill="#F42222"/>
<path d="M362.485 261.203C368.555 262.943 377.175 266.603 381.695 260.183C387.315 252.203 380.885 245.423 379.265 237.513C377.835 237.703 377.625 238.873 377.375 240.053C375.995 246.683 377.045 257.063 368.685 259.013C366.225 259.583 361.695 257.933 362.495 261.213H362.485V261.203Z" fill="#F42222"/>
<path d="M378.235 296.333C371.075 294.073 361.615 283.303 352.665 281.413C347.335 280.293 343.805 282.413 340.335 281.973C338.165 281.693 334.755 278.243 332.245 277.133C321.375 272.333 317.645 279.383 307.175 279.993C307.785 288.953 320.785 286.873 327.175 288.143C343.215 291.333 361.945 299.673 377.935 301.663C379.935 301.913 381.665 300.703 383.495 300.923C385.155 301.123 389.085 304.553 390.125 303.693C387.935 291.503 384.795 298.413 378.235 296.343V296.333Z" fill="#F42222"/>
<path d="M540.225 275.543C545.415 268.483 544.375 255.353 534.315 253.823C542.515 247.423 557.895 243.573 557.035 258.723C556.695 264.663 553.435 269.823 551.105 275.053C559.025 268.833 571.865 245.023 556.975 240.033C540.275 234.443 518.575 255.783 519.985 272.083C522.645 270.753 524.635 264.483 527.715 265.283C533.765 266.853 528.175 276.203 524.355 278.443C521.465 280.133 509.505 282.373 510.705 287.223C513.225 297.343 536.675 280.373 540.225 275.553V275.543Z" fill="#F42222"/>
<path d="M440.985 193.063C433.295 187.153 415.775 180.943 406.645 185.383C405.035 186.163 399.185 191.953 398.025 193.553C397.225 194.663 394.215 200.243 397.515 198.973C399.755 198.103 405.665 190.893 407.895 192.083C405.635 201.193 414.895 208.403 423.095 203.813C427.215 201.503 426.175 198.153 426.675 194.543C426.835 193.433 426.225 192.513 428.115 193.083C437.105 195.773 442.865 206.423 451.335 209.853C455.735 206.443 443.665 195.123 440.975 193.063H440.985Z" fill="#F42222"/>
<path d="M342.725 244.433L343.335 247.463C347.745 248.103 363.365 259.483 366.425 257.253C362.745 246.623 353.795 241.353 342.725 244.423V244.433Z" fill="#F42222"/>
<path d="M394.685 154.213C394.685 154.213 390.315 155.953 389.485 158.213C388.655 160.473 387.915 161.623 388.855 165.643C389.795 169.663 389.465 168.853 389.465 168.853C389.465 168.853 390.695 169.753 393.695 168.923C396.695 168.093 403.525 167.763 407.655 167.993C411.785 168.223 427.545 169.333 443.705 174.263C459.865 179.193 472.145 184.393 475.955 186.653C479.765 188.913 481.245 189.913 481.245 189.913C481.245 189.913 482.765 183.523 472.245 171.153C461.725 158.783 454.715 151.163 444.605 150.973C434.495 150.783 417.595 148.593 394.685 154.203V154.213Z" fill="#F42222"/>
<path d="M311.425 144.973C311.425 144.973 310.765 146.283 320.385 147.873C320.385 147.873 336.035 152.053 339.595 153.543C343.155 155.033 352.415 159.323 355.605 162.263C358.795 165.203 363.845 163.893 363.845 163.893C363.845 163.893 362.735 152.153 362.305 150.403C361.875 148.653 361.395 143.983 352.145 137.643C342.895 131.303 335.145 130.113 335.145 130.113C335.145 130.113 329.585 129.923 328.555 129.553C327.525 129.183 326.245 128.193 326.245 128.193C326.245 128.193 322.955 127.023 320.535 128.193C318.115 129.363 311.415 144.983 311.415 144.983L311.425 144.973Z" fill="#F42222"/>
<path d="M319.305 178.053C319.305 178.053 321.725 170.163 328.475 169.173C335.225 168.183 343.375 171.133 348.115 175.083L352.865 179.043L348.755 184.723C348.755 184.723 347.545 180.663 341.385 176.853C341.385 176.853 339.375 176.453 339.505 178.063C339.635 179.673 342.045 186.563 334.375 189.263C326.705 191.963 321.815 182.363 323.235 178.043H319.295H319.305V178.053Z" fill="#F42222"/>
<path d="M834.855 597.373L391.025 598.813C383.445 598.813 375.985 600.843 367.805 625.373L292.275 887.093C291.525 891.473 291.865 894.583 293.285 896.313C295.515 899.053 301.325 899.423 306.715 899.423H732.085C751.885 899.423 762.815 899.423 771.565 875.673L850.685 612.943C850.355 604.293 843.385 597.373 834.865 597.373H834.855Z" fill="white" stroke="#F42222" stroke-width="9" stroke-miterlimit="10"/>
</svg>
