<svg width="813" height="846" viewBox="0 0 813 846" fill="none" xmlns="http://www.w3.org/2000/svg">
<path d="M136.244 372.041C135.479 369.869 134.025 367.679 134.072 365.517C134.23 358.993 137.101 352.776 142.172 346.15C137.437 348.014 133.354 352.254 130.707 358.881C128.488 364.473 126.773 370.233 124.601 376.589C122.299 368.751 124.918 362.031 126.643 355.237C118.253 359.58 114.096 365.489 110.889 377.829C108.167 373.094 106.405 370.102 117.023 347.128C110.768 350.605 105.837 354.761 104.495 361.565C103.283 367.679 102.929 373.951 102.201 380.019C97.9135 374.147 98.044 364.566 102.91 351.182C92.0316 360.046 87.9954 371.771 86.1311 384.856C81.7686 377.931 84.6117 366.523 93.5883 350.157C90.8851 353.512 87.7624 356.635 85.5905 360.316C83.4505 364.251 81.6871 368.38 80.3238 372.647C78.8323 376.794 77.7604 381.091 76.0265 385.21C74.5164 375.014 77.1172 365.573 81.7593 355.675C69.9023 363.914 69.1845 375.638 68.7091 387.708C65.9127 381.874 65.3254 375.834 65.1297 369.31L58.0732 393.906C56.2928 384.455 57.5606 375.387 60.1706 365.992C58.0826 369.18 55.4259 372.153 54.065 375.601C52.6295 379.264 52.1447 383.383 51.7719 387.354C51.399 391.324 51.688 395.285 51.688 399.19C47.0272 394.223 46.3281 385.704 49.4788 370.456C40.0267 378.015 39.02 385.779 45.8061 398.818C39.514 397.513 36.932 391.911 36.5964 378.863C29.5027 386.645 30.3416 394.549 39.7098 408.277C33.6694 406.842 31.9543 404.671 26.4173 391.445C23.4996 398.901 23.4996 398.901 30.5374 426.209C23.1268 418.138 19.9295 408.324 18.9227 396.18C12.8171 411.297 10.9901 426.004 8.75293 440.702C6.39729 422.922 9.08454 404.837 16.5085 388.509L14.6442 387.941L3.53287 417.374C0.932155 395.052 14.5882 374.026 46.2442 350.847C41.9376 352.711 37.5379 354.435 33.3525 356.569C29.0409 358.689 24.8854 361.112 20.9176 363.82C16.8413 366.655 13.0149 369.832 9.48001 373.318C6.11493 376.682 3.32779 380.634 0 384.157C1.41688 376.925 5.71411 371.295 10.7384 366.244C24.1335 352.757 40.9402 345.376 58.791 339.97C61.1587 339.253 63.545 338.61 65.9127 337.901C66.1643 337.827 66.3601 337.575 67.2456 336.885C46.4866 339.681 26.3613 341.797 7.23352 349.132C23.5649 336.68 43.4291 334.993 62.501 330.193C54.6709 330.734 46.8408 331.125 39.0293 331.843C31.2179 332.561 23.3784 333.446 15.5577 334.257L15.1848 332.71C22.409 330.995 29.5773 328.982 36.8667 327.64C44.324 326.223 51.8837 325.394 59.5181 323.66L31.1526 322.523V321.33C50.5787 317.975 70.1726 318.245 89.9995 318.338L46.123 307.154C64.1975 305.56 81.3492 309.885 98.7338 313.613L53.0582 296.296L53.3752 294.87L102.108 305.7L102.518 304.647L78.9255 291.822L79.4942 290.303C97.028 296.893 115.615 300.229 132.524 308.869C118.029 294.889 100.71 285.932 81.9923 279.194C108.913 281.207 132.571 291.757 154.383 307.21L155.39 306.101L132.795 280.937C142.247 283.816 148.641 290.098 154.505 296.837C160.368 303.575 165.485 310.994 171.777 319.205C166.39 305.551 159.063 294.423 151.969 283.173L152.845 282.288C155.278 284.571 157.87 286.706 160.107 289.166C162.372 291.719 164.483 294.405 166.427 297.21C168.496 300.089 170.37 303.118 173.138 305.719C171.638 302.587 170.053 299.502 168.636 296.333C167.146 293.169 166.011 289.85 165.252 286.435C174.315 296.523 181.554 308.11 186.645 320.678C187.028 309.969 182.702 301.059 174.947 292.316L178.769 292.969L175.702 287.06C181.071 289.679 183.112 294.003 185.881 297.713C187.382 299.707 189.544 301.208 191.409 302.932L192.854 301.646C190.703 298.477 188.547 295.305 186.384 292.13L187.708 290.956L208.066 312.019C206.314 302.811 196.256 293.332 179.253 283.649C183.97 282.409 186.86 283.127 196.75 288.402C193.739 283.872 191.94 279.781 188.929 276.994C185.639 273.947 181.23 272.11 176.243 269.091C184.828 269.025 190.626 272.819 196.517 276.5C194.485 270.573 185.583 262.464 171.824 252.743C174.621 253.386 177.417 253.75 180.074 254.747C182.87 255.81 185.452 257.478 188.799 258.084L175.385 245.268C183.998 245.874 188.491 251.867 194.625 257.021C191.567 248.558 187.587 241.354 180.913 237.048C174.238 232.742 166.501 230.599 159.678 227.728C167.62 224.652 175.842 226.796 184.073 231.782C179.682 221.362 171.302 216.124 161.701 211.707C162.604 211.66 163.51 211.66 164.413 211.707C165.467 211.819 166.501 212.061 168.888 212.49C166.231 210.476 164.619 209.255 163.015 208.025L163.686 207.009C175.898 210.635 183.392 221.67 194.82 228.222C190.989 215.761 185.228 204.856 178.974 194.129C188.827 202.154 194.205 213.207 199.817 225.817V200.224L200.945 200.047C201.532 203.328 202.222 206.571 202.669 209.899C204.039 220.03 205.158 230.207 206.724 240.31C207.357 243.6 208.77 246.691 210.844 249.323C211.596 242.351 212.348 235.386 213.1 228.427L214.358 228.371C215.85 244.467 214.358 261.047 221.694 276.649C222.813 272.716 223.848 269.1 224.873 265.465L225.973 265.707V290.266L233.756 285.429L234.8 286.081C226.775 293.351 223.81 301.748 228.769 312.616C235.229 283.649 242.64 255.679 260.873 232.136L245.828 268.187L246.648 268.522L271.257 242.994L272.842 244.364C262.746 257.413 251.216 269.529 244.327 286.174C251.887 280.517 258.356 275.065 267.417 274.906C252.642 283.434 241.652 294.982 236.366 311.255L237.867 312.718C239.396 310.714 240.841 308.636 242.463 306.707C256.389 290.154 272.04 275.717 292.221 267.031C317.911 255.968 343.08 256.35 367.605 270.675C368.649 271.29 370.765 270.843 372.032 270.2C381.456 265.437 390.88 260.637 401.544 259.351C405.981 258.811 410.502 258.913 414.986 258.689C419.227 258.475 423.515 258.475 427.71 257.897C434.766 256.965 441.785 255.716 448.767 254.318C452.496 253.563 456.094 252.016 459.823 251.168C462.996 250.536 466.217 250.168 469.452 250.068H439.781C444.703 245.632 455.535 244.206 490.919 242.938C484.814 242.305 478.708 241.559 472.584 241.074C466.254 240.571 459.897 240.142 453.549 239.956C447.201 239.77 440.881 239.956 434.906 239.956C435.226 239.443 435.703 239.047 436.267 238.828C441.907 237.3 447.527 235.1 453.279 234.644C470.174 233.347 487.165 234.218 503.839 237.234C505.012 237.318 506.189 237.318 507.362 237.234C477.767 227.066 448.637 231.326 419.479 235.37C436.165 229.033 452.934 223.627 470.981 223.739C451.023 220.235 430.795 221.223 410.633 221.157L410.484 219.545C416.543 218.557 422.602 217.364 428.661 216.628C434.971 215.863 441.329 215.239 447.677 215.099C454.025 214.959 460.41 215.342 466.749 215.808C473.087 216.274 479.351 217.14 485.82 216.74C476.676 215.211 467.569 213.487 458.396 212.219C451.943 211.244 445.431 210.715 438.905 210.635C434.347 210.635 429.714 211.669 425.24 212.732C417.111 214.661 409.076 216.963 401.004 219.088C400.512 219.235 399.994 219.264 399.489 219.175C398.984 219.086 398.507 218.881 398.095 218.576L406.597 213.552L406.373 212.816L393.369 216.973L392.95 216.041L404.285 210.243L400.491 209.022L450.594 197.111L450.454 196.319C444.256 197.251 438.038 198.109 431.877 199.227C420.15 201.371 408.47 203.813 396.725 205.854C394.893 206.081 393.151 206.778 391.667 207.875C390.183 208.972 389.007 210.433 388.252 212.117C386.826 215.115 384.817 217.799 382.342 220.011C383.666 216.376 384.999 212.741 386.555 208.482L370.205 211.902C378.268 204.828 390.275 206.357 394.814 194.996L371.771 200.588L371.417 199.32C383.451 192.041 397.517 189.543 410.363 184.306L409.775 182.544L363.82 196.878L362.981 195.061L390.014 180.512C372.303 182.656 356.158 190 338.801 195.219C342.986 188.844 356.885 182.535 385.707 172.46C380.981 172.46 376.152 171.835 371.566 172.627C366.729 173.621 362.032 175.208 357.584 177.353C353.156 179.357 349.064 182.097 344.832 184.52L343.835 183.327L355.02 171.099L327 179.03L326.469 177.66C337.3 170.54 349.465 166.318 361.89 162.459C357.276 161.35 347.06 162.636 338.316 166.187C330.775 169.281 323.57 173.168 315.562 176.067C317.762 173.746 319.804 171.257 322.199 169.17C324.595 167.082 327.569 165.19 330.272 163.223L329.74 162.142L301.832 173.764L301.319 173.112L316.951 162.245L303.398 166.485L302.652 165.013L320.978 154.509L320.699 153.801L295.53 164.715C298.597 159.076 303.482 156.326 329.2 144.788C324.492 145.478 319.757 146.056 315.068 146.876C310.38 147.696 305.626 148.665 300.946 149.737C296.267 150.809 291.41 152.142 286.647 153.363L286.125 152.291L303.705 143.838L288.791 146.494L288.353 145.72C289.462 144.975 290.658 144.368 291.914 143.912C304.861 140.939 317.716 137.388 330.812 135.328C347.584 132.746 364.682 133.188 381.298 136.633C394.851 139.429 407.398 144.313 417.288 154.705C419.004 156.513 422.331 156.709 424.802 157.892C437.634 164.031 450.445 170.226 463.234 176.477C465.391 177.697 467.609 178.805 469.881 179.795C461.109 169.179 449.196 162.608 436.92 155.394C445.039 154.873 451.433 158.013 473.749 172.665C468.219 164.961 461.36 158.305 453.493 153.009C445.589 147.724 437.46 142.756 429.733 137.164C448.627 142.346 465.061 151.592 478.419 166.113C468.585 145.869 449.709 135.543 431.578 124.405L432.212 123.1L447.434 128.236L447.854 127.695L435.624 118.934C444.013 119.54 450.79 123.818 458.079 127.63C454.276 123.827 450.622 119.829 446.633 116.297C442.32 112.506 437.785 108.977 433.051 105.728C428.493 102.615 423.562 100.052 418.612 97.1437C423.608 96.0812 433.238 99.3712 442.718 106.072C449.867 111.133 456.504 116.902 463.915 121.982C459.329 116.902 455.115 111.394 450.054 106.837C444.992 102.279 438.952 98.5603 433.573 93.5741L445.57 96.659C430.581 85.0368 413.877 80.1531 396.669 76.1827C405.385 73.8806 415.042 76.1082 442.168 85.7918L428.95 76.425L429.35 75.3253C430.935 75.7661 432.491 76.3014 434.011 76.9283C460.484 89.6596 480.06 109.045 491.078 136.642C492.234 139.578 494.676 141.983 496.205 144.807C499.355 150.623 503.783 156.271 504.967 162.515C506.701 171.649 512.424 177.781 517.402 185.144C517.728 183.97 517.942 183.178 518.455 181.332L523.218 186.757L523.358 186.626L508.444 164.51L509.851 163.503L525.782 179.617C523.424 167.762 512.685 162.599 507.726 153.111L514.139 157.883L511.753 149.057C519.052 154.789 521 164.463 531.198 166.681C526.77 161.313 522.808 156.858 519.257 152.114C515.826 147.538 512.806 142.654 509.6 137.91L510.905 136.978L515.025 139.774L502.226 113.258L503.886 112.326L518.129 132.486L519.667 129.13C521.941 141.936 531.244 147.277 540.724 152.431C532.698 145.907 527.879 137.22 523.265 128.198C522.016 125.756 519.005 124.247 516.88 122.215C515.482 120.873 514.242 119.419 512.918 117.946L513.766 116.697L544.052 132.029L544.984 130.575C543.502 129.391 542.095 128.087 540.51 127.033C532.922 122 525.101 117.275 517.737 111.916C514.736 109.726 512.685 106.221 510.196 103.314L511.007 102.382L537.294 118.515C534.703 109.474 526.192 108.496 520.068 104.19C529.846 104.19 537.9 109.409 546.355 113.361C546.541 112.969 546.737 112.587 546.923 112.196L511.184 92.3438C511.408 91.7753 511.632 91.2068 511.865 90.6382L534.143 97.5072L534.414 96.8734L518.511 88.0193L519.266 86.3696L544.555 96.9293L545.04 96.3608L516.926 76.8817C527.683 78.084 536.725 83.061 545.758 88.4853C537.685 75.4371 527.115 64.458 516.675 53.3018C528.056 57.617 536.297 65.8746 544.639 74.1509C539.046 63.5446 530.955 55.0633 522.454 46.7125C529.566 47.7097 534.274 52.8731 539.727 56.6943L540.659 55.7623C536.185 51.2793 531.841 46.6659 527.199 42.36C522.557 38.0541 517.691 34.121 512.452 29.61C520.394 29.7032 532.232 37.8024 548.032 53.395C547.175 47.3369 542.225 37.2805 535.532 31.4461C529.063 25.854 521.55 21.3711 514.848 16.6551C524.039 14.2318 539.634 24.251 552.218 40.1977C551.034 38.0168 550.186 35.5376 548.601 33.6736C538.323 21.7984 526.095 11.7628 512.443 3.99833C511.138 3.2434 509.917 2.35799 508.658 1.53782L509.441 0C515.482 2.84264 521.82 5.30315 527.6 8.63976C533.379 11.9764 538.86 16.2543 545.311 19.74C542.766 14.6512 540.221 9.56245 537.257 3.61621C538.785 4.66006 539.718 4.99559 540.268 5.6946C542.971 9.06848 546.336 12.2187 548.079 16.0399C553.215 27.3639 560.775 37.2059 566.722 47.9893C573.965 61.0934 575.596 75.2134 572.315 89.9299C571.723 92.4645 571.65 95.0928 572.101 97.6563C575.177 113.501 575.335 129.447 574.981 145.431C574.711 157.352 573.853 169.253 573.238 181.519C573.862 180.689 574.394 179.934 574.962 179.217C582.966 169.17 590.974 159.116 598.984 149.057C600.019 147.761 602.591 147.09 600.494 144.397C599.972 143.726 601.426 141.34 602.247 139.839C609.079 126.791 620.629 119.018 633.539 113.184C652.055 104.651 672.203 100.237 692.591 100.247C695.392 100.217 698.161 100.836 700.682 102.055L683.54 104.851C683.54 105.029 683.54 105.215 683.54 105.392L695.798 106.865C695.798 107.359 695.881 107.797 695.928 108.337L670.098 112.578C670.098 113.007 670.163 113.426 670.191 113.855H690.839L690.96 115.448L664.766 119.176C664.766 119.372 664.766 119.577 664.766 119.773H689.487L689.636 121.05C673.323 124.07 656.703 125.98 641.63 133.669C653.18 130.957 664.776 129.205 676.595 130.314L676.791 131.488C670.443 132.942 664.076 134.284 657.775 135.878C652.676 137.174 647.605 138.674 642.628 140.333C640.375 141.264 638.315 142.604 636.55 144.285C645.75 142.57 654.606 139.224 664.216 140.995L630.444 153.223C643.7 150.939 656.843 149.197 670.163 149.243L670.406 150.539C667.609 151.191 664.813 151.862 662.016 152.505C659.22 153.148 656.209 153.577 653.412 154.434C640.539 158.377 627.676 162.347 614.877 166.551C612.743 167.24 610.962 169.02 609.284 170.903C623.323 166.383 637.361 162.692 652.163 162.748C634.266 169.477 615.698 174.473 599.338 184.855C613.321 180.363 627.722 178.891 642.311 178.201C647.717 177.949 652.974 175.125 658.362 173.746C666.913 171.441 675.823 170.777 684.621 171.789C689.478 172.385 694.521 171.341 699.47 171.304C718.71 171.145 734.762 178.555 748.008 192.237C760.126 204.782 768.757 219.601 775.282 235.706C775.662 236.553 775.731 237.507 775.478 238.4L757.469 213.832C759.389 220.831 761.086 226.992 762.782 233.162L761.151 233.879C755.903 222.304 750.422 210.887 739.618 203.272L743.608 208.305L739.199 206.562C745.379 211.222 750.282 216.544 752.743 224.196L740.625 212.396L747.793 228.79L746.6 229.387C739.143 222.593 735.685 211.94 725.711 207.643L732.59 214.41H729.625L737.456 229.62L736.3 230.291C727.743 221.772 721.721 210.448 709.733 205.63C715.755 213.422 721.907 220.98 724.461 230.934L705.874 211.082L705.492 211.464L717.834 233.068L716.221 234.131L701.307 216.218L700.775 216.479C702.018 219.797 703.28 223.121 704.56 226.451L703.991 226.61L686.923 205.173L686.401 205.705C690.922 213.524 695.359 221.39 700.03 229.117C700.719 230.254 702.379 230.925 703.702 231.549C711.243 235.128 718.822 238.623 726.391 242.146C727.323 242.594 728.311 243.386 729.299 243.432C747.942 244.243 762.736 253.312 775.674 265.614C793.618 282.679 805.997 303.174 810.975 327.696C811.882 332.422 812.195 337.244 811.907 342.049C808.178 331.163 804.45 320.271 800.721 309.372L799.444 309.773C800.031 313.948 800.852 318.105 801.15 322.299C801.457 326.56 801.184 330.843 800.339 335.031C799.519 318.416 793.357 302.51 782.768 289.679C787.428 303.044 793.021 316.204 790.477 331.107C789.838 328.435 789.054 325.799 788.128 323.213C783.467 311.786 778.871 300.285 773.651 289.092C772.076 285.699 768.543 283.22 765.448 280.638C773.493 294.274 780.316 308.067 777.51 324.713C773.055 306.744 764.898 290.881 751.876 277.6C756.667 286.762 760.825 296.1 760.387 307.108C759.398 305.402 758.457 303.678 757.413 302.019C751.82 293.137 746.292 284.18 740.411 275.484C738.956 273.341 736.225 272.055 734.081 270.377L732.879 271.439L749.033 292.391L748.101 293.22L739.45 284.991C741.389 291.319 743.011 296.65 744.643 301.972L743.226 302.68L736.523 291.496L735.796 291.776C736.878 295.467 737.962 299.154 739.05 302.839L738.323 303.156L718.552 269.519L717.172 270.302C722.765 280.219 730.353 289.213 732.403 301.422C725.449 296.93 725.589 285.578 714.963 285.746C715.13 287.955 715.289 289.968 715.503 292.773L709.51 282.987L707.953 283.798L710.321 292.186C704.029 287.144 702.295 278.392 693.542 278.206C695.593 282.269 697.646 286.336 699.703 290.406L698.398 291.263L685.348 277.451C685.879 281.692 686.28 284.786 686.663 287.871L685.208 288.56C683.092 284.32 680.454 280.256 679.019 275.801C677.378 270.731 674.237 267.86 670.21 266.481C674.647 275.801 679.289 285.531 684.267 295.989H699.554C684.388 302.792 668.532 300.304 652.611 300.006C659.835 303.734 664.403 311.19 673.202 312.951C681.713 314.647 688.834 319.783 694.94 325.85C700.086 330.976 704.448 336.904 709.519 342.123C712.058 344.558 714.938 346.611 718.067 348.219C724.592 351.844 731.378 355.143 738.043 358.573L737.512 359.831L716.417 352.301C724.275 367.008 731.872 381.696 730.968 399.013C728.693 392.629 726.428 386.235 723.837 378.938C723.147 386.934 722.55 393.85 721.973 400.737H720.276C718.514 388.053 719.12 374.688 710.078 363.606C710.843 374.026 712.213 383.999 709.202 393.747L707.785 393.878C707.468 390.7 707.189 387.522 706.853 384.353C706.523 380.965 705.899 377.613 704.989 374.334L702.752 391.539H701.269C700.169 382.455 699.066 373.364 697.96 364.268L697.513 364.426C696.562 369.9 695.608 375.368 694.651 380.83L693.16 380.737C691.799 370.689 690.444 360.645 689.095 350.605L687.511 350.791C687.958 355.451 688.583 360.018 688.806 364.65C689.03 369.282 688.853 373.858 688.853 378.453L687.296 378.714C685.432 371.258 683.568 363.802 681.853 356.746C679.988 359.859 677.891 362.916 676.26 366.197C675.523 367.67 675.514 369.571 675.411 371.286C675.432 373.75 675.166 376.209 674.619 378.612L671.254 371.994L659.826 376.775C659.826 375.573 659.77 375.312 659.826 375.275C671.459 369.04 669.52 360.214 663.424 351.043C664.356 354.351 665.288 357.66 666.379 361.472L662.883 359.757L660.581 365.302L659.089 365.535C660.171 355.88 656.013 348.312 650.513 341.191C651.306 347.445 652.089 353.662 652.872 359.887H652.154L633.231 319.289L631.563 319.857C633.716 328.246 636.065 336.634 633.576 345.758C631.162 341.098 628.999 337.025 626.837 332.906L625.42 333.334C625.215 335.45 625.01 337.566 624.674 340.986C619.734 333.688 620.992 324.48 613.535 320.128C614.048 323.092 614.57 326.158 615.101 329.215L613.908 329.653L608.697 322.924L607.961 323.259C609.048 327.074 610.136 330.889 611.223 334.704L610.291 335.096C608.688 333.232 607.084 331.452 605.49 329.625L604.698 330.138C604.842 330.857 605.041 331.564 605.295 332.253C609.452 341.256 613.554 350.278 617.87 359.198C618.653 360.813 619.929 362.138 621.514 362.982C633.129 368.574 640.558 377.092 643.616 389.926C648.773 411.644 652.223 433.732 653.935 455.987C654.041 458.621 654.524 461.226 655.37 463.723C657.598 469.445 653.935 474.441 653.869 479.959C650.523 465.745 649.852 450.926 641.817 437.189C643.196 444.645 644.688 451.299 645.545 457.991C646.477 465.056 646.953 472.195 647.354 479.316C647.745 486.222 647.633 493.119 644.911 498.683C643.047 482.885 641.183 466.463 639.318 450.041L638.2 450.227C636.87 458.678 635.54 467.131 634.21 475.587L633.175 475.373L630.379 425.389L628.338 425.324C627.508 438.838 627.219 452.446 621.673 465.084V421.782C618.792 432.65 615.94 443.405 613.097 454.16L611.652 453.881C615.287 432.985 620.768 412.183 615.082 390.849C616.667 409.899 615.642 428.567 607.867 446.266L606.59 446.136C607.529 435.797 608.476 425.464 609.433 415.137L608.79 415.016L603.03 432.724L601.501 432.445C602.554 415.771 605.565 399.088 601.995 382.368C602.275 397.475 600.326 412.117 593.279 425.781C595.349 403.944 597.94 382.172 588.852 361.174C588.852 376.701 589.299 392.247 582.476 406.842C584.042 380.914 583.016 355.348 574.552 330.604L572.949 330.669C573.57 348.824 574.217 366.98 574.888 385.136L573.49 385.257C567.384 367.604 566.284 349.123 564.597 330.613C562.63 347.324 558.212 363.923 564.597 380.82L562.649 381.846C562.47 381.086 562.234 380.341 561.94 379.618C561.475 378.831 560.955 378.077 560.383 377.363C544.061 524.434 511.054 666.883 455.712 803.908C465.742 806.443 475.856 808.633 485.737 811.606C498.414 815.409 510.606 820.395 520.683 829.426C525.344 833.62 528.476 838.616 528.961 845.019H259.568C260.192 834.356 267.566 828.364 275.62 823.582C283.673 818.801 292.529 815.306 301.487 811.028C299.911 808.055 297.991 804.43 296.08 800.776C278.23 766.711 265.776 730.633 255.998 693.539C246.331 656.752 239.909 619.341 235.49 581.613C229.892 533.188 227.712 484.429 228.965 435.697C229.077 431.037 229.562 426.433 229.897 421.801L228.406 421.214C227.474 423.469 225.814 425.687 225.609 427.999C224.938 437.748 225.069 447.571 224.202 457.283C223.587 464.17 221.862 470.955 220.557 477.787C220.195 478.738 219.709 479.637 219.112 480.462V420.198H218.292V455.148L216.092 455.353C214.601 445.94 213.109 436.536 211.571 426.787C205.354 438.121 206.724 450.544 204.505 462.865C203.573 457.954 202.38 453.07 201.942 448.121C201.504 443.172 201.849 438.046 201.849 433.013L199.472 432.789L195.417 458.755C191.381 450.647 192.751 442.026 192.62 432.547C186.44 441.01 186.86 450.255 184.371 459.575C181.397 451.802 182.507 444.719 183.737 437.627C179.952 440.954 176.494 448.904 175.963 457.497C175.515 464.72 175.87 471.981 175.133 479.278C171.572 468.979 169.792 458.494 171.703 447.543C164.022 460.815 164.376 475.504 164.544 491.413C159.007 479.017 157.161 455.335 171.507 434.187L170.445 433.47L161.813 447.18C162.018 445.316 162.148 444.216 162.353 442.305C146.022 461.999 153.218 483.994 153.619 505.179C147.84 488.123 143.906 470.927 148.707 452.856C151.775 445.054 156.486 438.004 162.521 432.184C163.155 431.568 164.022 430.748 164.041 430.012C164.152 423.553 164.106 417.104 164.106 410.645L163.407 410.505C161.468 417.34 159.532 424.175 157.599 431.009C155.157 421.95 157.338 413.348 159.231 404.624C156.086 409.241 153.282 414.082 150.841 419.107C149.527 421.838 148.222 424.914 148.175 427.859C148.054 436.247 148.567 444.589 148.837 452.958C148.045 451.821 146.842 450.787 146.535 449.528C145.528 445.521 144.857 441.429 143.869 436.406C141.324 442.38 139.208 447.394 137.045 452.408L135.712 452.008L143.962 416.367L142.349 415.976C137.773 428.322 134.733 441.184 133.298 454.272L131.667 454.188C131.602 449.165 131.229 444.123 131.536 439.118C131.844 434.113 132.841 429.033 133.345 423.954C127.659 437.785 125.757 452.455 124.023 467.19C119.53 450.88 123.427 435.203 128.237 418.38C114.646 437.216 113.984 457.739 113.788 478.467C108.969 464.571 109.677 450.507 112.39 436.284L110.787 435.996C110.013 439.863 108.922 443.713 108.54 447.627C107.888 454.701 107.608 461.822 107.3 468.933C107.077 474.264 107.039 479.595 107.058 484.926C107.058 486.436 107.524 487.946 106.9 489.829L103.702 483.715C99.5634 491.068 99.3118 492.55 100.272 504.992L96.5433 500.071C93.84 504.554 91.0902 508.823 88.6945 513.269C88.0793 514.415 88.2844 516.232 88.62 517.612C89.375 520.715 90.4843 523.735 91.4164 526.792L90.3817 527.286L84.9473 518.898L78.4222 525.925L77.8349 525.571C77.9609 524.872 78.2002 524.199 78.5434 523.577C83.3999 517.603 83.2041 511.461 79.8857 504.769C78.7298 502.42 78.6739 499.531 77.6951 496.931C73.1835 518.292 72.2606 539.626 76.996 561.034C66.4626 540.167 68.0473 518.199 70.9556 496.157C65.7449 502.373 61.168 521.321 60.9909 539.16C60.8324 554.603 65.4932 568.658 74.0411 581.548C68.1219 577.27 64.5517 571.249 61.662 564.846C55.137 550.428 54.0929 535.246 56.0039 519.755C57.5233 507.5 59.2478 495.262 60.9443 482.475L44.0909 507.015C46.8221 492.009 55.864 480.527 64.9898 469.091L64.1136 468.364L53.3099 479.688C58.6419 461.728 73.8173 453.312 87.7158 443.582C74.9639 448.168 63.4797 454.832 54.009 464.729L52.6854 463.704C54.8107 460.601 56.7962 457.385 59.1079 454.384C61.5781 451.215 64.3466 448.279 66.994 445.241C69.7064 442.279 72.1841 439.109 74.4046 435.763L67.3295 440.749L66.183 439.481C70.0887 435.502 74.097 431.615 77.8629 427.505C81.6573 423.36 85.2145 419.003 88.5174 414.457L83.6143 417.663L82.533 416.628C85.4599 413.497 88.2284 410.197 91.3512 407.308C95.0798 403.832 100.85 401.399 102.602 397.205C105.399 390.392 110.908 387.083 116.1 383.439C122.383 379.04 129.448 375.769 136.16 371.994C138.835 370.373 142.489 369.394 144.037 367.036C148.912 359.58 152.995 351.648 157.907 342.962C154.244 344.966 151.112 346.103 148.688 348.097C141.203 354.258 136.169 361.873 136.244 372.041ZM500.12 355.712L491.339 368.564L496.512 372.414L496.344 373.737C490.192 371.463 485.159 373.178 480.852 377.94L480.172 376.822C481.318 374.595 482.455 372.358 483.63 370.074L481.122 367.921C475.818 373.579 471.13 379.385 465.583 384.194C462.535 386.841 458.974 388.724 457.418 392.722C456.808 392.72 456.199 392.661 455.6 392.545L459.552 369.394C451.862 377.493 451.955 388.873 449.737 399.451L448.478 399.339C448.105 396.441 447.742 393.542 447.267 389.74L430.656 413.152L424.531 415.174C425.062 414.014 425.686 412.898 426.396 411.838C429.539 408.153 431.294 403.484 431.355 398.64C431.527 396.164 431.926 393.709 432.548 391.306C433.881 384.875 435.279 378.462 436.892 370.932C423.786 388.407 420.737 408.762 413.588 427.44C414.622 396.87 421.679 368.835 447.22 348.517C418.733 369.776 409.337 402.657 395.019 432.584C398.058 412.294 405.776 393.682 415.126 374.725L399.279 385.853C399.142 385.438 399.127 384.991 399.238 384.568C399.349 384.144 399.58 383.762 399.904 383.467C405.497 378.304 411.043 373.103 416.683 368.043C418.64 366.309 419.479 364.669 418.416 362.012C415.965 356.01 414.306 349.617 411.313 343.913C406.196 334.164 398.692 326.279 389.874 319.68C399.195 330.473 403.334 342.981 402.71 357.194C398.114 345.367 394.031 333.297 384.411 324.284C385.968 329.504 388.14 334.537 389.687 339.691C391.235 344.845 392.158 350.269 389.753 355.6C386.956 346.765 385.315 337.556 379.387 330.128L377.923 330.538L382.789 344.966L381.652 345.488L366.877 325.636L361.48 328.544L364.622 323.073L361.499 320.463C360.502 322.243 358.647 324.191 359.057 325.03C361.005 328.879 361.107 333.511 365.507 336.373C387.478 350.707 398.925 370.764 397.48 397.447C397.312 400.616 396.921 403.776 396.641 406.945C394.889 399.656 394.59 392.331 393.099 385.257C391.682 378.397 388.988 371.873 386.844 365.153L385.334 365.535C389.706 375.648 389.426 385.723 385.222 395.816L383.181 373.793L382.053 373.914C381.91 376.71 381.773 379.506 381.643 382.302C379.583 378.956 378.651 375.452 377.411 372.05C376.171 368.648 374.708 365.61 373.347 362.394C375.752 372.292 377.83 381.892 373.552 391.744L369.972 370.941L368.882 371.155V389.963C365.218 381.314 361.816 373.262 358.414 365.218L357.304 365.535C358.833 372.376 360.8 379.208 358.05 386.273C354.75 368.052 347.209 353.074 328.463 345.264C341.234 362.32 349.241 379.907 347.545 386.338L331.698 357.445L330.067 358.266C332.267 363.308 334.466 368.359 336.769 373.625L333.18 371.854V384.315C331.62 382.411 330.677 380.077 330.477 377.624C330.123 368.49 325.63 362.003 318.303 356.998C313.549 353.755 308.981 350.176 304.386 346.746C304.134 347.063 303.892 347.38 303.64 347.678L324.231 374.511L323.402 375.182L321.211 374.529L325.005 386.645C316.802 376.664 312.579 363.737 299.548 356.942L301.468 360.148L300.937 360.978L283.571 353.261C287.299 359.198 291.205 365.629 295.241 371.994C295.937 373.007 296.809 373.888 297.814 374.595C312.085 385.192 325.192 396.963 336.154 411.074C337.489 412.788 339.399 413.963 341.532 414.382C347.927 415.128 351.506 419.452 354.769 424.075C360.464 432.146 362.468 441.606 363.96 451.103C366.84 469.511 365.899 487.937 363.811 506.325C363.401 509.941 362.524 513.502 361.862 517.081L359.858 516.876V462.558H358.535C358.535 468.448 358.796 474.357 358.46 480.266C358.148 486.138 357.46 491.985 356.4 497.769C355.356 503.268 353.548 508.609 352.075 514.024L350.919 513.679C351.708 499.531 352.504 485.386 353.305 471.244C349.129 483.062 347.041 495.318 341.113 506.362C343.378 485.579 348.337 465.177 347.563 444.16C346.137 452.222 345.205 460.349 343.62 468.392C342.064 476.212 340.311 484.087 335.231 490.667C337.487 472.363 341.327 454.272 339.426 435.725C338.92 449.825 336.322 463.771 331.717 477.107C330.085 481.841 329.041 486.101 332.975 490.257C334.075 491.413 334.439 493.305 335.035 494.917C339.025 505.505 340.255 516.549 340.358 527.771C340.47 541.35 339.146 554.715 334.14 567.475C332.961 570.09 331.638 572.638 330.179 575.108L328.985 574.586C335.986 552.926 335.716 531.014 331.782 508.972C331.437 519.476 331.987 530.036 331.288 540.502C330.589 550.969 328.92 561.323 323.448 570.625C324.847 553.28 327.019 536.056 324.576 518.674C322.852 530.399 320.848 541.975 316.01 552.945C316.196 532.953 320.745 513.129 316.867 493.128C315.32 506.642 314.248 520.156 308.739 532.888C308.347 514.247 312.029 495.607 307.229 477.172L304.349 520.976H303.221C302.866 519.112 302.503 517.183 302.083 514.965L299.734 518.544C298.923 514.033 299.259 509.774 299.268 505.496C299.386 501.024 299.199 496.549 298.709 492.103C298.159 488.03 296.789 484.069 295.773 480.061L294.645 480.173C293.256 497.033 291.308 513.725 284.839 529.57C284.251 529.094 284.056 528.684 284.093 528.302C285.435 514.573 287.122 500.864 287.961 487.098C288.222 482.755 286.227 478.272 285.267 473.845C283.729 479.698 283.291 485.271 282.387 490.761C281.52 496.054 280.178 501.274 279.05 506.53L277.586 506.288C277.726 488.486 279.917 470.638 276.952 452.902C276.496 460.442 276.486 467.973 276.505 475.504C276.524 483.034 277.53 490.779 274.175 498.972C273.727 496.707 273.466 495.411 272.935 492.736C271.76 497.704 270.903 501.283 270.055 504.853L268.787 504.62C268.787 502.942 268.74 501.255 268.787 499.587C269.132 489.661 269.719 479.735 269.775 469.762C269.775 462.306 267.435 455.251 263.93 448.494C263.166 453.611 263.38 458.662 263.101 463.686C262.861 468.643 262.307 473.58 261.441 478.467C260.509 483.277 259.018 487.974 257.769 492.709L256.734 492.42V460.918L255.615 460.759C254.553 467.125 253.481 473.49 252.306 480.508L249.976 475.606C250.153 497.797 250.712 519.83 252.493 541.779C253.994 560.307 256.417 578.789 259.298 597.159C265.03 633.741 274.26 669.689 286.861 704.508C299.194 738.546 314.369 771.25 334.215 801.643C334.681 802.24 335.272 802.728 335.947 803.073C336.621 803.417 337.363 803.61 338.121 803.637C357.761 802.332 377.374 800.757 397.014 799.471C399.717 799.294 401.675 798.884 403.166 796.442C406.699 790.794 410.754 785.454 414.147 779.731C431.709 750.037 445.551 718.554 458.126 686.53C476.014 640.926 491.581 594.522 503.671 547.045C511.809 515.095 519.704 483.016 525.857 450.637C531.543 420.692 534.824 390.28 539.028 360.055C539.885 353.857 540.128 347.575 540.734 340.352C531.216 349.477 521.913 356.765 509.292 358.061C510.578 356.262 512.452 355.265 513.86 353.811C515.267 352.357 516.097 350.53 517.187 348.862L515.426 347.641L500.157 365.442L498.936 364.669C499.76 362.919 500.422 361.097 500.912 359.226C501.117 358.117 500.353 356.83 499.98 355.628C506.98 350.316 507.437 342.142 509.823 334.807L508.565 334.248C505.775 341.406 502.96 348.56 500.12 355.712ZM448.022 332.141C452.561 329.905 456.802 327.23 461.417 325.701C467.01 323.837 469.806 319.606 472.602 314.88L465.145 318.441C469.694 311.581 476.331 306.753 479.128 298.766C473.88 300.984 468.79 303.342 464.549 306.763C457.949 312.084 451.927 318.124 445.635 323.837C445.533 323.93 445.113 323.679 443.706 323.213L454.975 306.436L454.761 306.045L439.185 318.748L438.299 317.704C444.2 307.779 452.813 300.267 461.351 292.624C448.628 298.947 437.055 307.359 427.113 317.509L448.022 332.141ZM289.033 290.322C296.556 292.242 304.302 294.236 312.048 296.184C313.07 296.487 314.133 296.632 315.199 296.613C320.149 296.315 325.126 295.373 330.039 295.681C339.696 296.259 343.676 288.225 350.733 284.04C331.353 272.53 303.649 274.263 287.784 284.208C306.427 278.364 322.982 281.412 338.27 292.028C321.836 286.37 305.374 283.639 289.033 290.322ZM367.027 272.949C344.422 260.553 311.796 261.225 289.956 275.307C300.312 271.849 310.902 269.855 321.817 270.955C332.938 272.073 343.378 275.242 352.177 282.577L367.027 272.949ZM681.405 296.007C677.583 290.201 674.2 284.823 670.629 279.669C664.767 270.875 656.691 263.78 647.214 259.1C645.83 258.548 644.405 258.102 642.954 257.767C643.793 259.205 644.923 260.453 646.272 261.43C655.538 269.137 664.067 277.749 667.898 289.297C669.828 295.122 672.895 296.11 677.76 296.045C678.842 295.998 679.914 296.007 681.405 296.007ZM424.485 315.878C433.014 303.053 444.312 293.91 456.849 286.053C440.863 291.133 426.601 299.269 412.889 309.643L424.485 315.878ZM403.754 322.523C413.942 334.238 420.728 347.352 420.952 364.622C423.748 360.521 425.902 357.595 427.784 354.51C428.147 353.545 428.127 352.478 427.729 351.527C423.254 339.01 414.995 329.56 403.754 322.523ZM88.7225 469.828C83.9219 482.587 81.2653 495.188 86.2989 509.475C88.3869 504.89 89.8877 501.208 91.7054 497.685C93.3646 494.479 93.3367 491.599 92.2833 488.048C90.5868 482.345 89.9343 476.333 88.7225 469.828ZM638.927 265.036C642.655 270.964 647.484 276.137 649.181 282.213C651.809 291.431 656.871 295.318 665.959 294.87C666.36 294.87 666.752 294.74 667.637 294.591C659.76 282.95 649.964 273.639 638.927 265.036ZM166.222 428.493C167.303 427.747 167.928 427.514 168.245 427.067C171.973 421.792 175.702 416.516 179.43 411.176C179.857 410.365 180.08 409.464 180.083 408.548C180.577 402.956 181.015 397.364 181.472 391.772C172.299 401.958 167.918 414.27 166.222 428.493ZM539.829 225.221L541.694 223.916C540.435 221.483 539.783 218.324 537.825 216.749C525.89 207.247 516.417 195.014 510.206 181.081C509.813 180.436 509.35 179.835 508.826 179.291C508.509 182.441 508.313 185.694 509.712 187.987C513.524 194.371 517.782 200.479 522.454 206.264C527.851 212.89 533.994 218.93 539.829 225.221ZM648.575 292.652C639.868 272.614 625.187 259.668 607.709 262.958L612.295 264.272C626.352 268.252 637.463 275.755 643.802 289.53C644.473 290.946 646.915 291.58 648.575 292.652ZM326.981 482.382L333.05 441.215C328.985 450.945 325.508 460.647 322.069 470.368C320.708 474.068 323.113 480.527 326.944 482.335L326.981 482.382ZM420.784 327.025L432.091 348.741L440.909 338.777L420.784 327.025ZM434.002 191.174C421.371 191.873 407.268 187.055 396.865 200.047L434.002 191.174ZM96.0119 485.625C101.064 475.438 100.402 465.345 99.5355 454.505C94.7677 464.15 93.5213 475.158 96.0119 485.625ZM250.834 430.478V457.618C258.626 449.361 255.671 439.91 250.824 430.478H250.834ZM616.042 274.012C621.486 280.909 627.228 287.526 637.482 290.033C631.759 281.58 624.861 276.612 616.042 274.012ZM258.095 310.621L286.06 301.478C274.156 298.337 265.17 301.469 258.048 310.612L258.095 310.621ZM461.603 382.824L462.778 383.411L475.138 363.839L474.504 363.354L470.132 366.626L469.536 365.973L475.129 359.086L471.53 356.29C468.109 365.349 464.838 374.091 461.556 382.815L461.603 382.824ZM437.945 390.047L439.054 390.84C446.446 381.519 449 370.494 450.604 359.067L449.448 358.648L437.945 390.047ZM203.21 324.601C198.549 309.307 196.852 306.893 189.06 303.389C192.248 309.736 195.277 316.036 198.605 322.16C199.118 323.185 200.973 323.492 203.21 324.601ZM707.45 277.88C700.365 262.24 695.9 256.947 689.906 256.975C697.196 263.126 699.424 272.893 707.403 277.88H707.45ZM627.471 184.324L601.874 191.519C611.615 193.318 620.191 190.979 627.471 184.324ZM669.837 212.033L668.905 212.639C669.649 214.127 670.237 215.689 670.657 217.299C670.834 218.343 669.846 219.554 669.902 220.673C670.079 224.559 673.808 226.33 681.228 225.752C677.248 220.887 673.538 216.479 669.837 212.033ZM694.604 228.651L676.893 206.916L676.045 207.671C679.233 212.713 682.831 217.56 685.46 222.882C687.222 226.479 689.254 228.585 694.604 228.651ZM673.165 358.722C676.455 348.908 674.349 340.315 668.737 338.526C670.219 345.357 671.711 352.04 673.174 358.722H673.165ZM322.619 440.954L320.568 440.879C320.568 448.662 316.495 456.136 318.48 464.077L320.652 464.254C321.28 456.494 321.935 448.727 322.619 440.954ZM282.191 398.221C282.191 402.182 282.601 405.463 282.089 408.604C281.427 412.639 283.44 414.317 286.6 415.817C288.67 409.154 286.656 403.785 282.191 398.221ZM163.891 361.695C173.763 361.202 176.569 352.264 183.057 348.582C175.469 350.698 169.531 355.162 163.891 361.695ZM488.505 209.479L489.68 208.202C488.356 207.009 487.088 204.866 485.69 204.773C479.724 204.39 473.73 204.614 467.737 204.614C467.737 204.996 467.737 205.388 467.737 205.779L488.505 209.479ZM153.405 364.51C157.814 363.513 163.183 357.548 166.147 350.418C160.433 354.1 154.411 356.607 153.405 364.51ZM534.442 135.235L533.64 136.046L547.725 147.817L549.337 146.335C548.135 144.378 547.371 141.74 545.609 140.613C542.188 138.385 538.208 137.006 534.442 135.235ZM495.356 348.806C485.103 355.973 483.005 360.176 487.07 364.985L495.356 348.806ZM183.131 406.591C192.257 402.956 188.594 395.565 190.831 390.383L189.442 389.852C187.494 395.024 185.499 400.197 183.131 406.591ZM294.915 407.718L293.293 407.83C293.135 410.813 294.011 414.475 292.594 416.647C289.583 421.307 293.265 422.37 295.102 424.597L296.425 424.373L294.915 407.718ZM181.472 357.595L182.255 359.412C187.354 356.495 192.509 353.624 197.496 350.567C197.794 350.381 197.235 348.768 197.002 347.38L181.472 357.595ZM679.541 255.782C679.895 264.431 685.404 267.311 691.985 269.175L679.541 255.782ZM316.718 421.204L315.786 421.074C314.49 429.285 313.101 437.477 311.974 445.707C311.731 447.478 312.412 449.37 312.663 451.215L313.763 451.122C314.764 441.162 315.749 431.189 316.718 421.204ZM538.105 332.663L537.257 331.601C530.415 333.763 526.528 338.815 523.89 345.078L524.822 346.01C529.259 341.592 533.687 337.165 538.105 332.729V332.663ZM523.722 219.61C523.918 225.072 528.765 229.76 534.852 230.841C531.552 227.551 527.469 223.431 523.722 219.638V219.61ZM286.172 366.756L287.104 365.778L274.454 354.715C275.098 362.478 282.163 362.87 286.172 366.756ZM630.416 217.979L629.204 220.048C634.126 220.3 634.322 228.632 642.068 225.901L630.416 217.979ZM522.342 328.758L519.788 327.696C518.545 331.722 517.327 335.761 516.134 339.812L517.905 340.492C519.397 336.559 520.876 332.648 522.342 328.758ZM275.62 395.63L274.24 395.882C276.449 399.861 269.7 405.705 278.043 409.023C277.167 404.167 276.393 399.899 275.62 395.63ZM479.761 256.602C487.936 262.147 490.015 262.539 492.933 259.547L479.761 256.602ZM345.829 318.553L344.506 319.68C345.988 322.038 347.377 324.462 349.017 326.708C349.418 327.258 350.621 327.351 351.469 327.369C351.721 327.369 352.345 326.158 352.215 325.99C350.127 323.464 347.945 321.022 345.829 318.553ZM629.018 227.355L619.156 222.863C621.356 226.283 622.847 231.242 629.018 227.355ZM610.636 226.479C609.284 228.818 608.222 230.645 606.618 233.432L615.567 230.878L610.636 226.479ZM656.367 218.538C658.232 221.716 659.248 226.516 665.027 224.82C663.331 222.649 661.727 220.617 659.434 217.7C659.649 219.703 659.723 220.402 659.872 221.763L656.367 218.538ZM403.176 286.724L402.243 284.972L389.734 292.139L390.284 293.155L403.176 286.724ZM325.49 429.965L326.972 430.04C326.636 426.082 326.295 422.115 325.947 418.138L323.859 418.38C324.399 422.239 324.943 426.101 325.49 429.965ZM372.517 320.193L370.942 321.078L376.87 330.119C378.017 324.527 374.419 322.821 372.517 320.193ZM490.705 307.779C486.231 308.31 482.316 309.41 481.505 315.113L490.705 307.779Z" fill="#0F0B30"/>
</svg>
