<svg width="807" height="836" viewBox="0 0 807 836" fill="none" xmlns="http://www.w3.org/2000/svg">
<path d="M311.723 130.338C311.483 130.882 311.281 131.454 311.105 132.016C310.442 134.109 308.515 139.944 310.368 141.595C311.788 142.848 315.106 143.457 316.858 144.139L325.782 147.633C329.663 149.154 333.554 150.675 337.435 152.187L347.336 155.773L346.313 142.526C345.207 141.834 344.1 141.143 342.994 140.461C337.914 137.289 332.826 134.127 327.746 130.956C323.348 128.218 316.867 122.815 312.553 128.881C312.23 129.333 311.963 129.831 311.732 130.338H311.723Z" fill="#F3ECE4"/>
<path d="M248.611 770.075L183.654 774.959C183.654 774.959 172.193 784.665 195.003 789.139C217.814 793.612 260.284 817.498 260.284 817.498L286.219 826.311L323.67 810.675V778.119L248.611 770.075Z" fill="#F3ECE4"/>
<path d="M593.191 128.442V128.359L593.163 128.286C593.172 128.341 593.182 128.396 593.191 128.451V128.442Z" fill="#234C91"/>
<path d="M659.401 578.7L652.57 547.604C650.707 547.696 648.569 547.77 648.006 546.064C646.319 511.862 639.728 474.847 624.369 444.028C607.479 410.139 587.133 407.668 556.222 392.89C542.78 386.464 542.43 383.892 532.261 374.959C520.719 364.818 506.061 362.55 494.094 354.852C485.244 349.164 479.74 338.682 469.452 334.884C467.203 332.976 469.406 325.591 470.088 322.798C472.264 313.938 476.624 304.682 479.925 296.155C482.903 295.141 485.88 295.436 489.052 294.412C504.678 289.397 540.503 266.82 547.888 252.18C552.912 242.224 551.603 232.249 554.802 223.583C556.895 217.941 568.649 204.518 572.687 197.76C594.287 161.631 595.55 120.578 567.303 87.6296C559.338 78.3368 548.828 71.2197 540.411 62.6184C528.869 50.8272 523.005 40.1239 507.361 31.9282C485.217 20.3399 464.87 22.2943 443.187 15.9793C436.798 14.117 430.695 8.52108 424.233 5.80146C394.529 -6.69032 334.19 0.64802 316.923 31.1538C313.014 38.0588 311.696 46.1624 308.147 52.4313C305.132 57.7599 299.223 61.8255 296.291 67.8916C291.073 78.6687 291.589 93.2255 297.213 103.726C299.306 107.626 308.727 117.287 309.032 119.242C309.714 123.685 304.874 129.853 302.846 133.633C303.473 134.628 304.099 134.72 305.141 134.951C319.67 138.178 335.5 141.782 346.525 152.283C334.421 147.019 320.629 142.031 307.566 139.809C303.399 139.099 278.12 136.739 276.424 138.638C284.325 157.51 270.376 180.327 285.357 196.58C283.449 203.015 282.545 209.837 281.891 216.493C280.711 228.515 279.54 242.703 279.116 254.697C278.434 274.14 280.416 293.214 281.836 312.519C263.158 314.584 245.365 321.12 227.701 327.122C183.339 342.195 126.089 361.988 96.1919 399.565C64.672 439.188 59.3618 500.181 43.6249 547.327C39.1998 560.566 28.9944 573.491 36.0469 586.997C31.041 612.331 24.2097 637.517 19.9597 662.989C15.931 687.152 11.6533 716.367 23.3338 738.761C25.7769 743.444 31.3821 747.841 35.1803 751.335C44.0306 759.485 54.2084 766.694 65.6492 770.677C76.1958 774.346 87.5075 774.097 98.4874 773.286C109.781 772.447 119.737 771.829 131.077 772.585C147.782 773.71 164.523 774.125 181.265 773.848C188.668 773.728 196.559 772.539 203.833 773.765C211.107 774.991 218.492 775.83 226.18 775.969C232.929 776.088 242.148 774.162 248.629 775.793C256.041 777.665 261.821 786.22 269.528 788.147L287.957 795.587L312.47 799.883L526.85 806.511L640.53 803.036L667.339 638.725L659.392 578.663L659.41 578.709L659.401 578.7ZM324.188 59.3917L311.032 79.4615C312.028 65.1259 323.321 51.7952 337.426 48.5132L324.188 59.3917ZM390.233 63.9828C388.407 63.1623 389.606 59.3917 389.108 57.3635C387.172 49.4812 381.908 41.138 374.459 37.4135C373.002 36.6852 362.474 33.0253 361.552 33.0253H346.986C346.47 33.0253 343.068 35.4406 342.893 33.0253C353.984 29.5681 363.682 27.8903 374.736 32.5735C380.719 35.1088 390.224 42.8528 390.224 49.8592V63.9736L390.233 63.9828ZM404.79 58.5067L400.945 44.6136C398.76 39.2112 395.654 34.4542 391.072 30.8127L382.046 25.733C398.954 26.4244 408.726 42.5301 404.79 58.5067ZM554.092 180.539L552.386 173.606C553.013 161.437 547.067 152.117 538.622 144.124C554.645 148.033 556.867 166.591 554.092 180.539ZM527.274 108.575C539.913 118.799 559.799 125.133 561.384 144.115L556.305 136.002C545.14 121.344 521.383 116.937 515.879 97.6783C520 101.016 523.116 105.219 527.274 108.584V108.575ZM523.144 135.025C522.858 136.407 519.179 137.551 518.082 137.689C492.076 141.045 476.965 120.127 473.997 96.7656L482.359 114.337C491.513 129.263 505.443 137.071 523.144 135.015V135.025ZM442.136 47.6006C459.772 41.7004 473.988 51.0024 482.054 66.3889C490.02 81.5819 490.831 99.0796 496.74 114.982C478.855 94.5346 486.092 54.9297 452.378 48.7161L442.136 47.6006Z" fill="#234C91"/>
<path d="M583.179 100.366V100.344C583.179 100.344 583.179 100.355 583.19 100.366H583.179Z" fill="#234C91"/>
<path d="M593.191 128.442V128.359L593.163 128.286C593.172 128.341 593.182 128.396 593.191 128.451V128.442Z" fill="#234C91"/>
<path d="M324.187 59.3926L311.031 79.4625C312.027 65.1269 323.32 51.7961 337.425 48.5142L324.187 59.3926ZM390.232 63.9837C388.407 63.1632 389.605 59.3927 389.107 57.3645C387.171 49.4822 381.907 41.1389 374.458 37.4144C373.002 36.6861 362.474 33.0262 361.552 33.0262H346.986C346.469 33.0262 343.067 35.4415 342.892 33.0262C353.983 29.569 363.681 27.8912 374.735 32.5744C380.718 35.1097 390.223 42.8537 390.223 49.8602V63.9745L390.232 63.9837ZM404.789 58.5076L400.945 44.6145C398.76 39.2121 395.653 34.4551 391.071 30.8136L382.046 25.7339C398.953 26.4253 408.726 42.531 404.789 58.5076ZM554.092 180.54L552.386 173.608C553.013 161.438 547.067 152.118 538.622 144.125C554.645 148.034 556.866 166.592 554.092 180.54ZM527.273 108.576C539.913 118.8 559.798 125.134 561.384 144.116L556.304 136.003C545.14 121.345 521.382 116.938 515.879 97.6794C520 101.017 523.116 105.221 527.273 108.586V108.576ZM523.143 135.026C522.857 136.409 519.179 137.552 518.082 137.69C492.075 141.046 476.965 120.128 473.996 96.7667L482.358 114.338C491.513 129.264 505.443 137.072 523.143 135.017V135.026ZM442.135 47.6015C459.771 41.7013 473.987 51.0033 482.054 66.3899C490.019 81.5829 490.83 99.0807 496.74 114.984C478.855 94.5357 486.092 54.9306 452.378 48.717L442.135 47.6015Z" fill="#234C91"/>
<path d="M583.179 100.366V100.344C583.179 100.344 583.179 100.355 583.19 100.366H583.179Z" fill="#234C91"/>
<path d="M309.814 110.666C309.261 109.809 308.68 108.97 307.98 108.186C306.413 106.426 304.882 104.619 303.462 102.729C300.715 99.0781 297.138 94.2842 297.221 89.4718C297.359 81.5803 299.332 70.0196 306.523 63.1146C313.714 56.2095 315.687 43.9389 321.606 33.6505C327.524 23.362 342.607 14.4748 352.619 11.5155C362.63 8.55621 377.15 4.18638 394.906 5.17282C412.662 6.15926 425.781 13.2118 425.781 13.2118C425.781 13.2118 437.766 22.5139 451.862 23.7861C465.958 25.0583 489.217 29.2806 495.846 32.8115C502.474 36.3424 507.72 36.3332 523.134 51.9872C538.548 67.6411 528.407 64.9584 559.844 89.481C591.281 114.004 587.649 177.182 559.015 202.202C559.015 202.202 550.045 213.468 549.464 218.815L548.699 224.559C548.699 224.559 547.74 210.223 539.728 206.406C531.717 202.59 513.915 202.968 498.565 213.855C483.216 224.743 476.716 237.152 483.4 204.692C490.084 172.231 480.155 155.619 480.155 155.619C480.155 155.619 458.195 135.567 457.43 116.281C456.665 96.9946 460.481 76.3716 444.256 66.6362C435.36 61.2984 424.002 61.8884 414.202 63.8982C410.781 64.5988 407.232 65.4101 403.978 66.6916C398.575 68.8304 394.067 69.2637 388.25 68.434C385.733 68.0744 383.198 67.6411 380.884 66.5901C374.91 63.8613 369.259 60.4595 362.889 58.4866C351.18 54.8727 339.693 64.2301 332.761 72.5641C327.552 78.8146 323.551 85.9686 319.688 93.1226C316.471 99.1057 313.991 106.896 313.714 113.718C313.696 114.207 313.585 114.824 313.115 114.926C312.709 115.009 312.368 114.64 312.128 114.308C311.262 113.109 310.57 111.883 309.805 110.685V110.666H309.814Z" fill="#234C91"/>
<path d="M275.984 319.108C275.984 319.108 193.409 339.713 146.945 367.444C127.06 379.318 111.102 393.718 96.3419 411.428C82.3197 428.253 76.2628 456.325 72.2525 477.547C68.0579 499.728 60.8485 521.633 52.7542 542.753C45.9966 560.371 40.5574 579.547 49.6382 597.441C61.8718 621.558 80.5681 641.987 101.753 658.794C122.939 675.6 146.623 688.977 170.712 701.275C175.976 703.967 181.295 706.613 186.947 708.346C194.008 710.503 201.421 711.185 208.768 711.84C223.38 713.158 238.186 714.468 252.642 711.941C260.985 710.485 269.07 707.774 276.934 704.622C289.103 699.745 300.839 693.808 311.976 686.893C321.831 680.772 324.375 673.959 327.39 663.643C329.962 654.848 332.525 646.053 335.097 637.267C340.545 618.617 345.994 599.958 351.442 581.307C352.208 578.68 352.982 576.053 353.747 573.425C353.747 573.425 360.864 550.258 378.417 550.461C395.97 550.663 412.316 549.861 412.316 549.861L399.206 520.628C399.206 520.628 387.028 502.475 383.432 496.428C379.837 490.38 373.19 473.057 373.19 473.057C373.19 473.057 366.829 456.011 349.119 451.337C331.409 446.663 312.593 418.342 312.593 418.342L300.968 404.007C300.968 404.007 297.861 414.765 290.007 415.042C282.152 415.318 254.762 414.885 251.987 390.897C249.212 366.909 252.854 350.14 257.823 341.889C262.783 333.638 274.684 322.916 274.684 322.916L275.984 319.118V319.108Z" fill="#234C91"/>
<path d="M145.33 666.831C122.974 656.34 92.5418 646.383 70.5913 662.664C69.568 663.42 68.3234 662.646 68.8765 665.006C110.252 650.007 144.095 682.329 179.717 695.742C197.215 702.334 215.773 704.888 234.377 705.413C239.54 705.561 245.541 702.97 250.685 701.412C257.001 699.494 263.288 697.485 269.621 695.604C279.089 692.792 291.296 687.878 301.363 689.639C304.709 690.22 315.339 694.074 317.422 696.452C319.801 699.163 314.297 708.501 314.675 712.364C311.338 711.11 308.526 709.101 305.143 707.792C300.496 705.994 295.084 704.242 290.097 704.178L310.895 721.196L305.124 740.575C295.38 727.825 282.611 717.232 265.519 718.744C267.473 721.353 271.382 721.657 274.185 723.27C280.518 726.903 288.096 733.66 292.798 739.256C294.402 741.165 300.92 749.877 301.482 751.582C302.884 755.841 296.873 764.71 297.371 769.734C295.988 770.112 295.859 769.375 295.084 768.84C288.954 764.599 281.92 755.685 275.955 750.642C267.492 743.479 257.618 737.505 246.399 736.048C245.845 738.408 247.099 737.634 248.113 738.39C264.726 750.743 277.836 764.258 291.968 779.258C294.319 782.54 290.401 786.043 291 789.777C266.736 786.992 253.119 759.833 228.191 758.349L235.465 765.65C235.797 767.457 235.151 766.766 234.322 767.199C228.634 770.195 212.74 769.928 206.121 768.582C195.131 766.351 183.562 753.122 185.396 741.506C178.427 746.613 181.294 755.537 183.58 762.442C163.584 764.498 123.647 760.727 123.499 761.529C82.2534 759.197 52.4021 765.18 31.1061 728.737C22.7167 714.383 25.4179 692.765 32.8946 650.412C37.3566 625.143 43.3029 600.039 49.0648 575.056C86.4942 569.266 130.948 574.401 159.491 601.293L145.339 666.822H145.33V666.831Z" fill="#F3ECE4"/>
<path d="M527.174 261.978C520.905 267.435 515.53 268.864 508.837 273.234C500.503 278.683 492.732 288.787 481.245 285.754C472.358 283.412 473.15 273.216 472.634 266.154C468.744 274.543 465.508 280.619 459.792 287.911C447.568 303.491 424.446 321.441 406.045 328.862C397.48 332.319 388.151 333.149 379.752 337.058C365.315 319.044 339.013 289.976 313.052 299.591C306.037 302.191 299.528 308.894 293.748 313.512C286.76 275.899 289.848 237.704 290.097 199.685L314.675 204.248C300.219 220.75 312.849 239.935 333.795 236.1C327.738 229.978 316.288 225.977 317.782 215.154C318.713 208.387 336.072 186.225 340.912 179.016C347.218 169.621 350.472 155.138 364.578 166.607C365.038 179.679 360.807 193.637 364.799 206.461C370.035 223.267 407.326 230.403 422.16 226.595C428.124 225.065 431.462 220.123 434.283 215.044C437.104 209.964 442.589 191.59 444.424 189.673C450.029 183.809 474.128 194.697 476.257 199.694C479.189 206.571 464.872 237.741 483.485 235.15C489.791 234.275 493.266 225.277 498.659 221.156C500.844 219.478 503.619 217.911 506.155 216.814C546.654 199.344 554.195 238.432 527.183 261.978H527.174ZM350.177 240.636C355.773 242.24 363.72 245.614 367.887 239.695C373.068 232.338 367.14 226.088 365.647 218.796C364.329 218.971 364.135 220.05 363.905 221.137C362.632 227.25 363.6 236.819 355.893 238.617C353.625 239.142 349.449 237.621 350.187 240.645L350.177 240.636ZM524.067 253.395C531.369 247.661 543.206 225.71 529.479 221.11C514.083 215.956 494.078 235.63 495.378 250.657C497.83 249.431 499.664 243.65 502.504 244.388C508.081 245.835 502.928 254.455 499.406 256.52C496.742 258.078 485.716 260.143 486.822 264.614C489.145 273.944 510.764 258.299 514.037 253.856C518.822 247.347 517.863 235.243 508.579 233.832C516.139 227.932 530.318 224.382 529.525 238.359C529.211 243.835 526.206 248.592 524.058 253.413V253.395H524.067ZM353.819 236.994C350.426 227.194 342.175 222.336 331.97 225.166L332.532 227.959C336.598 228.549 350.998 239.041 353.819 236.985V236.994ZM375.668 279.798C373.649 268.56 370.754 274.931 364.707 273.022C358.106 270.939 349.384 261.01 341.133 259.267C336.22 258.235 332.965 260.189 329.766 259.784C327.766 259.525 324.622 256.345 322.308 255.322C312.287 250.896 308.848 257.396 299.196 257.958C299.758 266.219 311.743 264.301 317.634 265.472C332.421 268.413 349.689 276.101 364.43 277.936C366.274 278.166 367.869 277.051 369.556 277.254C371.086 277.438 374.709 280.6 375.668 279.807V279.798ZM341.069 286.196L309.208 281.642C312.121 297.148 333.122 297.296 341.069 286.196Z" fill="#F3ECE4"/>
<path d="M413.71 455.383L401.633 462.869L384.781 479.232C382.513 475.001 380.715 470.318 378.217 466.215C376.364 463.164 370.353 453.53 368.297 451.557C364.02 447.445 351.915 443.002 345.701 438.641C330.85 428.205 314.098 410.237 305.414 394.251C301.8 387.595 300.334 380.404 297.117 374.32C291.936 364.547 279.426 364.225 271.423 357.218L275.351 367.857L280.08 373.582C276.595 375.924 272.087 376.486 268.612 378.063C267.542 378.551 266.961 377.629 267.33 379.962C276.715 382.34 283.251 383.447 281.813 394.915C280.218 407.619 267.173 407.121 262.333 396.344C256.452 383.253 257.014 362.15 262.121 348.801C263.569 345.021 265.155 340.652 269.663 339.951C285.169 337.536 306.815 345.787 321.04 351.733C321.981 350.747 313.997 343.03 312.882 342.145C302.87 334.254 286.202 331.359 273.71 330.778C277.858 321.024 282.929 322.14 292.406 322.555C307.94 323.228 325.346 327.183 340.161 331.691C333.615 321.541 319.722 316.691 308.3 314.387C318.662 305.324 325.005 304.448 337.146 310.588C384.403 334.466 387.657 394.832 422.948 429.726C416.55 437.286 413.157 445.288 413.71 455.374V455.383Z" fill="#F3ECE4"/>
<path d="M477.619 188.746C470.281 183.583 461.845 179.628 453.659 175.839C429.8 164.776 404.411 154.7 377.491 156.866C377.639 155.4 381.4 155.161 382.506 155.068C400.668 153.538 423.789 159.503 440.78 165.974C447.123 168.39 453.917 171.266 459.421 175.101C460.029 167.514 452.46 159.291 447.574 153.722C442.974 148.495 437.037 141.793 430.325 140.014C420.645 137.451 391.458 138.751 381.695 141.507C377.021 142.825 373.933 144.743 373.813 150.09C373.767 152.201 375.813 156.774 374.237 157.889C366.751 160.268 360.159 153.308 352.102 154.967C350.35 149.546 350.848 143.231 349.613 137.884C347.529 128.831 333.009 122.055 324.74 119.962C321.79 119.215 318.498 120.469 316.544 118.201C322.011 106.668 327.994 93.5772 334.89 82.8463C339.573 75.5632 344.985 68.7042 353.632 66.0768C368.503 61.5503 377.002 73.3506 389.891 74.8349C404.816 76.5497 418.396 67.0264 434.576 72.945C455.042 80.4217 447.501 104.152 450.571 120.69C454.645 142.641 476.495 153.815 478.56 174.65C479.048 179.591 477.361 183.915 477.638 188.773L477.619 188.746Z" fill="#F3ECE4"/>
<path d="M418.455 547.557L405.041 516.001C409.134 502.273 423.11 495.267 434.616 488.509C436.589 488.085 444.526 492.713 447.532 493.423C454.317 495.027 467.915 494.29 473.907 490.547C475.834 489.339 477.881 485.698 479.9 485.596L532.255 547.548H418.455V547.557Z" fill="#F3ECE4"/>
<path d="M453.907 370.346C449.233 387.973 436.51 402.373 424.369 415.473C412.532 402.816 405.101 386.867 397.763 371.314C420.082 350.746 443.637 331.589 463.965 308.947C463.965 308.947 453.234 366.4 453.907 370.346Z" fill="#F3ECE4"/>
<path d="M379.068 164.368C393.035 162.027 414.414 166.194 427.256 172.186C433.018 174.878 437.674 176.713 438.291 183.996C438.697 188.762 428.141 214.538 424.38 217.894C415.889 225.454 390.804 219.139 381.41 214.409C374.154 210.749 370.144 206.674 369.296 198.294C368.78 193.196 369.895 171.448 372.486 167.816C373.74 166.055 376.948 164.728 379.059 164.377H379.068V164.368ZM432.096 193.298C436.153 190.154 425.025 179.718 422.545 177.819C415.456 172.37 399.304 166.645 390.887 170.739C389.403 171.458 384.01 176.796 382.94 178.271C382.203 179.294 379.428 184.438 382.47 183.267C384.535 182.465 389.984 175.818 392.039 176.915C389.956 185.314 398.493 191.961 406.052 187.729C409.851 185.6 408.892 182.511 409.353 179.183C409.491 178.16 408.938 177.312 410.68 177.837C418.968 180.317 424.278 190.135 432.087 193.298H432.096Z" fill="#F3ECE4"/>
<path d="M637.294 512.027C637.165 505.417 635.349 498.355 634.114 491.865C633.008 486.039 631.717 480.24 630.168 474.506C625.724 458.123 618.995 441.889 607.001 429.553C600.197 422.556 592.01 417.642 583.833 412.48C579.887 409.991 575.001 408.663 570.677 406.764C565.865 404.653 561.136 402.366 556.499 399.905C549.299 396.079 543.325 391.654 537.332 386.196C531.635 381.006 524.002 376.618 517.078 373.262C508.882 369.288 500.834 366.108 493.431 360.779C489.78 358.152 485.761 356.225 482.285 353.284C480.681 351.92 479.16 350.454 477.786 348.859C475.058 345.66 473.629 341.788 468.687 341.843C467.406 341.862 466.097 342.055 465.009 342.728C464.926 342.784 464.852 342.848 464.769 342.904C462.068 358.438 459.57 373.861 459.92 375.926C454.849 395.047 441.104 410.682 427.93 424.907C428.732 426.742 430.188 428.429 432.087 428.853C443.584 427.636 457.348 427.212 466.539 435.426C481.861 448.121 486.683 463.701 481.502 475.234C500.843 498.208 521.752 520.923 537.987 545.787C570.714 549.816 606.374 547.355 639.498 546.921C643.176 536.808 637.497 523.127 637.276 512.018H637.294V512.027Z" fill="#234C91"/>
<path d="M263.702 777.762C263.444 777.448 260.973 777.832 260.605 777.843C247.458 778.186 234.293 778.51 221.147 778.854C209.439 779.157 197.445 778.732 185.782 779.774C183.118 780.017 185.294 781.797 186.649 782.06C190.853 782.848 194.909 784.648 199.003 786.226C205.299 788.653 211.605 791.07 217.902 793.497C232.579 799.14 247.246 804.783 261.923 810.436C269.455 813.338 276.996 816.23 284.528 819.132L287.414 832.38L178.767 786.873C171.032 784.335 169.142 773.433 178.352 772.109C193.904 769.874 211.854 770.359 227.563 770.096C239.76 769.894 254.861 767.396 263.675 777.782H263.693L263.702 777.762Z" fill="#234C91"/>
<path d="M341.056 165.063C332.971 156.96 315.04 149.262 310.117 164.141H313.749C312.634 170.668 318.718 177.325 325.015 174.043C330.122 171.388 329.016 168.613 328.74 164.16C328.601 161.91 331.846 163.948 332.833 164.639C334.004 165.46 337.009 169.055 337.267 170.291C337.793 172.798 327.347 187.641 325.061 190.48C324.195 191.559 319.631 197.192 319.225 197.395C313.685 200.114 299.893 195.044 293.726 194.186C297.902 185.364 304.318 175.748 306.061 166.013C307.176 159.762 305.203 152.876 309.149 147.271C311.186 146.109 330.98 153.475 334.077 155.199C337.599 157.163 343.02 160.703 341.056 165.054V165.063Z" fill="#F3ECE4"/>
<path d="M426.651 482.887C419.073 486.362 410.877 492.097 404.774 497.896C402.884 499.693 399.777 504.911 397.943 505.639C396.385 506.257 396.726 505.022 396.366 504.524C395.085 502.726 388.88 492.687 388.549 491.322C388.327 490.41 388.567 490.078 388.853 489.331C390.42 485.164 411.808 466.154 416.187 464.688L418.621 471.354L426.651 482.887Z" fill="#F3ECE4"/>
<path d="M440.132 433.925C454.532 432.92 472.85 445.495 475.395 460.079C481.405 494.476 434.849 490.078 425.298 462.836C420.845 450.132 424.929 434.994 440.132 433.925ZM438.233 439.392C429.133 441.07 426.93 450.575 428.7 458.531C434.591 484.952 481.11 488.068 469.476 456.89C465.097 445.145 450.577 437.115 438.233 439.383V439.392Z" fill="#F3ECE4"/>
<path d="M288.261 189.643L283.799 178.193C283.799 173.694 283.486 169.113 283.735 164.623C283.901 161.599 285.247 149.116 286.205 147.061C287.699 143.862 296.042 143.603 297.849 145.945C300.596 149.504 298.015 163.987 296.734 168.523C294.77 175.428 290.29 182.628 288.271 189.662V189.643H288.261Z" fill="#F3ECE4"/>
<path d="M174.627 535.591C173.005 535.813 173.751 533.425 173.705 532.263C173.051 515.411 174.378 498.632 172.654 481.807C170.617 461.922 165.399 442.322 157.148 424.271C152.833 414.822 146.574 406.165 143.07 396.292C159.499 412.425 169.308 433.712 174.175 456.391C179.817 482.711 181.689 509.345 174.618 535.582L174.627 535.591Z" fill="#F3ECE4"/>
<path d="M166.276 598.558C164.663 598.788 165.4 596.391 165.364 595.239C164.331 567.296 161.095 542.358 153.96 515.356C150.622 502.726 144.621 490.344 144.021 477.401L151.6 492.022C163.962 525.331 176.076 562.862 166.286 598.558H166.276Z" fill="#F3ECE4"/>
<path d="M563.672 423.974C559.736 430.4 554.259 435.673 549.899 441.776C539.961 455.715 532.881 470.392 527.93 486.94L522.832 513.638C516.544 489.272 529.847 458.296 545.133 439.739C546.847 437.655 561.902 422.314 563.672 423.974Z" fill="#F3ECE4"/>
<path d="M586.887 467.87C569.343 483.358 553.587 500.718 540.469 520.336C545.484 497.058 565.821 476.637 586.887 467.87Z" fill="#F3ECE4"/>
<path d="M289.946 380.143C295.293 390.256 299.368 402.306 285.539 407.302C287.733 402.094 288.793 396.203 288.166 390.561C287.715 386.44 282.7 378.493 289.946 380.152V380.143Z" fill="#F3ECE4"/>
<path d="M496.675 114.74C477.425 91.0101 486.11 48.7131 444.246 47.6437C442.301 47.4316 441.296 47.4224 443.066 46.9246C459.845 41.596 475.563 52.0043 482.901 67.8334C490.065 82.5931 491.457 99.3902 496.702 114.731L496.675 114.749V114.74Z" fill="#F3ECE4"/>
<path d="M561.384 144.118L556.304 136.005C545.14 121.346 521.383 116.94 515.879 97.6812C520 101.018 523.116 105.222 527.274 108.587C539.913 118.811 559.798 125.145 561.384 144.127V144.118Z" fill="#F3ECE4"/>
<path d="M391.146 63.1048C390.584 62.9112 390.178 60.3207 389.865 59.325C385.136 38.1765 365.923 30.1652 345.872 32.516C342.829 32.7096 343.253 31.9905 345.669 31.0133C368.421 23.002 395.83 37.2546 391.183 63.0956H391.146V63.1048Z" fill="#F3ECE4"/>
<path d="M523.152 135.024C522.866 136.407 519.188 137.55 518.09 137.688C492.084 141.044 476.973 120.126 474.005 96.7646L482.367 114.336C491.521 129.262 505.451 137.07 523.152 135.015V135.024Z" fill="#F3ECE4"/>
<path d="M405.507 57.9974C405.276 58.191 405 57.767 404.649 56.7805C403.93 54.6233 402.907 50.6867 402.105 48.0132C399.625 39.0799 393.54 31.2714 385.077 27.2888C384.386 26.8278 382.496 25.9428 382.69 25.3896C398.39 25.9797 409.369 43.1732 405.544 57.9698L405.507 58.0067V57.9974Z" fill="#F3ECE4"/>
<path d="M554.656 180.17C554.388 180.124 554.084 179.543 553.817 178.566C553.282 176.612 552.922 173.634 552.701 171.44C552.203 161.345 546.948 152.707 540.071 145.424C539.435 144.612 539.177 144.05 539.426 143.847C539.638 143.663 540.255 143.755 541.131 144.096C553.263 149.167 556.757 163.345 555.624 175.957C555.439 177.128 555.504 179.589 554.692 180.161H554.656V180.17Z" fill="#F3ECE4"/>
<path d="M336.906 48.2919C337.183 48.3841 336.86 48.8266 335.994 49.601C333.127 52.0625 329.642 54.819 326.683 57.2805C324.138 59.2626 323.262 60.8298 321.335 63.7707C318.459 68.1406 315.131 73.211 312.319 77.4795C311.536 78.6595 311.01 79.2956 310.77 79.2126C310.337 78.724 310.9 76.659 311.093 75.6725C313.96 63.1438 324.258 51.4449 336.86 48.2827H336.906V48.2919Z" fill="#F3ECE4"/>
<path d="M340.818 285.439L308.957 280.885C311.87 296.392 332.871 296.539 340.818 285.439Z" fill="#234C91"/>
<path d="M349.924 240.804C355.52 242.408 363.466 245.783 367.633 239.864C372.814 232.507 366.887 226.257 365.393 218.964C364.075 219.14 363.881 220.218 363.651 221.306C362.379 227.418 363.347 236.988 355.639 238.785C353.371 239.311 349.195 237.79 349.933 240.814H349.924V240.804Z" fill="#234C91"/>
<path d="M364.446 273.191C357.845 271.108 349.124 261.179 340.873 259.436C335.959 258.404 332.705 260.358 329.506 259.953C327.505 259.694 324.362 256.514 322.048 255.491C312.027 251.065 308.588 257.565 298.936 258.127C299.498 266.387 311.483 264.47 317.374 265.641C332.161 268.582 349.428 276.27 364.169 278.105C366.013 278.335 367.608 277.22 369.295 277.423C370.826 277.607 374.449 280.769 375.408 279.976C373.389 268.738 370.494 275.109 364.446 273.2V273.191Z" fill="#234C91"/>
<path d="M513.797 254.022C518.582 247.513 517.623 235.409 508.349 233.998C515.908 228.098 530.087 224.549 529.295 238.515C528.981 243.992 525.976 248.749 523.828 253.57C531.129 247.836 542.966 225.885 529.239 221.285C513.843 216.132 493.838 235.805 495.138 250.832C497.59 249.606 499.425 243.826 502.264 244.563C507.842 246.011 502.688 254.63 499.167 256.695C496.502 258.253 485.476 260.318 486.583 264.79C488.906 274.119 510.525 258.475 513.797 254.031V254.022Z" fill="#234C91"/>
<path d="M422.294 177.984C415.204 172.536 399.053 166.811 390.636 170.904C389.151 171.623 383.758 176.961 382.689 178.436C381.951 179.459 379.176 184.603 382.219 183.433C384.284 182.631 389.732 175.984 391.788 177.081C389.705 185.479 398.241 192.126 405.801 187.895C409.599 185.765 408.641 182.677 409.101 179.349C409.249 178.325 408.687 177.477 410.429 178.003C418.717 180.483 424.027 190.301 431.836 193.463C435.892 190.319 424.765 179.883 422.285 177.984H422.294Z" fill="#234C91"/>
<path d="M331.712 225.343L332.274 228.136C336.34 228.726 350.74 239.217 353.561 237.162C350.169 227.362 341.917 222.503 331.712 225.334V225.343Z" fill="#234C91"/>
<path d="M379.611 142.169C379.611 142.169 375.583 143.773 374.817 145.857C374.052 147.94 373.37 149.001 374.237 152.707C375.103 156.413 374.799 155.666 374.799 155.666C374.799 155.666 375.933 156.496 378.699 155.73C381.464 154.965 387.761 154.661 391.569 154.873C395.376 155.085 409.905 156.108 424.803 160.653C439.701 165.198 451.022 169.992 454.535 172.076C458.047 174.159 459.412 175.081 459.412 175.081C459.412 175.081 460.813 169.19 451.114 157.786C441.416 146.382 434.953 139.357 425.633 139.182C416.312 139.007 400.732 136.988 379.611 142.16V142.169Z" fill="#234C91"/>
<path d="M302.856 133.65C302.856 133.65 302.247 134.858 311.116 136.324C311.116 136.324 325.544 140.177 328.826 141.551C332.108 142.924 340.645 146.879 343.586 149.59C346.527 152.3 351.182 151.093 351.182 151.093C351.182 151.093 350.159 140.269 349.762 138.656C349.366 137.043 348.923 132.737 340.396 126.893C331.868 121.048 324.723 119.951 324.723 119.951C324.723 119.951 319.598 119.775 318.648 119.434C317.699 119.093 316.518 118.181 316.518 118.181C316.518 118.181 313.485 117.102 311.254 118.181C309.023 119.259 302.847 133.659 302.847 133.659L302.856 133.65Z" fill="#234C91"/>
<path d="M310.118 164.148C310.118 164.148 312.349 156.875 318.571 155.962C324.794 155.049 332.308 157.769 336.678 161.41L341.057 165.061L337.268 170.298C337.268 170.298 336.152 166.555 330.473 163.042C330.473 163.042 328.62 162.673 328.74 164.158C328.86 165.642 331.082 171.994 324.011 174.483C316.94 176.972 312.432 168.122 313.741 164.139H310.108H310.118V164.148Z" fill="#234C91"/>
<path d="M785.406 550.72L376.237 552.048C369.249 552.048 362.372 553.919 354.831 576.534L285.199 817.815C284.508 821.853 284.821 824.72 286.13 826.315C288.186 828.841 293.542 829.182 298.511 829.182H690.662C708.916 829.182 718.992 829.182 727.059 807.286L800 565.074C799.696 557.1 793.27 550.72 785.416 550.72H785.406Z" fill="#F3ECE4" stroke="#234C91" stroke-width="12.9482" stroke-miterlimit="10"/>
<path d="M22.3585 384.421C23.0386 385.859 30.5918 388.03 39.3869 389.506C53.0717 391.757 55.4639 391.547 56.6621 388.868C59.9526 382.194 56.9413 380.178 40.8643 378.137C23.3943 376.185 18.7301 377.605 22.3585 384.421Z" fill="#234C91"/>
<path d="M53.8064 345.794C69.1933 359.266 74.1574 361.631 74.6467 355.333C74.8455 352.775 69.7478 347.033 59.3688 337.911C50.6541 330.304 43.0131 324.166 42.0291 324.09C41.2419 324.029 40.2864 326.132 40.0877 328.691C39.8124 332.233 43.2459 336.46 53.8064 345.794Z" fill="#234C91"/>
<path d="M79.5092 314.47C86.4162 330.055 95.232 344.005 97.5039 342.796C101.427 340.725 100.129 334.486 92.6454 321.233C88.6694 313.796 84.3303 305.935 83.1361 303.467C81.942 300.998 80.3236 298.892 79.3396 298.816C75.2066 298.495 75.2924 305.035 79.5092 314.47Z" fill="#234C91"/>
</svg>
